%TF.GenerationSoftware,KiCad,Pcbnew,5.1.10*%
%TF.CreationDate,2021-10-26T18:06:13-04:00*%
%TF.ProjectId,BREAD_Slice,42524541-445f-4536-9c69-63652e6b6963,rev?*%
%TF.SameCoordinates,Original*%
%TF.FileFunction,Copper,L2,Bot*%
%TF.FilePolarity,Positive*%
%FSLAX46Y46*%
G04 Gerber Fmt 4.6, Leading zero omitted, Abs format (unit mm)*
G04 Created by KiCad (PCBNEW 5.1.10) date 2021-10-26 18:06:13*
%MOMM*%
%LPD*%
G01*
G04 APERTURE LIST*
%TA.AperFunction,ComponentPad*%
%ADD10O,2.000000X1.905000*%
%TD*%
%TA.AperFunction,ComponentPad*%
%ADD11R,2.000000X1.905000*%
%TD*%
%TA.AperFunction,SMDPad,CuDef*%
%ADD12R,2.000000X1.700000*%
%TD*%
%TA.AperFunction,ComponentPad*%
%ADD13C,2.500000*%
%TD*%
%TA.AperFunction,ComponentPad*%
%ADD14R,2.500000X2.500000*%
%TD*%
%TA.AperFunction,SMDPad,CuDef*%
%ADD15R,1.600000X2.000000*%
%TD*%
%TA.AperFunction,ComponentPad*%
%ADD16C,5.600000*%
%TD*%
%TA.AperFunction,SMDPad,CuDef*%
%ADD17R,2.770000X2.350000*%
%TD*%
%TA.AperFunction,ComponentPad*%
%ADD18R,1.600000X1.600000*%
%TD*%
%TA.AperFunction,ComponentPad*%
%ADD19O,1.600000X1.600000*%
%TD*%
%TA.AperFunction,ComponentPad*%
%ADD20R,1.700000X1.700000*%
%TD*%
%TA.AperFunction,ComponentPad*%
%ADD21O,1.700000X1.700000*%
%TD*%
%TA.AperFunction,ViaPad*%
%ADD22C,0.800000*%
%TD*%
%TA.AperFunction,Conductor*%
%ADD23C,0.500000*%
%TD*%
%TA.AperFunction,Conductor*%
%ADD24C,0.254000*%
%TD*%
%TA.AperFunction,Conductor*%
%ADD25C,0.100000*%
%TD*%
G04 APERTURE END LIST*
D10*
%TO.P,Q2,3*%
%TO.N,Net-(J3-Pad1)*%
X144190000Y-67410000D03*
%TO.P,Q2,2*%
%TO.N,+12V*%
X144190000Y-69950000D03*
D11*
%TO.P,Q2,1*%
%TO.N,/E_STOP*%
X144190000Y-72490000D03*
%TD*%
%TO.P,U1,8*%
%TO.N,N/C*%
%TA.AperFunction,SMDPad,CuDef*%
G36*
G01*
X157930000Y-76785000D02*
X157930000Y-77085000D01*
G75*
G02*
X157780000Y-77235000I-150000J0D01*
G01*
X156130000Y-77235000D01*
G75*
G02*
X155980000Y-77085000I0J150000D01*
G01*
X155980000Y-76785000D01*
G75*
G02*
X156130000Y-76635000I150000J0D01*
G01*
X157780000Y-76635000D01*
G75*
G02*
X157930000Y-76785000I0J-150000D01*
G01*
G37*
%TD.AperFunction*%
%TO.P,U1,7*%
%TO.N,/DATA*%
%TA.AperFunction,SMDPad,CuDef*%
G36*
G01*
X157930000Y-78055000D02*
X157930000Y-78355000D01*
G75*
G02*
X157780000Y-78505000I-150000J0D01*
G01*
X156130000Y-78505000D01*
G75*
G02*
X155980000Y-78355000I0J150000D01*
G01*
X155980000Y-78055000D01*
G75*
G02*
X156130000Y-77905000I150000J0D01*
G01*
X157780000Y-77905000D01*
G75*
G02*
X157930000Y-78055000I0J-150000D01*
G01*
G37*
%TD.AperFunction*%
%TO.P,U1,6*%
%TO.N,/SS*%
%TA.AperFunction,SMDPad,CuDef*%
G36*
G01*
X157930000Y-79325000D02*
X157930000Y-79625000D01*
G75*
G02*
X157780000Y-79775000I-150000J0D01*
G01*
X156130000Y-79775000D01*
G75*
G02*
X155980000Y-79625000I0J150000D01*
G01*
X155980000Y-79325000D01*
G75*
G02*
X156130000Y-79175000I150000J0D01*
G01*
X157780000Y-79175000D01*
G75*
G02*
X157930000Y-79325000I0J-150000D01*
G01*
G37*
%TD.AperFunction*%
%TO.P,U1,5*%
%TO.N,/CLK*%
%TA.AperFunction,SMDPad,CuDef*%
G36*
G01*
X157930000Y-80595000D02*
X157930000Y-80895000D01*
G75*
G02*
X157780000Y-81045000I-150000J0D01*
G01*
X156130000Y-81045000D01*
G75*
G02*
X155980000Y-80895000I0J150000D01*
G01*
X155980000Y-80595000D01*
G75*
G02*
X156130000Y-80445000I150000J0D01*
G01*
X157780000Y-80445000D01*
G75*
G02*
X157930000Y-80595000I0J-150000D01*
G01*
G37*
%TD.AperFunction*%
%TO.P,U1,4*%
%TO.N,+5V*%
%TA.AperFunction,SMDPad,CuDef*%
G36*
G01*
X162880000Y-80595000D02*
X162880000Y-80895000D01*
G75*
G02*
X162730000Y-81045000I-150000J0D01*
G01*
X161080000Y-81045000D01*
G75*
G02*
X160930000Y-80895000I0J150000D01*
G01*
X160930000Y-80595000D01*
G75*
G02*
X161080000Y-80445000I150000J0D01*
G01*
X162730000Y-80445000D01*
G75*
G02*
X162880000Y-80595000I0J-150000D01*
G01*
G37*
%TD.AperFunction*%
%TO.P,U1,3*%
%TO.N,Net-(C3-Pad1)*%
%TA.AperFunction,SMDPad,CuDef*%
G36*
G01*
X162880000Y-79325000D02*
X162880000Y-79625000D01*
G75*
G02*
X162730000Y-79775000I-150000J0D01*
G01*
X161080000Y-79775000D01*
G75*
G02*
X160930000Y-79625000I0J150000D01*
G01*
X160930000Y-79325000D01*
G75*
G02*
X161080000Y-79175000I150000J0D01*
G01*
X162730000Y-79175000D01*
G75*
G02*
X162880000Y-79325000I0J-150000D01*
G01*
G37*
%TD.AperFunction*%
%TO.P,U1,2*%
%TO.N,Net-(C3-Pad2)*%
%TA.AperFunction,SMDPad,CuDef*%
G36*
G01*
X162880000Y-78055000D02*
X162880000Y-78355000D01*
G75*
G02*
X162730000Y-78505000I-150000J0D01*
G01*
X161080000Y-78505000D01*
G75*
G02*
X160930000Y-78355000I0J150000D01*
G01*
X160930000Y-78055000D01*
G75*
G02*
X161080000Y-77905000I150000J0D01*
G01*
X162730000Y-77905000D01*
G75*
G02*
X162880000Y-78055000I0J-150000D01*
G01*
G37*
%TD.AperFunction*%
%TO.P,U1,1*%
%TO.N,GND*%
%TA.AperFunction,SMDPad,CuDef*%
G36*
G01*
X162880000Y-76785000D02*
X162880000Y-77085000D01*
G75*
G02*
X162730000Y-77235000I-150000J0D01*
G01*
X161080000Y-77235000D01*
G75*
G02*
X160930000Y-77085000I0J150000D01*
G01*
X160930000Y-76785000D01*
G75*
G02*
X161080000Y-76635000I150000J0D01*
G01*
X162730000Y-76635000D01*
G75*
G02*
X162880000Y-76785000I0J-150000D01*
G01*
G37*
%TD.AperFunction*%
%TD*%
D12*
%TO.P,R3,2*%
%TO.N,/CLK*%
X157430000Y-83920000D03*
%TO.P,R3,1*%
%TO.N,+5V*%
X161430000Y-83920000D03*
%TD*%
%TO.P,R2,2*%
%TO.N,+5V*%
X161430000Y-91540000D03*
%TO.P,R2,1*%
%TO.N,/SS*%
X157430000Y-91540000D03*
%TD*%
%TO.P,R1,2*%
%TO.N,/TMSTR*%
X176670000Y-100430000D03*
%TO.P,R1,1*%
%TO.N,+5V*%
X172670000Y-100430000D03*
%TD*%
D10*
%TO.P,Q1,3*%
%TO.N,GND*%
X144190000Y-80110000D03*
%TO.P,Q1,2*%
%TO.N,Net-(J3-Pad2)*%
X144190000Y-82650000D03*
D11*
%TO.P,Q1,1*%
%TO.N,/PWM*%
X144190000Y-85190000D03*
%TD*%
D13*
%TO.P,J4,2*%
%TO.N,GND*%
X184830000Y-95430000D03*
D14*
%TO.P,J4,1*%
%TO.N,/TMSTR*%
X184830000Y-100430000D03*
%TD*%
D13*
%TO.P,J3,2*%
%TO.N,Net-(J3-Pad2)*%
X184830000Y-57330000D03*
D14*
%TO.P,J3,1*%
%TO.N,Net-(J3-Pad1)*%
X184830000Y-62330000D03*
%TD*%
D13*
%TO.P,J2,2*%
%TO.N,Net-(FB1-Pad2)*%
X184830000Y-81300000D03*
D14*
%TO.P,J2,1*%
%TO.N,Net-(FB2-Pad2)*%
X184830000Y-76300000D03*
%TD*%
D12*
%TO.P,FB2,2*%
%TO.N,Net-(FB2-Pad2)*%
X177940000Y-76300000D03*
%TO.P,FB2,1*%
%TO.N,Net-(C3-Pad2)*%
X173940000Y-76300000D03*
%TD*%
%TO.P,FB1,2*%
%TO.N,Net-(FB1-Pad2)*%
X177940000Y-81380000D03*
%TO.P,FB1,1*%
%TO.N,Net-(C3-Pad1)*%
X173940000Y-81380000D03*
%TD*%
D15*
%TO.P,C3,2*%
%TO.N,Net-(C3-Pad2)*%
X169590000Y-76840000D03*
%TO.P,C3,1*%
%TO.N,Net-(C3-Pad1)*%
X169590000Y-80840000D03*
%TD*%
D16*
%TO.P,H4,1*%
%TO.N,N/C*%
X187600000Y-134800000D03*
%TD*%
%TO.P,H3,1*%
%TO.N,N/C*%
X127600000Y-134800000D03*
%TD*%
%TO.P,H2,1*%
%TO.N,N/C*%
X187600000Y-44800000D03*
%TD*%
%TO.P,H1,1*%
%TO.N,N/C*%
X127600000Y-44800000D03*
%TD*%
D17*
%TO.P,C1,2*%
%TO.N,GND*%
X160170000Y-99000000D03*
%TO.P,C1,1*%
%TO.N,+12V*%
X155030000Y-99000000D03*
%TD*%
D18*
%TO.P,A1,1*%
%TO.N,Net-(A1-Pad1)*%
X135000000Y-100000000D03*
D19*
%TO.P,A1,17*%
%TO.N,Net-(A1-Pad17)*%
X150240000Y-133020000D03*
%TO.P,A1,2*%
%TO.N,Net-(A1-Pad2)*%
X135000000Y-102540000D03*
%TO.P,A1,18*%
%TO.N,Net-(A1-Pad18)*%
X150240000Y-130480000D03*
%TO.P,A1,3*%
%TO.N,Net-(A1-Pad3)*%
X135000000Y-105080000D03*
%TO.P,A1,19*%
%TO.N,/TMSTR*%
X150240000Y-127940000D03*
%TO.P,A1,4*%
%TO.N,GND*%
X135000000Y-107620000D03*
%TO.P,A1,20*%
%TO.N,Net-(A1-Pad20)*%
X150240000Y-125400000D03*
%TO.P,A1,5*%
%TO.N,/E_STOP*%
X135000000Y-110160000D03*
%TO.P,A1,21*%
%TO.N,Net-(A1-Pad21)*%
X150240000Y-122860000D03*
%TO.P,A1,6*%
%TO.N,/INT*%
X135000000Y-112700000D03*
%TO.P,A1,22*%
%TO.N,Net-(A1-Pad22)*%
X150240000Y-120320000D03*
%TO.P,A1,7*%
%TO.N,/SYNC*%
X135000000Y-115240000D03*
%TO.P,A1,23*%
%TO.N,/I2C_DAT*%
X150240000Y-117780000D03*
%TO.P,A1,8*%
%TO.N,Net-(A1-Pad8)*%
X135000000Y-117780000D03*
%TO.P,A1,24*%
%TO.N,/I2C_CLK*%
X150240000Y-115240000D03*
%TO.P,A1,9*%
%TO.N,/PWM*%
X135000000Y-120320000D03*
%TO.P,A1,25*%
%TO.N,Net-(A1-Pad25)*%
X150240000Y-112700000D03*
%TO.P,A1,10*%
%TO.N,Net-(A1-Pad10)*%
X135000000Y-122860000D03*
%TO.P,A1,26*%
%TO.N,Net-(A1-Pad26)*%
X150240000Y-110160000D03*
%TO.P,A1,11*%
%TO.N,Net-(A1-Pad11)*%
X135000000Y-125400000D03*
%TO.P,A1,27*%
%TO.N,+5V*%
X150240000Y-107620000D03*
%TO.P,A1,12*%
%TO.N,/SS*%
X135000000Y-127940000D03*
%TO.P,A1,28*%
%TO.N,Net-(A1-Pad28)*%
X150240000Y-105080000D03*
%TO.P,A1,13*%
%TO.N,/DATA*%
X135000000Y-130480000D03*
%TO.P,A1,29*%
%TO.N,GND*%
X150240000Y-102540000D03*
%TO.P,A1,14*%
%TO.N,/CLK*%
X135000000Y-133020000D03*
%TO.P,A1,30*%
%TO.N,+12V*%
X150240000Y-100000000D03*
%TO.P,A1,15*%
%TO.N,Net-(A1-Pad15)*%
X135000000Y-135560000D03*
%TO.P,A1,16*%
%TO.N,Net-(A1-Pad16)*%
X150240000Y-135560000D03*
%TD*%
D17*
%TO.P,C2,1*%
%TO.N,+5V*%
X155030000Y-107800000D03*
%TO.P,C2,2*%
%TO.N,GND*%
X160170000Y-107800000D03*
%TD*%
D20*
%TO.P,J1,1*%
%TO.N,GND*%
X129600000Y-78800000D03*
D21*
%TO.P,J1,2*%
%TO.N,+12V*%
X129600000Y-81340000D03*
%TO.P,J1,3*%
%TO.N,/I2C_CLK*%
X129600000Y-83880000D03*
%TO.P,J1,4*%
%TO.N,/I2C_DAT*%
X129600000Y-86420000D03*
%TO.P,J1,5*%
%TO.N,GND*%
X129600000Y-88960000D03*
%TO.P,J1,6*%
%TO.N,/E_STOP*%
X129600000Y-91500000D03*
%TO.P,J1,7*%
%TO.N,/INT*%
X129600000Y-94040000D03*
%TO.P,J1,8*%
%TO.N,/SYNC*%
X129600000Y-96580000D03*
%TO.P,J1,9*%
%TO.N,+12V*%
X129600000Y-99120000D03*
%TO.P,J1,10*%
%TO.N,GND*%
X129600000Y-101660000D03*
%TD*%
D22*
%TO.N,GND*%
X158160000Y-111860000D03*
X167050000Y-101700000D03*
%TO.N,/I2C_CLK*%
X141650000Y-92810000D03*
X134030000Y-85190000D03*
%TO.N,/I2C_DAT*%
X134030000Y-89000000D03*
X140380000Y-95350000D03*
%TO.N,/E_STOP*%
X134030000Y-92810000D03*
X137840000Y-76300000D03*
%TO.N,+12V*%
X134030000Y-82650000D03*
X150540000Y-95350000D03*
%TO.N,/SS*%
X128950000Y-127100000D03*
X151810000Y-81380000D03*
%TD*%
D23*
%TO.N,GND*%
X160170000Y-109850000D02*
X158160000Y-111860000D01*
X160170000Y-107800000D02*
X160170000Y-109850000D01*
X167050000Y-101700000D02*
X167050000Y-100430000D01*
X165620000Y-99000000D02*
X160170000Y-99000000D01*
X167050000Y-100430000D02*
X165620000Y-99000000D01*
%TO.N,+5V*%
X150420000Y-107800000D02*
X150240000Y-107620000D01*
X155030000Y-107800000D02*
X150420000Y-107800000D01*
X155030000Y-107800000D02*
X155030000Y-107370000D01*
X155030000Y-107370000D02*
X158160000Y-104240000D01*
X168860000Y-104240000D02*
X172670000Y-100430000D01*
X158160000Y-104240000D02*
X168860000Y-104240000D01*
X161430000Y-81220000D02*
X161905000Y-80745000D01*
X161430000Y-83920000D02*
X161430000Y-81220000D01*
X163780000Y-91540000D02*
X172670000Y-100430000D01*
X161430000Y-91540000D02*
X163780000Y-91540000D01*
X161430000Y-91540000D02*
X161430000Y-83920000D01*
%TO.N,/I2C_CLK*%
X150240000Y-115240000D02*
X148840000Y-115240000D01*
X148840000Y-115240000D02*
X146730000Y-113130000D01*
X146730000Y-97890000D02*
X141650000Y-92810000D01*
X146730000Y-113130000D02*
X146730000Y-97890000D01*
X132720000Y-83880000D02*
X129600000Y-83880000D01*
X134030000Y-85190000D02*
X132720000Y-83880000D01*
%TO.N,/I2C_DAT*%
X150240000Y-117780000D02*
X148840000Y-117780000D01*
X148840000Y-117780000D02*
X144190000Y-113130000D01*
X144190000Y-113130000D02*
X144190000Y-99160000D01*
X144190000Y-99160000D02*
X140380000Y-95350000D01*
X131450000Y-86420000D02*
X129600000Y-86420000D01*
X134030000Y-89000000D02*
X131450000Y-86420000D01*
%TO.N,/SYNC*%
X131490000Y-98470000D02*
X129600000Y-96580000D01*
X131490000Y-111730000D02*
X131490000Y-98470000D01*
X135000000Y-115240000D02*
X131490000Y-111730000D01*
%TO.N,/E_STOP*%
X133749999Y-108909999D02*
X133749999Y-95069999D01*
X135000000Y-110160000D02*
X133749999Y-108909999D01*
X130180000Y-91500000D02*
X129600000Y-91500000D01*
X133749999Y-95069999D02*
X130180000Y-91500000D01*
X132720000Y-91500000D02*
X134030000Y-92810000D01*
X129600000Y-91500000D02*
X132720000Y-91500000D01*
X137840000Y-76300000D02*
X137840000Y-75030000D01*
X140380000Y-72490000D02*
X144190000Y-72490000D01*
X137840000Y-75030000D02*
X140380000Y-72490000D01*
%TO.N,+12V*%
X129600000Y-99120000D02*
X127720000Y-99120000D01*
X127720000Y-99120000D02*
X125140000Y-96540000D01*
X125140000Y-96540000D02*
X125140000Y-85190000D01*
X128990000Y-81340000D02*
X129600000Y-81340000D01*
X125140000Y-85190000D02*
X128990000Y-81340000D01*
X151240000Y-99000000D02*
X150240000Y-100000000D01*
X155030000Y-99000000D02*
X151240000Y-99000000D01*
X132720000Y-81340000D02*
X134030000Y-82650000D01*
X129600000Y-81340000D02*
X132720000Y-81340000D01*
X151380000Y-95350000D02*
X155030000Y-99000000D01*
X150540000Y-95350000D02*
X151380000Y-95350000D01*
X144190000Y-69950000D02*
X140990000Y-69950000D01*
X140990000Y-69950000D02*
X135605000Y-75335000D01*
X135605000Y-75335000D02*
X136570000Y-74370000D01*
X129600000Y-81340000D02*
X135605000Y-75335000D01*
%TO.N,/INT*%
X135000000Y-112700000D02*
X132760000Y-110460000D01*
X132760000Y-110460000D02*
X132760000Y-96620000D01*
X130180000Y-94040000D02*
X129600000Y-94040000D01*
X132760000Y-96620000D02*
X130180000Y-94040000D01*
%TO.N,/TMSTR*%
X184830000Y-100430000D02*
X176670000Y-100430000D01*
X176670000Y-101510000D02*
X150240000Y-127940000D01*
X176670000Y-100430000D02*
X176670000Y-101510000D01*
%TO.N,/PWM*%
X141650000Y-85190000D02*
X144190000Y-85190000D01*
X135000000Y-120320000D02*
X136570000Y-118750000D01*
X136570000Y-118750000D02*
X136570000Y-87730000D01*
X136570000Y-87730000D02*
X139110000Y-85190000D01*
X139110000Y-85190000D02*
X141650000Y-85190000D01*
%TO.N,/SS*%
X157430000Y-91540000D02*
X157430000Y-89730000D01*
X157430000Y-89730000D02*
X159430000Y-87730000D01*
X159430000Y-87730000D02*
X159430000Y-80110000D01*
X158795000Y-79475000D02*
X156955000Y-79475000D01*
X159430000Y-80110000D02*
X158795000Y-79475000D01*
X129790000Y-127940000D02*
X128950000Y-127100000D01*
X135000000Y-127940000D02*
X129790000Y-127940000D01*
X153715000Y-79475000D02*
X156955000Y-79475000D01*
X151810000Y-81380000D02*
X153715000Y-79475000D01*
%TO.N,/DATA*%
X149270000Y-86460000D02*
X149270000Y-80110000D01*
X149270000Y-80110000D02*
X151175000Y-78205000D01*
X148000000Y-87730000D02*
X149270000Y-86460000D01*
X151175000Y-78205000D02*
X156955000Y-78205000D01*
X137840000Y-90270000D02*
X140380000Y-87730000D01*
X137840000Y-127640000D02*
X137840000Y-90270000D01*
X140380000Y-87730000D02*
X148000000Y-87730000D01*
X135000000Y-130480000D02*
X137840000Y-127640000D01*
%TO.N,/CLK*%
X157430000Y-81220000D02*
X156955000Y-80745000D01*
X157430000Y-83920000D02*
X157430000Y-81220000D01*
X135000000Y-133020000D02*
X139110000Y-128910000D01*
X139110000Y-128910000D02*
X139110000Y-91540000D01*
X139110000Y-91540000D02*
X140380000Y-90270000D01*
X140380000Y-90270000D02*
X148000000Y-90270000D01*
X148000000Y-90270000D02*
X151810000Y-86460000D01*
X151810000Y-86460000D02*
X151810000Y-85190000D01*
X153080000Y-83920000D02*
X157430000Y-83920000D01*
X151810000Y-85190000D02*
X153080000Y-83920000D01*
%TO.N,Net-(C3-Pad2)*%
X169590000Y-76840000D02*
X169590000Y-76300000D01*
X170130000Y-76300000D02*
X169590000Y-76840000D01*
X173940000Y-76300000D02*
X170130000Y-76300000D01*
X168225000Y-78205000D02*
X161905000Y-78205000D01*
X169590000Y-76840000D02*
X168225000Y-78205000D01*
%TO.N,Net-(C3-Pad1)*%
X170130000Y-81380000D02*
X169590000Y-80840000D01*
X173940000Y-81380000D02*
X170130000Y-81380000D01*
X168225000Y-79475000D02*
X161905000Y-79475000D01*
X169590000Y-80840000D02*
X168225000Y-79475000D01*
%TO.N,Net-(FB1-Pad2)*%
X178020000Y-81300000D02*
X177940000Y-81380000D01*
X184830000Y-81300000D02*
X178020000Y-81300000D01*
%TO.N,Net-(FB2-Pad2)*%
X184830000Y-76300000D02*
X177940000Y-76300000D01*
%TO.N,Net-(J3-Pad2)*%
X144190000Y-82650000D02*
X145460000Y-82650000D01*
X145460000Y-82650000D02*
X146730000Y-81380000D01*
X146730000Y-81380000D02*
X146730000Y-59790000D01*
X149190000Y-57330000D02*
X184830000Y-57330000D01*
X146730000Y-59790000D02*
X149190000Y-57330000D01*
%TO.N,Net-(J3-Pad1)*%
X188640000Y-58520000D02*
X184830000Y-62330000D01*
X188640000Y-55980000D02*
X188640000Y-58520000D01*
X148000000Y-53440000D02*
X186100000Y-53440000D01*
X144190000Y-57250000D02*
X148000000Y-53440000D01*
X186100000Y-53440000D02*
X188640000Y-55980000D01*
X144190000Y-67410000D02*
X144190000Y-57250000D01*
%TD*%
D24*
%TO.N,GND*%
X189807905Y-41066638D02*
X190434130Y-41516626D01*
X190970777Y-42070403D01*
X191053000Y-42192764D01*
X191053000Y-137398070D01*
X190883374Y-137634130D01*
X190329597Y-138170777D01*
X189984012Y-138403000D01*
X125210677Y-138403000D01*
X124765870Y-138083374D01*
X124229223Y-137529597D01*
X123799129Y-136889549D01*
X123489171Y-136183447D01*
X123307935Y-135428543D01*
X123260000Y-134775793D01*
X123260000Y-134461682D01*
X124165000Y-134461682D01*
X124165000Y-135138318D01*
X124297006Y-135801952D01*
X124555943Y-136427082D01*
X124931862Y-136989685D01*
X125410315Y-137468138D01*
X125972918Y-137844057D01*
X126598048Y-138102994D01*
X127261682Y-138235000D01*
X127938318Y-138235000D01*
X128601952Y-138102994D01*
X129227082Y-137844057D01*
X129789685Y-137468138D01*
X130268138Y-136989685D01*
X130644057Y-136427082D01*
X130902994Y-135801952D01*
X131035000Y-135138318D01*
X131035000Y-134461682D01*
X130902994Y-133798048D01*
X130644057Y-133172918D01*
X130268138Y-132610315D01*
X129789685Y-132131862D01*
X129227082Y-131755943D01*
X128601952Y-131497006D01*
X127938318Y-131365000D01*
X127261682Y-131365000D01*
X126598048Y-131497006D01*
X125972918Y-131755943D01*
X125410315Y-132131862D01*
X124931862Y-132610315D01*
X124555943Y-133172918D01*
X124297006Y-133798048D01*
X124165000Y-134461682D01*
X123260000Y-134461682D01*
X123260000Y-102016890D01*
X128158524Y-102016890D01*
X128203175Y-102164099D01*
X128328359Y-102426920D01*
X128502412Y-102660269D01*
X128718645Y-102855178D01*
X128968748Y-103004157D01*
X129243109Y-103101481D01*
X129473000Y-102980814D01*
X129473000Y-101787000D01*
X128279845Y-101787000D01*
X128158524Y-102016890D01*
X123260000Y-102016890D01*
X123260000Y-85190000D01*
X124250719Y-85190000D01*
X124255001Y-85233479D01*
X124255000Y-96496531D01*
X124250719Y-96540000D01*
X124255000Y-96583469D01*
X124255000Y-96583476D01*
X124267805Y-96713489D01*
X124318411Y-96880312D01*
X124400589Y-97034058D01*
X124511183Y-97168817D01*
X124544956Y-97196534D01*
X127063470Y-99715049D01*
X127091183Y-99748817D01*
X127124951Y-99776530D01*
X127124953Y-99776532D01*
X127173693Y-99816532D01*
X127225941Y-99859411D01*
X127379687Y-99941589D01*
X127495903Y-99976843D01*
X127546509Y-99992195D01*
X127561306Y-99993652D01*
X127676523Y-100005000D01*
X127676531Y-100005000D01*
X127720000Y-100009281D01*
X127763469Y-100005000D01*
X128405344Y-100005000D01*
X128446525Y-100066632D01*
X128653368Y-100273475D01*
X128835534Y-100395195D01*
X128718645Y-100464822D01*
X128502412Y-100659731D01*
X128328359Y-100893080D01*
X128203175Y-101155901D01*
X128158524Y-101303110D01*
X128279845Y-101533000D01*
X129473000Y-101533000D01*
X129473000Y-101513000D01*
X129727000Y-101513000D01*
X129727000Y-101533000D01*
X129747000Y-101533000D01*
X129747000Y-101787000D01*
X129727000Y-101787000D01*
X129727000Y-102980814D01*
X129956891Y-103101481D01*
X130231252Y-103004157D01*
X130481355Y-102855178D01*
X130605001Y-102743726D01*
X130605000Y-111686531D01*
X130600719Y-111730000D01*
X130605000Y-111773469D01*
X130605000Y-111773476D01*
X130617805Y-111903489D01*
X130668411Y-112070312D01*
X130750589Y-112224058D01*
X130861183Y-112358817D01*
X130894956Y-112386534D01*
X133571983Y-115063561D01*
X133565000Y-115098665D01*
X133565000Y-115381335D01*
X133620147Y-115658574D01*
X133728320Y-115919727D01*
X133885363Y-116154759D01*
X134085241Y-116354637D01*
X134317759Y-116510000D01*
X134085241Y-116665363D01*
X133885363Y-116865241D01*
X133728320Y-117100273D01*
X133620147Y-117361426D01*
X133565000Y-117638665D01*
X133565000Y-117921335D01*
X133620147Y-118198574D01*
X133728320Y-118459727D01*
X133885363Y-118694759D01*
X134085241Y-118894637D01*
X134317759Y-119050000D01*
X134085241Y-119205363D01*
X133885363Y-119405241D01*
X133728320Y-119640273D01*
X133620147Y-119901426D01*
X133565000Y-120178665D01*
X133565000Y-120461335D01*
X133620147Y-120738574D01*
X133728320Y-120999727D01*
X133885363Y-121234759D01*
X134085241Y-121434637D01*
X134317759Y-121590000D01*
X134085241Y-121745363D01*
X133885363Y-121945241D01*
X133728320Y-122180273D01*
X133620147Y-122441426D01*
X133565000Y-122718665D01*
X133565000Y-123001335D01*
X133620147Y-123278574D01*
X133728320Y-123539727D01*
X133885363Y-123774759D01*
X134085241Y-123974637D01*
X134317759Y-124130000D01*
X134085241Y-124285363D01*
X133885363Y-124485241D01*
X133728320Y-124720273D01*
X133620147Y-124981426D01*
X133565000Y-125258665D01*
X133565000Y-125541335D01*
X133620147Y-125818574D01*
X133728320Y-126079727D01*
X133885363Y-126314759D01*
X134085241Y-126514637D01*
X134317759Y-126670000D01*
X134085241Y-126825363D01*
X133885363Y-127025241D01*
X133865479Y-127055000D01*
X130156579Y-127055000D01*
X129956535Y-126854957D01*
X129945226Y-126798102D01*
X129867205Y-126609744D01*
X129753937Y-126440226D01*
X129609774Y-126296063D01*
X129440256Y-126182795D01*
X129251898Y-126104774D01*
X129051939Y-126065000D01*
X128848061Y-126065000D01*
X128648102Y-126104774D01*
X128459744Y-126182795D01*
X128290226Y-126296063D01*
X128146063Y-126440226D01*
X128032795Y-126609744D01*
X127954774Y-126798102D01*
X127915000Y-126998061D01*
X127915000Y-127201939D01*
X127954774Y-127401898D01*
X128032795Y-127590256D01*
X128146063Y-127759774D01*
X128290226Y-127903937D01*
X128459744Y-128017205D01*
X128648102Y-128095226D01*
X128704957Y-128106535D01*
X129133470Y-128535049D01*
X129161183Y-128568817D01*
X129194951Y-128596530D01*
X129194953Y-128596532D01*
X129223216Y-128619727D01*
X129295941Y-128679411D01*
X129449687Y-128761589D01*
X129616510Y-128812195D01*
X129746523Y-128825000D01*
X129746533Y-128825000D01*
X129789999Y-128829281D01*
X129833465Y-128825000D01*
X133865479Y-128825000D01*
X133885363Y-128854759D01*
X134085241Y-129054637D01*
X134317759Y-129210000D01*
X134085241Y-129365363D01*
X133885363Y-129565241D01*
X133728320Y-129800273D01*
X133620147Y-130061426D01*
X133565000Y-130338665D01*
X133565000Y-130621335D01*
X133620147Y-130898574D01*
X133728320Y-131159727D01*
X133885363Y-131394759D01*
X134085241Y-131594637D01*
X134317759Y-131750000D01*
X134085241Y-131905363D01*
X133885363Y-132105241D01*
X133728320Y-132340273D01*
X133620147Y-132601426D01*
X133565000Y-132878665D01*
X133565000Y-133161335D01*
X133620147Y-133438574D01*
X133728320Y-133699727D01*
X133885363Y-133934759D01*
X134085241Y-134134637D01*
X134317759Y-134290000D01*
X134085241Y-134445363D01*
X133885363Y-134645241D01*
X133728320Y-134880273D01*
X133620147Y-135141426D01*
X133565000Y-135418665D01*
X133565000Y-135701335D01*
X133620147Y-135978574D01*
X133728320Y-136239727D01*
X133885363Y-136474759D01*
X134085241Y-136674637D01*
X134320273Y-136831680D01*
X134581426Y-136939853D01*
X134858665Y-136995000D01*
X135141335Y-136995000D01*
X135418574Y-136939853D01*
X135679727Y-136831680D01*
X135914759Y-136674637D01*
X136114637Y-136474759D01*
X136271680Y-136239727D01*
X136379853Y-135978574D01*
X136435000Y-135701335D01*
X136435000Y-135418665D01*
X136379853Y-135141426D01*
X136271680Y-134880273D01*
X136114637Y-134645241D01*
X135914759Y-134445363D01*
X135682241Y-134290000D01*
X135914759Y-134134637D01*
X136114637Y-133934759D01*
X136271680Y-133699727D01*
X136379853Y-133438574D01*
X136435000Y-133161335D01*
X136435000Y-132878665D01*
X136428017Y-132843561D01*
X139705050Y-129566528D01*
X139738817Y-129538817D01*
X139849411Y-129404059D01*
X139931589Y-129250313D01*
X139982195Y-129083490D01*
X139995000Y-128953477D01*
X139995000Y-128953469D01*
X139999281Y-128910000D01*
X139995000Y-128866531D01*
X139995000Y-96310804D01*
X140078102Y-96345226D01*
X140134957Y-96356535D01*
X143305001Y-99526580D01*
X143305000Y-113086531D01*
X143300719Y-113130000D01*
X143305000Y-113173469D01*
X143305000Y-113173476D01*
X143317805Y-113303489D01*
X143368411Y-113470312D01*
X143450589Y-113624058D01*
X143561183Y-113758817D01*
X143594956Y-113786534D01*
X148183470Y-118375049D01*
X148211183Y-118408817D01*
X148244951Y-118436530D01*
X148244953Y-118436532D01*
X148273216Y-118459727D01*
X148345941Y-118519411D01*
X148499687Y-118601589D01*
X148666510Y-118652195D01*
X148796523Y-118665000D01*
X148796533Y-118665000D01*
X148839999Y-118669281D01*
X148883466Y-118665000D01*
X149105479Y-118665000D01*
X149125363Y-118694759D01*
X149325241Y-118894637D01*
X149557759Y-119050000D01*
X149325241Y-119205363D01*
X149125363Y-119405241D01*
X148968320Y-119640273D01*
X148860147Y-119901426D01*
X148805000Y-120178665D01*
X148805000Y-120461335D01*
X148860147Y-120738574D01*
X148968320Y-120999727D01*
X149125363Y-121234759D01*
X149325241Y-121434637D01*
X149557759Y-121590000D01*
X149325241Y-121745363D01*
X149125363Y-121945241D01*
X148968320Y-122180273D01*
X148860147Y-122441426D01*
X148805000Y-122718665D01*
X148805000Y-123001335D01*
X148860147Y-123278574D01*
X148968320Y-123539727D01*
X149125363Y-123774759D01*
X149325241Y-123974637D01*
X149557759Y-124130000D01*
X149325241Y-124285363D01*
X149125363Y-124485241D01*
X148968320Y-124720273D01*
X148860147Y-124981426D01*
X148805000Y-125258665D01*
X148805000Y-125541335D01*
X148860147Y-125818574D01*
X148968320Y-126079727D01*
X149125363Y-126314759D01*
X149325241Y-126514637D01*
X149557759Y-126670000D01*
X149325241Y-126825363D01*
X149125363Y-127025241D01*
X148968320Y-127260273D01*
X148860147Y-127521426D01*
X148805000Y-127798665D01*
X148805000Y-128081335D01*
X148860147Y-128358574D01*
X148968320Y-128619727D01*
X149125363Y-128854759D01*
X149325241Y-129054637D01*
X149557759Y-129210000D01*
X149325241Y-129365363D01*
X149125363Y-129565241D01*
X148968320Y-129800273D01*
X148860147Y-130061426D01*
X148805000Y-130338665D01*
X148805000Y-130621335D01*
X148860147Y-130898574D01*
X148968320Y-131159727D01*
X149125363Y-131394759D01*
X149325241Y-131594637D01*
X149557759Y-131750000D01*
X149325241Y-131905363D01*
X149125363Y-132105241D01*
X148968320Y-132340273D01*
X148860147Y-132601426D01*
X148805000Y-132878665D01*
X148805000Y-133161335D01*
X148860147Y-133438574D01*
X148968320Y-133699727D01*
X149125363Y-133934759D01*
X149325241Y-134134637D01*
X149557759Y-134290000D01*
X149325241Y-134445363D01*
X149125363Y-134645241D01*
X148968320Y-134880273D01*
X148860147Y-135141426D01*
X148805000Y-135418665D01*
X148805000Y-135701335D01*
X148860147Y-135978574D01*
X148968320Y-136239727D01*
X149125363Y-136474759D01*
X149325241Y-136674637D01*
X149560273Y-136831680D01*
X149821426Y-136939853D01*
X150098665Y-136995000D01*
X150381335Y-136995000D01*
X150658574Y-136939853D01*
X150919727Y-136831680D01*
X151154759Y-136674637D01*
X151354637Y-136474759D01*
X151511680Y-136239727D01*
X151619853Y-135978574D01*
X151675000Y-135701335D01*
X151675000Y-135418665D01*
X151619853Y-135141426D01*
X151511680Y-134880273D01*
X151354637Y-134645241D01*
X151171078Y-134461682D01*
X184165000Y-134461682D01*
X184165000Y-135138318D01*
X184297006Y-135801952D01*
X184555943Y-136427082D01*
X184931862Y-136989685D01*
X185410315Y-137468138D01*
X185972918Y-137844057D01*
X186598048Y-138102994D01*
X187261682Y-138235000D01*
X187938318Y-138235000D01*
X188601952Y-138102994D01*
X189227082Y-137844057D01*
X189789685Y-137468138D01*
X190268138Y-136989685D01*
X190644057Y-136427082D01*
X190902994Y-135801952D01*
X191035000Y-135138318D01*
X191035000Y-134461682D01*
X190902994Y-133798048D01*
X190644057Y-133172918D01*
X190268138Y-132610315D01*
X189789685Y-132131862D01*
X189227082Y-131755943D01*
X188601952Y-131497006D01*
X187938318Y-131365000D01*
X187261682Y-131365000D01*
X186598048Y-131497006D01*
X185972918Y-131755943D01*
X185410315Y-132131862D01*
X184931862Y-132610315D01*
X184555943Y-133172918D01*
X184297006Y-133798048D01*
X184165000Y-134461682D01*
X151171078Y-134461682D01*
X151154759Y-134445363D01*
X150922241Y-134290000D01*
X151154759Y-134134637D01*
X151354637Y-133934759D01*
X151511680Y-133699727D01*
X151619853Y-133438574D01*
X151675000Y-133161335D01*
X151675000Y-132878665D01*
X151619853Y-132601426D01*
X151511680Y-132340273D01*
X151354637Y-132105241D01*
X151154759Y-131905363D01*
X150922241Y-131750000D01*
X151154759Y-131594637D01*
X151354637Y-131394759D01*
X151511680Y-131159727D01*
X151619853Y-130898574D01*
X151675000Y-130621335D01*
X151675000Y-130338665D01*
X151619853Y-130061426D01*
X151511680Y-129800273D01*
X151354637Y-129565241D01*
X151154759Y-129365363D01*
X150922241Y-129210000D01*
X151154759Y-129054637D01*
X151354637Y-128854759D01*
X151511680Y-128619727D01*
X151619853Y-128358574D01*
X151675000Y-128081335D01*
X151675000Y-127798665D01*
X151668017Y-127763561D01*
X177265049Y-102166530D01*
X177298817Y-102138817D01*
X177366035Y-102056913D01*
X177409410Y-102004060D01*
X177409411Y-102004059D01*
X177455371Y-101918072D01*
X177670000Y-101918072D01*
X177794482Y-101905812D01*
X177914180Y-101869502D01*
X178024494Y-101810537D01*
X178121185Y-101731185D01*
X178200537Y-101634494D01*
X178259502Y-101524180D01*
X178295812Y-101404482D01*
X178304625Y-101315000D01*
X182941928Y-101315000D01*
X182941928Y-101680000D01*
X182954188Y-101804482D01*
X182990498Y-101924180D01*
X183049463Y-102034494D01*
X183128815Y-102131185D01*
X183225506Y-102210537D01*
X183335820Y-102269502D01*
X183455518Y-102305812D01*
X183580000Y-102318072D01*
X186080000Y-102318072D01*
X186204482Y-102305812D01*
X186324180Y-102269502D01*
X186434494Y-102210537D01*
X186531185Y-102131185D01*
X186610537Y-102034494D01*
X186669502Y-101924180D01*
X186705812Y-101804482D01*
X186718072Y-101680000D01*
X186718072Y-99180000D01*
X186705812Y-99055518D01*
X186669502Y-98935820D01*
X186610537Y-98825506D01*
X186531185Y-98728815D01*
X186434494Y-98649463D01*
X186324180Y-98590498D01*
X186204482Y-98554188D01*
X186080000Y-98541928D01*
X183580000Y-98541928D01*
X183455518Y-98554188D01*
X183335820Y-98590498D01*
X183225506Y-98649463D01*
X183128815Y-98728815D01*
X183049463Y-98825506D01*
X182990498Y-98935820D01*
X182954188Y-99055518D01*
X182941928Y-99180000D01*
X182941928Y-99545000D01*
X178304625Y-99545000D01*
X178295812Y-99455518D01*
X178259502Y-99335820D01*
X178200537Y-99225506D01*
X178121185Y-99128815D01*
X178024494Y-99049463D01*
X177914180Y-98990498D01*
X177794482Y-98954188D01*
X177670000Y-98941928D01*
X175670000Y-98941928D01*
X175545518Y-98954188D01*
X175425820Y-98990498D01*
X175315506Y-99049463D01*
X175218815Y-99128815D01*
X175139463Y-99225506D01*
X175080498Y-99335820D01*
X175044188Y-99455518D01*
X175031928Y-99580000D01*
X175031928Y-101280000D01*
X175044188Y-101404482D01*
X175080498Y-101524180D01*
X175139463Y-101634494D01*
X175209088Y-101719333D01*
X151674130Y-125254292D01*
X151619853Y-124981426D01*
X151511680Y-124720273D01*
X151354637Y-124485241D01*
X151154759Y-124285363D01*
X150922241Y-124130000D01*
X151154759Y-123974637D01*
X151354637Y-123774759D01*
X151511680Y-123539727D01*
X151619853Y-123278574D01*
X151675000Y-123001335D01*
X151675000Y-122718665D01*
X151619853Y-122441426D01*
X151511680Y-122180273D01*
X151354637Y-121945241D01*
X151154759Y-121745363D01*
X150922241Y-121590000D01*
X151154759Y-121434637D01*
X151354637Y-121234759D01*
X151511680Y-120999727D01*
X151619853Y-120738574D01*
X151675000Y-120461335D01*
X151675000Y-120178665D01*
X151619853Y-119901426D01*
X151511680Y-119640273D01*
X151354637Y-119405241D01*
X151154759Y-119205363D01*
X150922241Y-119050000D01*
X151154759Y-118894637D01*
X151354637Y-118694759D01*
X151511680Y-118459727D01*
X151619853Y-118198574D01*
X151675000Y-117921335D01*
X151675000Y-117638665D01*
X151619853Y-117361426D01*
X151511680Y-117100273D01*
X151354637Y-116865241D01*
X151154759Y-116665363D01*
X150922241Y-116510000D01*
X151154759Y-116354637D01*
X151354637Y-116154759D01*
X151511680Y-115919727D01*
X151619853Y-115658574D01*
X151675000Y-115381335D01*
X151675000Y-115098665D01*
X151619853Y-114821426D01*
X151511680Y-114560273D01*
X151354637Y-114325241D01*
X151154759Y-114125363D01*
X150922241Y-113970000D01*
X151154759Y-113814637D01*
X151354637Y-113614759D01*
X151511680Y-113379727D01*
X151619853Y-113118574D01*
X151675000Y-112841335D01*
X151675000Y-112558665D01*
X151619853Y-112281426D01*
X151511680Y-112020273D01*
X151354637Y-111785241D01*
X151154759Y-111585363D01*
X150922241Y-111430000D01*
X151154759Y-111274637D01*
X151354637Y-111074759D01*
X151511680Y-110839727D01*
X151619853Y-110578574D01*
X151675000Y-110301335D01*
X151675000Y-110018665D01*
X151619853Y-109741426D01*
X151511680Y-109480273D01*
X151354637Y-109245241D01*
X151154759Y-109045363D01*
X150922241Y-108890000D01*
X151154759Y-108734637D01*
X151204396Y-108685000D01*
X153006928Y-108685000D01*
X153006928Y-108975000D01*
X153019188Y-109099482D01*
X153055498Y-109219180D01*
X153114463Y-109329494D01*
X153193815Y-109426185D01*
X153290506Y-109505537D01*
X153400820Y-109564502D01*
X153520518Y-109600812D01*
X153645000Y-109613072D01*
X156415000Y-109613072D01*
X156539482Y-109600812D01*
X156659180Y-109564502D01*
X156769494Y-109505537D01*
X156866185Y-109426185D01*
X156945537Y-109329494D01*
X157004502Y-109219180D01*
X157040812Y-109099482D01*
X157053072Y-108975000D01*
X158146928Y-108975000D01*
X158159188Y-109099482D01*
X158195498Y-109219180D01*
X158254463Y-109329494D01*
X158333815Y-109426185D01*
X158430506Y-109505537D01*
X158540820Y-109564502D01*
X158660518Y-109600812D01*
X158785000Y-109613072D01*
X159884250Y-109610000D01*
X160043000Y-109451250D01*
X160043000Y-107927000D01*
X160297000Y-107927000D01*
X160297000Y-109451250D01*
X160455750Y-109610000D01*
X161555000Y-109613072D01*
X161679482Y-109600812D01*
X161799180Y-109564502D01*
X161909494Y-109505537D01*
X162006185Y-109426185D01*
X162085537Y-109329494D01*
X162144502Y-109219180D01*
X162180812Y-109099482D01*
X162193072Y-108975000D01*
X162190000Y-108085750D01*
X162031250Y-107927000D01*
X160297000Y-107927000D01*
X160043000Y-107927000D01*
X158308750Y-107927000D01*
X158150000Y-108085750D01*
X158146928Y-108975000D01*
X157053072Y-108975000D01*
X157053072Y-106625000D01*
X158146928Y-106625000D01*
X158150000Y-107514250D01*
X158308750Y-107673000D01*
X160043000Y-107673000D01*
X160043000Y-106148750D01*
X160297000Y-106148750D01*
X160297000Y-107673000D01*
X162031250Y-107673000D01*
X162190000Y-107514250D01*
X162193072Y-106625000D01*
X162180812Y-106500518D01*
X162144502Y-106380820D01*
X162085537Y-106270506D01*
X162006185Y-106173815D01*
X161909494Y-106094463D01*
X161799180Y-106035498D01*
X161679482Y-105999188D01*
X161555000Y-105986928D01*
X160455750Y-105990000D01*
X160297000Y-106148750D01*
X160043000Y-106148750D01*
X159884250Y-105990000D01*
X158785000Y-105986928D01*
X158660518Y-105999188D01*
X158540820Y-106035498D01*
X158430506Y-106094463D01*
X158333815Y-106173815D01*
X158254463Y-106270506D01*
X158195498Y-106380820D01*
X158159188Y-106500518D01*
X158146928Y-106625000D01*
X157053072Y-106625000D01*
X157050697Y-106600882D01*
X158526579Y-105125000D01*
X168816531Y-105125000D01*
X168860000Y-105129281D01*
X168903469Y-105125000D01*
X168903477Y-105125000D01*
X169033490Y-105112195D01*
X169200313Y-105061589D01*
X169354059Y-104979411D01*
X169488817Y-104868817D01*
X169516534Y-104835044D01*
X172433507Y-101918072D01*
X173670000Y-101918072D01*
X173794482Y-101905812D01*
X173914180Y-101869502D01*
X174024494Y-101810537D01*
X174121185Y-101731185D01*
X174200537Y-101634494D01*
X174259502Y-101524180D01*
X174295812Y-101404482D01*
X174308072Y-101280000D01*
X174308072Y-99580000D01*
X174295812Y-99455518D01*
X174259502Y-99335820D01*
X174200537Y-99225506D01*
X174121185Y-99128815D01*
X174024494Y-99049463D01*
X173914180Y-98990498D01*
X173794482Y-98954188D01*
X173670000Y-98941928D01*
X172433507Y-98941928D01*
X170235184Y-96743605D01*
X183696000Y-96743605D01*
X183821914Y-97033577D01*
X184154126Y-97199433D01*
X184512312Y-97297290D01*
X184882706Y-97323389D01*
X185251075Y-97276725D01*
X185603262Y-97159094D01*
X185838086Y-97033577D01*
X185964000Y-96743605D01*
X184830000Y-95609605D01*
X183696000Y-96743605D01*
X170235184Y-96743605D01*
X168974285Y-95482706D01*
X182936611Y-95482706D01*
X182983275Y-95851075D01*
X183100906Y-96203262D01*
X183226423Y-96438086D01*
X183516395Y-96564000D01*
X184650395Y-95430000D01*
X185009605Y-95430000D01*
X186143605Y-96564000D01*
X186433577Y-96438086D01*
X186599433Y-96105874D01*
X186697290Y-95747688D01*
X186723389Y-95377294D01*
X186676725Y-95008925D01*
X186559094Y-94656738D01*
X186433577Y-94421914D01*
X186143605Y-94296000D01*
X185009605Y-95430000D01*
X184650395Y-95430000D01*
X183516395Y-94296000D01*
X183226423Y-94421914D01*
X183060567Y-94754126D01*
X182962710Y-95112312D01*
X182936611Y-95482706D01*
X168974285Y-95482706D01*
X167607974Y-94116395D01*
X183696000Y-94116395D01*
X184830000Y-95250395D01*
X185964000Y-94116395D01*
X185838086Y-93826423D01*
X185505874Y-93660567D01*
X185147688Y-93562710D01*
X184777294Y-93536611D01*
X184408925Y-93583275D01*
X184056738Y-93700906D01*
X183821914Y-93826423D01*
X183696000Y-94116395D01*
X167607974Y-94116395D01*
X164436532Y-90944954D01*
X164408817Y-90911183D01*
X164274059Y-90800589D01*
X164120313Y-90718411D01*
X163953490Y-90667805D01*
X163823477Y-90655000D01*
X163823469Y-90655000D01*
X163780000Y-90650719D01*
X163736531Y-90655000D01*
X163064625Y-90655000D01*
X163055812Y-90565518D01*
X163019502Y-90445820D01*
X162960537Y-90335506D01*
X162881185Y-90238815D01*
X162784494Y-90159463D01*
X162674180Y-90100498D01*
X162554482Y-90064188D01*
X162430000Y-90051928D01*
X162315000Y-90051928D01*
X162315000Y-85408072D01*
X162430000Y-85408072D01*
X162554482Y-85395812D01*
X162674180Y-85359502D01*
X162784494Y-85300537D01*
X162881185Y-85221185D01*
X162960537Y-85124494D01*
X163019502Y-85014180D01*
X163055812Y-84894482D01*
X163068072Y-84770000D01*
X163068072Y-83070000D01*
X163055812Y-82945518D01*
X163019502Y-82825820D01*
X162960537Y-82715506D01*
X162881185Y-82618815D01*
X162784494Y-82539463D01*
X162674180Y-82480498D01*
X162554482Y-82444188D01*
X162430000Y-82431928D01*
X162315000Y-82431928D01*
X162315000Y-81683072D01*
X162730000Y-81683072D01*
X162883745Y-81667929D01*
X163031582Y-81623084D01*
X163167829Y-81550258D01*
X163287251Y-81452251D01*
X163385258Y-81332829D01*
X163458084Y-81196582D01*
X163502929Y-81048745D01*
X163518072Y-80895000D01*
X163518072Y-80595000D01*
X163502929Y-80441255D01*
X163478281Y-80360000D01*
X167858422Y-80360000D01*
X168151928Y-80653506D01*
X168151928Y-81840000D01*
X168164188Y-81964482D01*
X168200498Y-82084180D01*
X168259463Y-82194494D01*
X168338815Y-82291185D01*
X168435506Y-82370537D01*
X168545820Y-82429502D01*
X168665518Y-82465812D01*
X168790000Y-82478072D01*
X170390000Y-82478072D01*
X170514482Y-82465812D01*
X170634180Y-82429502D01*
X170744494Y-82370537D01*
X170841185Y-82291185D01*
X170862674Y-82265000D01*
X172305375Y-82265000D01*
X172314188Y-82354482D01*
X172350498Y-82474180D01*
X172409463Y-82584494D01*
X172488815Y-82681185D01*
X172585506Y-82760537D01*
X172695820Y-82819502D01*
X172815518Y-82855812D01*
X172940000Y-82868072D01*
X174940000Y-82868072D01*
X175064482Y-82855812D01*
X175184180Y-82819502D01*
X175294494Y-82760537D01*
X175391185Y-82681185D01*
X175470537Y-82584494D01*
X175529502Y-82474180D01*
X175565812Y-82354482D01*
X175578072Y-82230000D01*
X175578072Y-80530000D01*
X176301928Y-80530000D01*
X176301928Y-82230000D01*
X176314188Y-82354482D01*
X176350498Y-82474180D01*
X176409463Y-82584494D01*
X176488815Y-82681185D01*
X176585506Y-82760537D01*
X176695820Y-82819502D01*
X176815518Y-82855812D01*
X176940000Y-82868072D01*
X178940000Y-82868072D01*
X179064482Y-82855812D01*
X179184180Y-82819502D01*
X179294494Y-82760537D01*
X179391185Y-82681185D01*
X179470537Y-82584494D01*
X179529502Y-82474180D01*
X179565812Y-82354482D01*
X179578072Y-82230000D01*
X179578072Y-82185000D01*
X183156269Y-82185000D01*
X183159534Y-82192882D01*
X183365825Y-82501618D01*
X183628382Y-82764175D01*
X183937118Y-82970466D01*
X184280166Y-83112561D01*
X184644344Y-83185000D01*
X185015656Y-83185000D01*
X185379834Y-83112561D01*
X185722882Y-82970466D01*
X186031618Y-82764175D01*
X186294175Y-82501618D01*
X186500466Y-82192882D01*
X186642561Y-81849834D01*
X186715000Y-81485656D01*
X186715000Y-81114344D01*
X186642561Y-80750166D01*
X186500466Y-80407118D01*
X186294175Y-80098382D01*
X186031618Y-79835825D01*
X185722882Y-79629534D01*
X185379834Y-79487439D01*
X185015656Y-79415000D01*
X184644344Y-79415000D01*
X184280166Y-79487439D01*
X183937118Y-79629534D01*
X183628382Y-79835825D01*
X183365825Y-80098382D01*
X183159534Y-80407118D01*
X183156269Y-80415000D01*
X179566746Y-80415000D01*
X179565812Y-80405518D01*
X179529502Y-80285820D01*
X179470537Y-80175506D01*
X179391185Y-80078815D01*
X179294494Y-79999463D01*
X179184180Y-79940498D01*
X179064482Y-79904188D01*
X178940000Y-79891928D01*
X176940000Y-79891928D01*
X176815518Y-79904188D01*
X176695820Y-79940498D01*
X176585506Y-79999463D01*
X176488815Y-80078815D01*
X176409463Y-80175506D01*
X176350498Y-80285820D01*
X176314188Y-80405518D01*
X176301928Y-80530000D01*
X175578072Y-80530000D01*
X175565812Y-80405518D01*
X175529502Y-80285820D01*
X175470537Y-80175506D01*
X175391185Y-80078815D01*
X175294494Y-79999463D01*
X175184180Y-79940498D01*
X175064482Y-79904188D01*
X174940000Y-79891928D01*
X172940000Y-79891928D01*
X172815518Y-79904188D01*
X172695820Y-79940498D01*
X172585506Y-79999463D01*
X172488815Y-80078815D01*
X172409463Y-80175506D01*
X172350498Y-80285820D01*
X172314188Y-80405518D01*
X172305375Y-80495000D01*
X171028072Y-80495000D01*
X171028072Y-79840000D01*
X171015812Y-79715518D01*
X170979502Y-79595820D01*
X170920537Y-79485506D01*
X170841185Y-79388815D01*
X170744494Y-79309463D01*
X170634180Y-79250498D01*
X170514482Y-79214188D01*
X170390000Y-79201928D01*
X169203506Y-79201928D01*
X168881534Y-78879956D01*
X168853817Y-78846183D01*
X168846283Y-78840000D01*
X168853817Y-78833817D01*
X168881534Y-78800044D01*
X169203506Y-78478072D01*
X170390000Y-78478072D01*
X170514482Y-78465812D01*
X170634180Y-78429502D01*
X170744494Y-78370537D01*
X170841185Y-78291185D01*
X170920537Y-78194494D01*
X170979502Y-78084180D01*
X171015812Y-77964482D01*
X171028072Y-77840000D01*
X171028072Y-77185000D01*
X172305375Y-77185000D01*
X172314188Y-77274482D01*
X172350498Y-77394180D01*
X172409463Y-77504494D01*
X172488815Y-77601185D01*
X172585506Y-77680537D01*
X172695820Y-77739502D01*
X172815518Y-77775812D01*
X172940000Y-77788072D01*
X174940000Y-77788072D01*
X175064482Y-77775812D01*
X175184180Y-77739502D01*
X175294494Y-77680537D01*
X175391185Y-77601185D01*
X175470537Y-77504494D01*
X175529502Y-77394180D01*
X175565812Y-77274482D01*
X175578072Y-77150000D01*
X175578072Y-75450000D01*
X176301928Y-75450000D01*
X176301928Y-77150000D01*
X176314188Y-77274482D01*
X176350498Y-77394180D01*
X176409463Y-77504494D01*
X176488815Y-77601185D01*
X176585506Y-77680537D01*
X176695820Y-77739502D01*
X176815518Y-77775812D01*
X176940000Y-77788072D01*
X178940000Y-77788072D01*
X179064482Y-77775812D01*
X179184180Y-77739502D01*
X179294494Y-77680537D01*
X179391185Y-77601185D01*
X179470537Y-77504494D01*
X179529502Y-77394180D01*
X179565812Y-77274482D01*
X179574625Y-77185000D01*
X182941928Y-77185000D01*
X182941928Y-77550000D01*
X182954188Y-77674482D01*
X182990498Y-77794180D01*
X183049463Y-77904494D01*
X183128815Y-78001185D01*
X183225506Y-78080537D01*
X183335820Y-78139502D01*
X183455518Y-78175812D01*
X183580000Y-78188072D01*
X186080000Y-78188072D01*
X186204482Y-78175812D01*
X186324180Y-78139502D01*
X186434494Y-78080537D01*
X186531185Y-78001185D01*
X186610537Y-77904494D01*
X186669502Y-77794180D01*
X186705812Y-77674482D01*
X186718072Y-77550000D01*
X186718072Y-75050000D01*
X186705812Y-74925518D01*
X186669502Y-74805820D01*
X186610537Y-74695506D01*
X186531185Y-74598815D01*
X186434494Y-74519463D01*
X186324180Y-74460498D01*
X186204482Y-74424188D01*
X186080000Y-74411928D01*
X183580000Y-74411928D01*
X183455518Y-74424188D01*
X183335820Y-74460498D01*
X183225506Y-74519463D01*
X183128815Y-74598815D01*
X183049463Y-74695506D01*
X182990498Y-74805820D01*
X182954188Y-74925518D01*
X182941928Y-75050000D01*
X182941928Y-75415000D01*
X179574625Y-75415000D01*
X179565812Y-75325518D01*
X179529502Y-75205820D01*
X179470537Y-75095506D01*
X179391185Y-74998815D01*
X179294494Y-74919463D01*
X179184180Y-74860498D01*
X179064482Y-74824188D01*
X178940000Y-74811928D01*
X176940000Y-74811928D01*
X176815518Y-74824188D01*
X176695820Y-74860498D01*
X176585506Y-74919463D01*
X176488815Y-74998815D01*
X176409463Y-75095506D01*
X176350498Y-75205820D01*
X176314188Y-75325518D01*
X176301928Y-75450000D01*
X175578072Y-75450000D01*
X175565812Y-75325518D01*
X175529502Y-75205820D01*
X175470537Y-75095506D01*
X175391185Y-74998815D01*
X175294494Y-74919463D01*
X175184180Y-74860498D01*
X175064482Y-74824188D01*
X174940000Y-74811928D01*
X172940000Y-74811928D01*
X172815518Y-74824188D01*
X172695820Y-74860498D01*
X172585506Y-74919463D01*
X172488815Y-74998815D01*
X172409463Y-75095506D01*
X172350498Y-75205820D01*
X172314188Y-75325518D01*
X172305375Y-75415000D01*
X170862674Y-75415000D01*
X170841185Y-75388815D01*
X170744494Y-75309463D01*
X170634180Y-75250498D01*
X170514482Y-75214188D01*
X170390000Y-75201928D01*
X168790000Y-75201928D01*
X168665518Y-75214188D01*
X168545820Y-75250498D01*
X168435506Y-75309463D01*
X168338815Y-75388815D01*
X168259463Y-75485506D01*
X168200498Y-75595820D01*
X168164188Y-75715518D01*
X168151928Y-75840000D01*
X168151928Y-77026494D01*
X167858422Y-77320000D01*
X163509701Y-77320000D01*
X163518072Y-77235000D01*
X163515000Y-77220750D01*
X163356250Y-77062000D01*
X162032000Y-77062000D01*
X162032000Y-77082000D01*
X161778000Y-77082000D01*
X161778000Y-77062000D01*
X160453750Y-77062000D01*
X160295000Y-77220750D01*
X160291928Y-77235000D01*
X160304188Y-77359482D01*
X160340498Y-77479180D01*
X160399463Y-77589494D01*
X160423730Y-77619064D01*
X160351916Y-77753418D01*
X160307071Y-77901255D01*
X160291928Y-78055000D01*
X160291928Y-78355000D01*
X160307071Y-78508745D01*
X160351916Y-78656582D01*
X160424742Y-78792829D01*
X160463454Y-78840000D01*
X160424742Y-78887171D01*
X160351916Y-79023418D01*
X160307071Y-79171255D01*
X160291928Y-79325000D01*
X160291928Y-79625000D01*
X160307071Y-79778745D01*
X160351916Y-79926582D01*
X160424742Y-80062829D01*
X160463454Y-80110000D01*
X160424742Y-80157171D01*
X160351916Y-80293418D01*
X160315000Y-80415116D01*
X160315000Y-80153469D01*
X160319281Y-80110000D01*
X160315000Y-80066531D01*
X160315000Y-80066523D01*
X160302195Y-79936510D01*
X160298222Y-79923412D01*
X160251589Y-79769686D01*
X160169411Y-79615941D01*
X160086532Y-79514953D01*
X160086530Y-79514951D01*
X160058817Y-79481183D01*
X160025049Y-79453470D01*
X159451534Y-78879956D01*
X159423817Y-78846183D01*
X159289059Y-78735589D01*
X159135313Y-78653411D01*
X158968490Y-78602805D01*
X158838477Y-78590000D01*
X158838469Y-78590000D01*
X158795000Y-78585719D01*
X158751531Y-78590000D01*
X158528281Y-78590000D01*
X158552929Y-78508745D01*
X158568072Y-78355000D01*
X158568072Y-78055000D01*
X158552929Y-77901255D01*
X158508084Y-77753418D01*
X158435258Y-77617171D01*
X158396546Y-77570000D01*
X158435258Y-77522829D01*
X158508084Y-77386582D01*
X158552929Y-77238745D01*
X158568072Y-77085000D01*
X158568072Y-76785000D01*
X158553298Y-76635000D01*
X160291928Y-76635000D01*
X160295000Y-76649250D01*
X160453750Y-76808000D01*
X161778000Y-76808000D01*
X161778000Y-76158750D01*
X162032000Y-76158750D01*
X162032000Y-76808000D01*
X163356250Y-76808000D01*
X163515000Y-76649250D01*
X163518072Y-76635000D01*
X163505812Y-76510518D01*
X163469502Y-76390820D01*
X163410537Y-76280506D01*
X163331185Y-76183815D01*
X163234494Y-76104463D01*
X163124180Y-76045498D01*
X163004482Y-76009188D01*
X162880000Y-75996928D01*
X162190750Y-76000000D01*
X162032000Y-76158750D01*
X161778000Y-76158750D01*
X161619250Y-76000000D01*
X160930000Y-75996928D01*
X160805518Y-76009188D01*
X160685820Y-76045498D01*
X160575506Y-76104463D01*
X160478815Y-76183815D01*
X160399463Y-76280506D01*
X160340498Y-76390820D01*
X160304188Y-76510518D01*
X160291928Y-76635000D01*
X158553298Y-76635000D01*
X158552929Y-76631255D01*
X158508084Y-76483418D01*
X158435258Y-76347171D01*
X158337251Y-76227749D01*
X158217829Y-76129742D01*
X158081582Y-76056916D01*
X157933745Y-76012071D01*
X157780000Y-75996928D01*
X156130000Y-75996928D01*
X155976255Y-76012071D01*
X155828418Y-76056916D01*
X155692171Y-76129742D01*
X155572749Y-76227749D01*
X155474742Y-76347171D01*
X155401916Y-76483418D01*
X155357071Y-76631255D01*
X155341928Y-76785000D01*
X155341928Y-77085000D01*
X155357071Y-77238745D01*
X155381719Y-77320000D01*
X151218469Y-77320000D01*
X151175000Y-77315719D01*
X151131531Y-77320000D01*
X151131523Y-77320000D01*
X151001510Y-77332805D01*
X150834687Y-77383411D01*
X150767238Y-77419463D01*
X150680941Y-77465589D01*
X150579953Y-77548468D01*
X150579951Y-77548470D01*
X150546183Y-77576183D01*
X150518470Y-77609951D01*
X148674951Y-79453471D01*
X148641184Y-79481183D01*
X148613471Y-79514951D01*
X148613468Y-79514954D01*
X148530590Y-79615941D01*
X148448412Y-79769687D01*
X148397805Y-79936510D01*
X148380719Y-80110000D01*
X148385001Y-80153479D01*
X148385000Y-86093421D01*
X147633422Y-86845000D01*
X140423465Y-86845000D01*
X140379999Y-86840719D01*
X140336533Y-86845000D01*
X140336523Y-86845000D01*
X140206510Y-86857805D01*
X140039687Y-86908411D01*
X139885941Y-86990589D01*
X139885939Y-86990590D01*
X139885940Y-86990590D01*
X139784953Y-87073468D01*
X139784951Y-87073470D01*
X139751183Y-87101183D01*
X139723470Y-87134951D01*
X137455000Y-89403422D01*
X137455000Y-88096578D01*
X139476579Y-86075000D01*
X142551928Y-86075000D01*
X142551928Y-86142500D01*
X142564188Y-86266982D01*
X142600498Y-86386680D01*
X142659463Y-86496994D01*
X142738815Y-86593685D01*
X142835506Y-86673037D01*
X142945820Y-86732002D01*
X143065518Y-86768312D01*
X143190000Y-86780572D01*
X145190000Y-86780572D01*
X145314482Y-86768312D01*
X145434180Y-86732002D01*
X145544494Y-86673037D01*
X145641185Y-86593685D01*
X145720537Y-86496994D01*
X145779502Y-86386680D01*
X145815812Y-86266982D01*
X145828072Y-86142500D01*
X145828072Y-84237500D01*
X145815812Y-84113018D01*
X145779502Y-83993320D01*
X145720537Y-83883006D01*
X145641185Y-83786315D01*
X145544494Y-83706963D01*
X145460554Y-83662095D01*
X145563845Y-83536235D01*
X145567896Y-83528655D01*
X145633490Y-83522195D01*
X145800313Y-83471589D01*
X145954059Y-83389411D01*
X146088817Y-83278817D01*
X146116534Y-83245044D01*
X147325050Y-82036529D01*
X147358817Y-82008817D01*
X147391645Y-81968817D01*
X147469410Y-81874060D01*
X147469411Y-81874059D01*
X147551589Y-81720313D01*
X147602195Y-81553490D01*
X147615000Y-81423477D01*
X147615000Y-81423467D01*
X147619281Y-81380001D01*
X147615000Y-81336535D01*
X147615000Y-60156578D01*
X149556579Y-58215000D01*
X183156269Y-58215000D01*
X183159534Y-58222882D01*
X183365825Y-58531618D01*
X183628382Y-58794175D01*
X183937118Y-59000466D01*
X184280166Y-59142561D01*
X184644344Y-59215000D01*
X185015656Y-59215000D01*
X185379834Y-59142561D01*
X185722882Y-59000466D01*
X186031618Y-58794175D01*
X186294175Y-58531618D01*
X186500466Y-58222882D01*
X186642561Y-57879834D01*
X186715000Y-57515656D01*
X186715000Y-57144344D01*
X186642561Y-56780166D01*
X186500466Y-56437118D01*
X186294175Y-56128382D01*
X186031618Y-55865825D01*
X185722882Y-55659534D01*
X185379834Y-55517439D01*
X185015656Y-55445000D01*
X184644344Y-55445000D01*
X184280166Y-55517439D01*
X183937118Y-55659534D01*
X183628382Y-55865825D01*
X183365825Y-56128382D01*
X183159534Y-56437118D01*
X183156269Y-56445000D01*
X149233465Y-56445000D01*
X149189999Y-56440719D01*
X149146533Y-56445000D01*
X149146523Y-56445000D01*
X149016510Y-56457805D01*
X148849687Y-56508411D01*
X148695941Y-56590589D01*
X148695939Y-56590590D01*
X148695940Y-56590590D01*
X148594953Y-56673468D01*
X148594951Y-56673470D01*
X148561183Y-56701183D01*
X148533470Y-56734951D01*
X146134951Y-59133471D01*
X146101184Y-59161183D01*
X146073471Y-59194951D01*
X146073468Y-59194954D01*
X145990590Y-59295941D01*
X145908412Y-59449687D01*
X145857805Y-59616510D01*
X145840719Y-59790000D01*
X145845001Y-59833479D01*
X145845000Y-81013421D01*
X145349492Y-81508930D01*
X145186101Y-81374837D01*
X145371315Y-81219437D01*
X145565969Y-80976923D01*
X145709571Y-80701094D01*
X145780563Y-80482980D01*
X145660594Y-80237000D01*
X144317000Y-80237000D01*
X144317000Y-80257000D01*
X144063000Y-80257000D01*
X144063000Y-80237000D01*
X142719406Y-80237000D01*
X142599437Y-80482980D01*
X142670429Y-80701094D01*
X142814031Y-80976923D01*
X143008685Y-81219437D01*
X143193899Y-81374837D01*
X143014537Y-81522037D01*
X142816155Y-81763765D01*
X142668745Y-82039551D01*
X142577970Y-82338796D01*
X142547319Y-82650000D01*
X142577970Y-82961204D01*
X142668745Y-83260449D01*
X142816155Y-83536235D01*
X142919446Y-83662095D01*
X142835506Y-83706963D01*
X142738815Y-83786315D01*
X142659463Y-83883006D01*
X142600498Y-83993320D01*
X142564188Y-84113018D01*
X142551928Y-84237500D01*
X142551928Y-84305000D01*
X139153465Y-84305000D01*
X139109999Y-84300719D01*
X139066533Y-84305000D01*
X139066523Y-84305000D01*
X138936510Y-84317805D01*
X138769687Y-84368411D01*
X138615941Y-84450589D01*
X138615939Y-84450590D01*
X138615940Y-84450590D01*
X138514953Y-84533468D01*
X138514951Y-84533470D01*
X138481183Y-84561183D01*
X138453470Y-84594951D01*
X135974951Y-87073471D01*
X135941184Y-87101183D01*
X135913471Y-87134951D01*
X135913468Y-87134954D01*
X135830590Y-87235941D01*
X135748412Y-87389687D01*
X135697805Y-87556510D01*
X135680719Y-87730000D01*
X135685001Y-87773476D01*
X135685001Y-98561928D01*
X134634999Y-98561928D01*
X134634999Y-95113465D01*
X134639280Y-95069998D01*
X134634999Y-95026532D01*
X134634999Y-95026522D01*
X134622194Y-94896509D01*
X134571588Y-94729686D01*
X134489410Y-94575940D01*
X134455039Y-94534059D01*
X134406531Y-94474952D01*
X134406529Y-94474950D01*
X134378816Y-94441182D01*
X134345048Y-94413469D01*
X133738966Y-93807387D01*
X133928061Y-93845000D01*
X134131939Y-93845000D01*
X134331898Y-93805226D01*
X134520256Y-93727205D01*
X134689774Y-93613937D01*
X134833937Y-93469774D01*
X134947205Y-93300256D01*
X135025226Y-93111898D01*
X135065000Y-92911939D01*
X135065000Y-92708061D01*
X135025226Y-92508102D01*
X134947205Y-92319744D01*
X134833937Y-92150226D01*
X134689774Y-92006063D01*
X134520256Y-91892795D01*
X134331898Y-91814774D01*
X134275044Y-91803465D01*
X133376534Y-90904956D01*
X133348817Y-90871183D01*
X133214059Y-90760589D01*
X133060313Y-90678411D01*
X132893490Y-90627805D01*
X132763477Y-90615000D01*
X132763469Y-90615000D01*
X132720000Y-90610719D01*
X132676531Y-90615000D01*
X130794656Y-90615000D01*
X130753475Y-90553368D01*
X130546632Y-90346525D01*
X130364466Y-90224805D01*
X130481355Y-90155178D01*
X130697588Y-89960269D01*
X130871641Y-89726920D01*
X130996825Y-89464099D01*
X131041476Y-89316890D01*
X130920155Y-89087000D01*
X129727000Y-89087000D01*
X129727000Y-89107000D01*
X129473000Y-89107000D01*
X129473000Y-89087000D01*
X128279845Y-89087000D01*
X128158524Y-89316890D01*
X128203175Y-89464099D01*
X128328359Y-89726920D01*
X128502412Y-89960269D01*
X128718645Y-90155178D01*
X128835534Y-90224805D01*
X128653368Y-90346525D01*
X128446525Y-90553368D01*
X128284010Y-90796589D01*
X128172068Y-91066842D01*
X128115000Y-91353740D01*
X128115000Y-91646260D01*
X128172068Y-91933158D01*
X128284010Y-92203411D01*
X128446525Y-92446632D01*
X128653368Y-92653475D01*
X128827760Y-92770000D01*
X128653368Y-92886525D01*
X128446525Y-93093368D01*
X128284010Y-93336589D01*
X128172068Y-93606842D01*
X128115000Y-93893740D01*
X128115000Y-94186260D01*
X128172068Y-94473158D01*
X128284010Y-94743411D01*
X128446525Y-94986632D01*
X128653368Y-95193475D01*
X128827760Y-95310000D01*
X128653368Y-95426525D01*
X128446525Y-95633368D01*
X128284010Y-95876589D01*
X128172068Y-96146842D01*
X128115000Y-96433740D01*
X128115000Y-96726260D01*
X128172068Y-97013158D01*
X128284010Y-97283411D01*
X128446525Y-97526632D01*
X128653368Y-97733475D01*
X128827760Y-97850000D01*
X128653368Y-97966525D01*
X128446525Y-98173368D01*
X128405344Y-98235000D01*
X128086579Y-98235000D01*
X126025000Y-96173422D01*
X126025000Y-85556578D01*
X128198465Y-83383114D01*
X128172068Y-83446842D01*
X128115000Y-83733740D01*
X128115000Y-84026260D01*
X128172068Y-84313158D01*
X128284010Y-84583411D01*
X128446525Y-84826632D01*
X128653368Y-85033475D01*
X128827760Y-85150000D01*
X128653368Y-85266525D01*
X128446525Y-85473368D01*
X128284010Y-85716589D01*
X128172068Y-85986842D01*
X128115000Y-86273740D01*
X128115000Y-86566260D01*
X128172068Y-86853158D01*
X128284010Y-87123411D01*
X128446525Y-87366632D01*
X128653368Y-87573475D01*
X128835534Y-87695195D01*
X128718645Y-87764822D01*
X128502412Y-87959731D01*
X128328359Y-88193080D01*
X128203175Y-88455901D01*
X128158524Y-88603110D01*
X128279845Y-88833000D01*
X129473000Y-88833000D01*
X129473000Y-88813000D01*
X129727000Y-88813000D01*
X129727000Y-88833000D01*
X130920155Y-88833000D01*
X131041476Y-88603110D01*
X130996825Y-88455901D01*
X130871641Y-88193080D01*
X130697588Y-87959731D01*
X130481355Y-87764822D01*
X130364466Y-87695195D01*
X130546632Y-87573475D01*
X130753475Y-87366632D01*
X130794656Y-87305000D01*
X131083422Y-87305000D01*
X133023465Y-89245044D01*
X133034774Y-89301898D01*
X133112795Y-89490256D01*
X133226063Y-89659774D01*
X133370226Y-89803937D01*
X133539744Y-89917205D01*
X133728102Y-89995226D01*
X133928061Y-90035000D01*
X134131939Y-90035000D01*
X134331898Y-89995226D01*
X134520256Y-89917205D01*
X134689774Y-89803937D01*
X134833937Y-89659774D01*
X134947205Y-89490256D01*
X135025226Y-89301898D01*
X135065000Y-89101939D01*
X135065000Y-88898061D01*
X135025226Y-88698102D01*
X134947205Y-88509744D01*
X134833937Y-88340226D01*
X134689774Y-88196063D01*
X134520256Y-88082795D01*
X134331898Y-88004774D01*
X134275044Y-87993465D01*
X132106534Y-85824956D01*
X132078817Y-85791183D01*
X131944059Y-85680589D01*
X131790313Y-85598411D01*
X131623490Y-85547805D01*
X131493477Y-85535000D01*
X131493469Y-85535000D01*
X131450000Y-85530719D01*
X131406531Y-85535000D01*
X130794656Y-85535000D01*
X130753475Y-85473368D01*
X130546632Y-85266525D01*
X130372240Y-85150000D01*
X130546632Y-85033475D01*
X130753475Y-84826632D01*
X130794656Y-84765000D01*
X132353422Y-84765000D01*
X133023465Y-85435044D01*
X133034774Y-85491898D01*
X133112795Y-85680256D01*
X133226063Y-85849774D01*
X133370226Y-85993937D01*
X133539744Y-86107205D01*
X133728102Y-86185226D01*
X133928061Y-86225000D01*
X134131939Y-86225000D01*
X134331898Y-86185226D01*
X134520256Y-86107205D01*
X134689774Y-85993937D01*
X134833937Y-85849774D01*
X134947205Y-85680256D01*
X135025226Y-85491898D01*
X135065000Y-85291939D01*
X135065000Y-85088061D01*
X135025226Y-84888102D01*
X134947205Y-84699744D01*
X134833937Y-84530226D01*
X134689774Y-84386063D01*
X134520256Y-84272795D01*
X134331898Y-84194774D01*
X134275044Y-84183465D01*
X133738965Y-83647387D01*
X133928061Y-83685000D01*
X134131939Y-83685000D01*
X134331898Y-83645226D01*
X134520256Y-83567205D01*
X134689774Y-83453937D01*
X134833937Y-83309774D01*
X134947205Y-83140256D01*
X135025226Y-82951898D01*
X135065000Y-82751939D01*
X135065000Y-82548061D01*
X135025226Y-82348102D01*
X134947205Y-82159744D01*
X134833937Y-81990226D01*
X134689774Y-81846063D01*
X134520256Y-81732795D01*
X134331898Y-81654774D01*
X134275044Y-81643465D01*
X133376532Y-80744954D01*
X133348817Y-80711183D01*
X133214059Y-80600589D01*
X133060313Y-80518411D01*
X132893490Y-80467805D01*
X132763477Y-80455000D01*
X132763469Y-80455000D01*
X132720000Y-80450719D01*
X132676531Y-80455000D01*
X131736578Y-80455000D01*
X132454558Y-79737020D01*
X142599437Y-79737020D01*
X142719406Y-79983000D01*
X144063000Y-79983000D01*
X144063000Y-78684430D01*
X144317000Y-78684430D01*
X144317000Y-79983000D01*
X145660594Y-79983000D01*
X145780563Y-79737020D01*
X145709571Y-79518906D01*
X145565969Y-79243077D01*
X145371315Y-79000563D01*
X145133089Y-78800684D01*
X144860446Y-78651121D01*
X144563863Y-78557622D01*
X144317000Y-78684430D01*
X144063000Y-78684430D01*
X143816137Y-78557622D01*
X143519554Y-78651121D01*
X143246911Y-78800684D01*
X143008685Y-79000563D01*
X142814031Y-79243077D01*
X142670429Y-79518906D01*
X142599437Y-79737020D01*
X132454558Y-79737020D01*
X136261532Y-75930047D01*
X136261537Y-75930041D01*
X136713167Y-75478411D01*
X136955001Y-75236578D01*
X136955000Y-75761545D01*
X136922795Y-75809744D01*
X136844774Y-75998102D01*
X136805000Y-76198061D01*
X136805000Y-76401939D01*
X136844774Y-76601898D01*
X136922795Y-76790256D01*
X137036063Y-76959774D01*
X137180226Y-77103937D01*
X137349744Y-77217205D01*
X137538102Y-77295226D01*
X137738061Y-77335000D01*
X137941939Y-77335000D01*
X138141898Y-77295226D01*
X138330256Y-77217205D01*
X138499774Y-77103937D01*
X138643937Y-76959774D01*
X138757205Y-76790256D01*
X138835226Y-76601898D01*
X138875000Y-76401939D01*
X138875000Y-76198061D01*
X138835226Y-75998102D01*
X138757205Y-75809744D01*
X138725000Y-75761546D01*
X138725000Y-75396578D01*
X140746579Y-73375000D01*
X142551928Y-73375000D01*
X142551928Y-73442500D01*
X142564188Y-73566982D01*
X142600498Y-73686680D01*
X142659463Y-73796994D01*
X142738815Y-73893685D01*
X142835506Y-73973037D01*
X142945820Y-74032002D01*
X143065518Y-74068312D01*
X143190000Y-74080572D01*
X145190000Y-74080572D01*
X145314482Y-74068312D01*
X145434180Y-74032002D01*
X145544494Y-73973037D01*
X145641185Y-73893685D01*
X145720537Y-73796994D01*
X145779502Y-73686680D01*
X145815812Y-73566982D01*
X145828072Y-73442500D01*
X145828072Y-71537500D01*
X145815812Y-71413018D01*
X145779502Y-71293320D01*
X145720537Y-71183006D01*
X145641185Y-71086315D01*
X145544494Y-71006963D01*
X145460554Y-70962095D01*
X145563845Y-70836235D01*
X145711255Y-70560449D01*
X145802030Y-70261204D01*
X145832681Y-69950000D01*
X145802030Y-69638796D01*
X145711255Y-69339551D01*
X145563845Y-69063765D01*
X145365463Y-68822037D01*
X145192391Y-68680000D01*
X145365463Y-68537963D01*
X145563845Y-68296235D01*
X145711255Y-68020449D01*
X145802030Y-67721204D01*
X145832681Y-67410000D01*
X145802030Y-67098796D01*
X145711255Y-66799551D01*
X145563845Y-66523765D01*
X145365463Y-66282037D01*
X145123735Y-66083655D01*
X145075000Y-66057606D01*
X145075000Y-57616578D01*
X148366579Y-54325000D01*
X185733422Y-54325000D01*
X187755000Y-56346579D01*
X187755001Y-58153420D01*
X185466494Y-60441928D01*
X183580000Y-60441928D01*
X183455518Y-60454188D01*
X183335820Y-60490498D01*
X183225506Y-60549463D01*
X183128815Y-60628815D01*
X183049463Y-60725506D01*
X182990498Y-60835820D01*
X182954188Y-60955518D01*
X182941928Y-61080000D01*
X182941928Y-63580000D01*
X182954188Y-63704482D01*
X182990498Y-63824180D01*
X183049463Y-63934494D01*
X183128815Y-64031185D01*
X183225506Y-64110537D01*
X183335820Y-64169502D01*
X183455518Y-64205812D01*
X183580000Y-64218072D01*
X186080000Y-64218072D01*
X186204482Y-64205812D01*
X186324180Y-64169502D01*
X186434494Y-64110537D01*
X186531185Y-64031185D01*
X186610537Y-63934494D01*
X186669502Y-63824180D01*
X186705812Y-63704482D01*
X186718072Y-63580000D01*
X186718072Y-61693506D01*
X189235049Y-59176530D01*
X189268817Y-59148817D01*
X189379411Y-59014059D01*
X189403810Y-58968411D01*
X189461589Y-58860314D01*
X189512195Y-58693490D01*
X189525000Y-58563477D01*
X189525000Y-58563469D01*
X189529281Y-58520000D01*
X189525000Y-58476531D01*
X189525000Y-56023465D01*
X189529281Y-55979999D01*
X189525000Y-55936533D01*
X189525000Y-55936523D01*
X189512195Y-55806510D01*
X189461589Y-55639687D01*
X189379411Y-55485941D01*
X189268817Y-55351183D01*
X189235050Y-55323471D01*
X186756534Y-52844956D01*
X186728817Y-52811183D01*
X186594059Y-52700589D01*
X186440313Y-52618411D01*
X186273490Y-52567805D01*
X186143477Y-52555000D01*
X186143469Y-52555000D01*
X186100000Y-52550719D01*
X186056531Y-52555000D01*
X148043469Y-52555000D01*
X148000000Y-52550719D01*
X147956531Y-52555000D01*
X147956523Y-52555000D01*
X147826510Y-52567805D01*
X147659686Y-52618411D01*
X147505941Y-52700589D01*
X147404953Y-52783468D01*
X147404951Y-52783470D01*
X147371183Y-52811183D01*
X147343470Y-52844951D01*
X143594951Y-56593470D01*
X143561184Y-56621183D01*
X143533471Y-56654951D01*
X143533468Y-56654954D01*
X143450590Y-56755941D01*
X143368412Y-56909687D01*
X143317805Y-57076510D01*
X143300719Y-57250000D01*
X143305001Y-57293479D01*
X143305000Y-66057606D01*
X143256265Y-66083655D01*
X143014537Y-66282037D01*
X142816155Y-66523765D01*
X142668745Y-66799551D01*
X142577970Y-67098796D01*
X142547319Y-67410000D01*
X142577970Y-67721204D01*
X142668745Y-68020449D01*
X142816155Y-68296235D01*
X143014537Y-68537963D01*
X143187609Y-68680000D01*
X143014537Y-68822037D01*
X142816155Y-69063765D01*
X142815495Y-69065000D01*
X141033466Y-69065000D01*
X140989999Y-69060719D01*
X140946533Y-69065000D01*
X140946523Y-69065000D01*
X140816510Y-69077805D01*
X140649687Y-69128411D01*
X140495941Y-69210589D01*
X140495939Y-69210590D01*
X140495940Y-69210590D01*
X140394953Y-69293468D01*
X140394951Y-69293470D01*
X140361183Y-69321183D01*
X140333470Y-69354951D01*
X135974958Y-73713464D01*
X135974953Y-73713468D01*
X135009958Y-74678464D01*
X135009953Y-74678468D01*
X131015424Y-78672998D01*
X130926252Y-78672998D01*
X131085000Y-78514250D01*
X131088072Y-77950000D01*
X131075812Y-77825518D01*
X131039502Y-77705820D01*
X130980537Y-77595506D01*
X130901185Y-77498815D01*
X130804494Y-77419463D01*
X130694180Y-77360498D01*
X130574482Y-77324188D01*
X130450000Y-77311928D01*
X129885750Y-77315000D01*
X129727000Y-77473750D01*
X129727000Y-78673000D01*
X129747000Y-78673000D01*
X129747000Y-78927000D01*
X129727000Y-78927000D01*
X129727000Y-78947000D01*
X129473000Y-78947000D01*
X129473000Y-78927000D01*
X128273750Y-78927000D01*
X128115000Y-79085750D01*
X128111928Y-79650000D01*
X128124188Y-79774482D01*
X128160498Y-79894180D01*
X128219463Y-80004494D01*
X128298815Y-80101185D01*
X128395506Y-80180537D01*
X128505820Y-80239502D01*
X128578380Y-80261513D01*
X128446525Y-80393368D01*
X128284010Y-80636589D01*
X128172414Y-80906007D01*
X124544951Y-84533470D01*
X124511184Y-84561183D01*
X124483471Y-84594951D01*
X124483468Y-84594954D01*
X124400590Y-84695941D01*
X124318412Y-84849687D01*
X124267805Y-85016510D01*
X124250719Y-85190000D01*
X123260000Y-85190000D01*
X123260000Y-77950000D01*
X128111928Y-77950000D01*
X128115000Y-78514250D01*
X128273750Y-78673000D01*
X129473000Y-78673000D01*
X129473000Y-77473750D01*
X129314250Y-77315000D01*
X128750000Y-77311928D01*
X128625518Y-77324188D01*
X128505820Y-77360498D01*
X128395506Y-77419463D01*
X128298815Y-77498815D01*
X128219463Y-77595506D01*
X128160498Y-77705820D01*
X128124188Y-77825518D01*
X128111928Y-77950000D01*
X123260000Y-77950000D01*
X123260000Y-44829392D01*
X123292817Y-44461682D01*
X124165000Y-44461682D01*
X124165000Y-45138318D01*
X124297006Y-45801952D01*
X124555943Y-46427082D01*
X124931862Y-46989685D01*
X125410315Y-47468138D01*
X125972918Y-47844057D01*
X126598048Y-48102994D01*
X127261682Y-48235000D01*
X127938318Y-48235000D01*
X128601952Y-48102994D01*
X129227082Y-47844057D01*
X129789685Y-47468138D01*
X130268138Y-46989685D01*
X130644057Y-46427082D01*
X130902994Y-45801952D01*
X131035000Y-45138318D01*
X131035000Y-44461682D01*
X184165000Y-44461682D01*
X184165000Y-45138318D01*
X184297006Y-45801952D01*
X184555943Y-46427082D01*
X184931862Y-46989685D01*
X185410315Y-47468138D01*
X185972918Y-47844057D01*
X186598048Y-48102994D01*
X187261682Y-48235000D01*
X187938318Y-48235000D01*
X188601952Y-48102994D01*
X189227082Y-47844057D01*
X189789685Y-47468138D01*
X190268138Y-46989685D01*
X190644057Y-46427082D01*
X190902994Y-45801952D01*
X191035000Y-45138318D01*
X191035000Y-44461682D01*
X190902994Y-43798048D01*
X190644057Y-43172918D01*
X190268138Y-42610315D01*
X189789685Y-42131862D01*
X189227082Y-41755943D01*
X188601952Y-41497006D01*
X187938318Y-41365000D01*
X187261682Y-41365000D01*
X186598048Y-41497006D01*
X185972918Y-41755943D01*
X185410315Y-42131862D01*
X184931862Y-42610315D01*
X184555943Y-43172918D01*
X184297006Y-43798048D01*
X184165000Y-44461682D01*
X131035000Y-44461682D01*
X130902994Y-43798048D01*
X130644057Y-43172918D01*
X130268138Y-42610315D01*
X129789685Y-42131862D01*
X129227082Y-41755943D01*
X128601952Y-41497006D01*
X127938318Y-41365000D01*
X127261682Y-41365000D01*
X126598048Y-41497006D01*
X125972918Y-41755943D01*
X125410315Y-42131862D01*
X124931862Y-42610315D01*
X124555943Y-43172918D01*
X124297006Y-43798048D01*
X124165000Y-44461682D01*
X123292817Y-44461682D01*
X123331173Y-44031917D01*
X123534656Y-43288109D01*
X123866638Y-42592095D01*
X124316626Y-41965870D01*
X124870403Y-41429223D01*
X125510451Y-40999129D01*
X125811448Y-40867000D01*
X189389356Y-40867000D01*
X189807905Y-41066638D01*
%TA.AperFunction,Conductor*%
D25*
G36*
X189807905Y-41066638D02*
G01*
X190434130Y-41516626D01*
X190970777Y-42070403D01*
X191053000Y-42192764D01*
X191053000Y-137398070D01*
X190883374Y-137634130D01*
X190329597Y-138170777D01*
X189984012Y-138403000D01*
X125210677Y-138403000D01*
X124765870Y-138083374D01*
X124229223Y-137529597D01*
X123799129Y-136889549D01*
X123489171Y-136183447D01*
X123307935Y-135428543D01*
X123260000Y-134775793D01*
X123260000Y-134461682D01*
X124165000Y-134461682D01*
X124165000Y-135138318D01*
X124297006Y-135801952D01*
X124555943Y-136427082D01*
X124931862Y-136989685D01*
X125410315Y-137468138D01*
X125972918Y-137844057D01*
X126598048Y-138102994D01*
X127261682Y-138235000D01*
X127938318Y-138235000D01*
X128601952Y-138102994D01*
X129227082Y-137844057D01*
X129789685Y-137468138D01*
X130268138Y-136989685D01*
X130644057Y-136427082D01*
X130902994Y-135801952D01*
X131035000Y-135138318D01*
X131035000Y-134461682D01*
X130902994Y-133798048D01*
X130644057Y-133172918D01*
X130268138Y-132610315D01*
X129789685Y-132131862D01*
X129227082Y-131755943D01*
X128601952Y-131497006D01*
X127938318Y-131365000D01*
X127261682Y-131365000D01*
X126598048Y-131497006D01*
X125972918Y-131755943D01*
X125410315Y-132131862D01*
X124931862Y-132610315D01*
X124555943Y-133172918D01*
X124297006Y-133798048D01*
X124165000Y-134461682D01*
X123260000Y-134461682D01*
X123260000Y-102016890D01*
X128158524Y-102016890D01*
X128203175Y-102164099D01*
X128328359Y-102426920D01*
X128502412Y-102660269D01*
X128718645Y-102855178D01*
X128968748Y-103004157D01*
X129243109Y-103101481D01*
X129473000Y-102980814D01*
X129473000Y-101787000D01*
X128279845Y-101787000D01*
X128158524Y-102016890D01*
X123260000Y-102016890D01*
X123260000Y-85190000D01*
X124250719Y-85190000D01*
X124255001Y-85233479D01*
X124255000Y-96496531D01*
X124250719Y-96540000D01*
X124255000Y-96583469D01*
X124255000Y-96583476D01*
X124267805Y-96713489D01*
X124318411Y-96880312D01*
X124400589Y-97034058D01*
X124511183Y-97168817D01*
X124544956Y-97196534D01*
X127063470Y-99715049D01*
X127091183Y-99748817D01*
X127124951Y-99776530D01*
X127124953Y-99776532D01*
X127173693Y-99816532D01*
X127225941Y-99859411D01*
X127379687Y-99941589D01*
X127495903Y-99976843D01*
X127546509Y-99992195D01*
X127561306Y-99993652D01*
X127676523Y-100005000D01*
X127676531Y-100005000D01*
X127720000Y-100009281D01*
X127763469Y-100005000D01*
X128405344Y-100005000D01*
X128446525Y-100066632D01*
X128653368Y-100273475D01*
X128835534Y-100395195D01*
X128718645Y-100464822D01*
X128502412Y-100659731D01*
X128328359Y-100893080D01*
X128203175Y-101155901D01*
X128158524Y-101303110D01*
X128279845Y-101533000D01*
X129473000Y-101533000D01*
X129473000Y-101513000D01*
X129727000Y-101513000D01*
X129727000Y-101533000D01*
X129747000Y-101533000D01*
X129747000Y-101787000D01*
X129727000Y-101787000D01*
X129727000Y-102980814D01*
X129956891Y-103101481D01*
X130231252Y-103004157D01*
X130481355Y-102855178D01*
X130605001Y-102743726D01*
X130605000Y-111686531D01*
X130600719Y-111730000D01*
X130605000Y-111773469D01*
X130605000Y-111773476D01*
X130617805Y-111903489D01*
X130668411Y-112070312D01*
X130750589Y-112224058D01*
X130861183Y-112358817D01*
X130894956Y-112386534D01*
X133571983Y-115063561D01*
X133565000Y-115098665D01*
X133565000Y-115381335D01*
X133620147Y-115658574D01*
X133728320Y-115919727D01*
X133885363Y-116154759D01*
X134085241Y-116354637D01*
X134317759Y-116510000D01*
X134085241Y-116665363D01*
X133885363Y-116865241D01*
X133728320Y-117100273D01*
X133620147Y-117361426D01*
X133565000Y-117638665D01*
X133565000Y-117921335D01*
X133620147Y-118198574D01*
X133728320Y-118459727D01*
X133885363Y-118694759D01*
X134085241Y-118894637D01*
X134317759Y-119050000D01*
X134085241Y-119205363D01*
X133885363Y-119405241D01*
X133728320Y-119640273D01*
X133620147Y-119901426D01*
X133565000Y-120178665D01*
X133565000Y-120461335D01*
X133620147Y-120738574D01*
X133728320Y-120999727D01*
X133885363Y-121234759D01*
X134085241Y-121434637D01*
X134317759Y-121590000D01*
X134085241Y-121745363D01*
X133885363Y-121945241D01*
X133728320Y-122180273D01*
X133620147Y-122441426D01*
X133565000Y-122718665D01*
X133565000Y-123001335D01*
X133620147Y-123278574D01*
X133728320Y-123539727D01*
X133885363Y-123774759D01*
X134085241Y-123974637D01*
X134317759Y-124130000D01*
X134085241Y-124285363D01*
X133885363Y-124485241D01*
X133728320Y-124720273D01*
X133620147Y-124981426D01*
X133565000Y-125258665D01*
X133565000Y-125541335D01*
X133620147Y-125818574D01*
X133728320Y-126079727D01*
X133885363Y-126314759D01*
X134085241Y-126514637D01*
X134317759Y-126670000D01*
X134085241Y-126825363D01*
X133885363Y-127025241D01*
X133865479Y-127055000D01*
X130156579Y-127055000D01*
X129956535Y-126854957D01*
X129945226Y-126798102D01*
X129867205Y-126609744D01*
X129753937Y-126440226D01*
X129609774Y-126296063D01*
X129440256Y-126182795D01*
X129251898Y-126104774D01*
X129051939Y-126065000D01*
X128848061Y-126065000D01*
X128648102Y-126104774D01*
X128459744Y-126182795D01*
X128290226Y-126296063D01*
X128146063Y-126440226D01*
X128032795Y-126609744D01*
X127954774Y-126798102D01*
X127915000Y-126998061D01*
X127915000Y-127201939D01*
X127954774Y-127401898D01*
X128032795Y-127590256D01*
X128146063Y-127759774D01*
X128290226Y-127903937D01*
X128459744Y-128017205D01*
X128648102Y-128095226D01*
X128704957Y-128106535D01*
X129133470Y-128535049D01*
X129161183Y-128568817D01*
X129194951Y-128596530D01*
X129194953Y-128596532D01*
X129223216Y-128619727D01*
X129295941Y-128679411D01*
X129449687Y-128761589D01*
X129616510Y-128812195D01*
X129746523Y-128825000D01*
X129746533Y-128825000D01*
X129789999Y-128829281D01*
X129833465Y-128825000D01*
X133865479Y-128825000D01*
X133885363Y-128854759D01*
X134085241Y-129054637D01*
X134317759Y-129210000D01*
X134085241Y-129365363D01*
X133885363Y-129565241D01*
X133728320Y-129800273D01*
X133620147Y-130061426D01*
X133565000Y-130338665D01*
X133565000Y-130621335D01*
X133620147Y-130898574D01*
X133728320Y-131159727D01*
X133885363Y-131394759D01*
X134085241Y-131594637D01*
X134317759Y-131750000D01*
X134085241Y-131905363D01*
X133885363Y-132105241D01*
X133728320Y-132340273D01*
X133620147Y-132601426D01*
X133565000Y-132878665D01*
X133565000Y-133161335D01*
X133620147Y-133438574D01*
X133728320Y-133699727D01*
X133885363Y-133934759D01*
X134085241Y-134134637D01*
X134317759Y-134290000D01*
X134085241Y-134445363D01*
X133885363Y-134645241D01*
X133728320Y-134880273D01*
X133620147Y-135141426D01*
X133565000Y-135418665D01*
X133565000Y-135701335D01*
X133620147Y-135978574D01*
X133728320Y-136239727D01*
X133885363Y-136474759D01*
X134085241Y-136674637D01*
X134320273Y-136831680D01*
X134581426Y-136939853D01*
X134858665Y-136995000D01*
X135141335Y-136995000D01*
X135418574Y-136939853D01*
X135679727Y-136831680D01*
X135914759Y-136674637D01*
X136114637Y-136474759D01*
X136271680Y-136239727D01*
X136379853Y-135978574D01*
X136435000Y-135701335D01*
X136435000Y-135418665D01*
X136379853Y-135141426D01*
X136271680Y-134880273D01*
X136114637Y-134645241D01*
X135914759Y-134445363D01*
X135682241Y-134290000D01*
X135914759Y-134134637D01*
X136114637Y-133934759D01*
X136271680Y-133699727D01*
X136379853Y-133438574D01*
X136435000Y-133161335D01*
X136435000Y-132878665D01*
X136428017Y-132843561D01*
X139705050Y-129566528D01*
X139738817Y-129538817D01*
X139849411Y-129404059D01*
X139931589Y-129250313D01*
X139982195Y-129083490D01*
X139995000Y-128953477D01*
X139995000Y-128953469D01*
X139999281Y-128910000D01*
X139995000Y-128866531D01*
X139995000Y-96310804D01*
X140078102Y-96345226D01*
X140134957Y-96356535D01*
X143305001Y-99526580D01*
X143305000Y-113086531D01*
X143300719Y-113130000D01*
X143305000Y-113173469D01*
X143305000Y-113173476D01*
X143317805Y-113303489D01*
X143368411Y-113470312D01*
X143450589Y-113624058D01*
X143561183Y-113758817D01*
X143594956Y-113786534D01*
X148183470Y-118375049D01*
X148211183Y-118408817D01*
X148244951Y-118436530D01*
X148244953Y-118436532D01*
X148273216Y-118459727D01*
X148345941Y-118519411D01*
X148499687Y-118601589D01*
X148666510Y-118652195D01*
X148796523Y-118665000D01*
X148796533Y-118665000D01*
X148839999Y-118669281D01*
X148883466Y-118665000D01*
X149105479Y-118665000D01*
X149125363Y-118694759D01*
X149325241Y-118894637D01*
X149557759Y-119050000D01*
X149325241Y-119205363D01*
X149125363Y-119405241D01*
X148968320Y-119640273D01*
X148860147Y-119901426D01*
X148805000Y-120178665D01*
X148805000Y-120461335D01*
X148860147Y-120738574D01*
X148968320Y-120999727D01*
X149125363Y-121234759D01*
X149325241Y-121434637D01*
X149557759Y-121590000D01*
X149325241Y-121745363D01*
X149125363Y-121945241D01*
X148968320Y-122180273D01*
X148860147Y-122441426D01*
X148805000Y-122718665D01*
X148805000Y-123001335D01*
X148860147Y-123278574D01*
X148968320Y-123539727D01*
X149125363Y-123774759D01*
X149325241Y-123974637D01*
X149557759Y-124130000D01*
X149325241Y-124285363D01*
X149125363Y-124485241D01*
X148968320Y-124720273D01*
X148860147Y-124981426D01*
X148805000Y-125258665D01*
X148805000Y-125541335D01*
X148860147Y-125818574D01*
X148968320Y-126079727D01*
X149125363Y-126314759D01*
X149325241Y-126514637D01*
X149557759Y-126670000D01*
X149325241Y-126825363D01*
X149125363Y-127025241D01*
X148968320Y-127260273D01*
X148860147Y-127521426D01*
X148805000Y-127798665D01*
X148805000Y-128081335D01*
X148860147Y-128358574D01*
X148968320Y-128619727D01*
X149125363Y-128854759D01*
X149325241Y-129054637D01*
X149557759Y-129210000D01*
X149325241Y-129365363D01*
X149125363Y-129565241D01*
X148968320Y-129800273D01*
X148860147Y-130061426D01*
X148805000Y-130338665D01*
X148805000Y-130621335D01*
X148860147Y-130898574D01*
X148968320Y-131159727D01*
X149125363Y-131394759D01*
X149325241Y-131594637D01*
X149557759Y-131750000D01*
X149325241Y-131905363D01*
X149125363Y-132105241D01*
X148968320Y-132340273D01*
X148860147Y-132601426D01*
X148805000Y-132878665D01*
X148805000Y-133161335D01*
X148860147Y-133438574D01*
X148968320Y-133699727D01*
X149125363Y-133934759D01*
X149325241Y-134134637D01*
X149557759Y-134290000D01*
X149325241Y-134445363D01*
X149125363Y-134645241D01*
X148968320Y-134880273D01*
X148860147Y-135141426D01*
X148805000Y-135418665D01*
X148805000Y-135701335D01*
X148860147Y-135978574D01*
X148968320Y-136239727D01*
X149125363Y-136474759D01*
X149325241Y-136674637D01*
X149560273Y-136831680D01*
X149821426Y-136939853D01*
X150098665Y-136995000D01*
X150381335Y-136995000D01*
X150658574Y-136939853D01*
X150919727Y-136831680D01*
X151154759Y-136674637D01*
X151354637Y-136474759D01*
X151511680Y-136239727D01*
X151619853Y-135978574D01*
X151675000Y-135701335D01*
X151675000Y-135418665D01*
X151619853Y-135141426D01*
X151511680Y-134880273D01*
X151354637Y-134645241D01*
X151171078Y-134461682D01*
X184165000Y-134461682D01*
X184165000Y-135138318D01*
X184297006Y-135801952D01*
X184555943Y-136427082D01*
X184931862Y-136989685D01*
X185410315Y-137468138D01*
X185972918Y-137844057D01*
X186598048Y-138102994D01*
X187261682Y-138235000D01*
X187938318Y-138235000D01*
X188601952Y-138102994D01*
X189227082Y-137844057D01*
X189789685Y-137468138D01*
X190268138Y-136989685D01*
X190644057Y-136427082D01*
X190902994Y-135801952D01*
X191035000Y-135138318D01*
X191035000Y-134461682D01*
X190902994Y-133798048D01*
X190644057Y-133172918D01*
X190268138Y-132610315D01*
X189789685Y-132131862D01*
X189227082Y-131755943D01*
X188601952Y-131497006D01*
X187938318Y-131365000D01*
X187261682Y-131365000D01*
X186598048Y-131497006D01*
X185972918Y-131755943D01*
X185410315Y-132131862D01*
X184931862Y-132610315D01*
X184555943Y-133172918D01*
X184297006Y-133798048D01*
X184165000Y-134461682D01*
X151171078Y-134461682D01*
X151154759Y-134445363D01*
X150922241Y-134290000D01*
X151154759Y-134134637D01*
X151354637Y-133934759D01*
X151511680Y-133699727D01*
X151619853Y-133438574D01*
X151675000Y-133161335D01*
X151675000Y-132878665D01*
X151619853Y-132601426D01*
X151511680Y-132340273D01*
X151354637Y-132105241D01*
X151154759Y-131905363D01*
X150922241Y-131750000D01*
X151154759Y-131594637D01*
X151354637Y-131394759D01*
X151511680Y-131159727D01*
X151619853Y-130898574D01*
X151675000Y-130621335D01*
X151675000Y-130338665D01*
X151619853Y-130061426D01*
X151511680Y-129800273D01*
X151354637Y-129565241D01*
X151154759Y-129365363D01*
X150922241Y-129210000D01*
X151154759Y-129054637D01*
X151354637Y-128854759D01*
X151511680Y-128619727D01*
X151619853Y-128358574D01*
X151675000Y-128081335D01*
X151675000Y-127798665D01*
X151668017Y-127763561D01*
X177265049Y-102166530D01*
X177298817Y-102138817D01*
X177366035Y-102056913D01*
X177409410Y-102004060D01*
X177409411Y-102004059D01*
X177455371Y-101918072D01*
X177670000Y-101918072D01*
X177794482Y-101905812D01*
X177914180Y-101869502D01*
X178024494Y-101810537D01*
X178121185Y-101731185D01*
X178200537Y-101634494D01*
X178259502Y-101524180D01*
X178295812Y-101404482D01*
X178304625Y-101315000D01*
X182941928Y-101315000D01*
X182941928Y-101680000D01*
X182954188Y-101804482D01*
X182990498Y-101924180D01*
X183049463Y-102034494D01*
X183128815Y-102131185D01*
X183225506Y-102210537D01*
X183335820Y-102269502D01*
X183455518Y-102305812D01*
X183580000Y-102318072D01*
X186080000Y-102318072D01*
X186204482Y-102305812D01*
X186324180Y-102269502D01*
X186434494Y-102210537D01*
X186531185Y-102131185D01*
X186610537Y-102034494D01*
X186669502Y-101924180D01*
X186705812Y-101804482D01*
X186718072Y-101680000D01*
X186718072Y-99180000D01*
X186705812Y-99055518D01*
X186669502Y-98935820D01*
X186610537Y-98825506D01*
X186531185Y-98728815D01*
X186434494Y-98649463D01*
X186324180Y-98590498D01*
X186204482Y-98554188D01*
X186080000Y-98541928D01*
X183580000Y-98541928D01*
X183455518Y-98554188D01*
X183335820Y-98590498D01*
X183225506Y-98649463D01*
X183128815Y-98728815D01*
X183049463Y-98825506D01*
X182990498Y-98935820D01*
X182954188Y-99055518D01*
X182941928Y-99180000D01*
X182941928Y-99545000D01*
X178304625Y-99545000D01*
X178295812Y-99455518D01*
X178259502Y-99335820D01*
X178200537Y-99225506D01*
X178121185Y-99128815D01*
X178024494Y-99049463D01*
X177914180Y-98990498D01*
X177794482Y-98954188D01*
X177670000Y-98941928D01*
X175670000Y-98941928D01*
X175545518Y-98954188D01*
X175425820Y-98990498D01*
X175315506Y-99049463D01*
X175218815Y-99128815D01*
X175139463Y-99225506D01*
X175080498Y-99335820D01*
X175044188Y-99455518D01*
X175031928Y-99580000D01*
X175031928Y-101280000D01*
X175044188Y-101404482D01*
X175080498Y-101524180D01*
X175139463Y-101634494D01*
X175209088Y-101719333D01*
X151674130Y-125254292D01*
X151619853Y-124981426D01*
X151511680Y-124720273D01*
X151354637Y-124485241D01*
X151154759Y-124285363D01*
X150922241Y-124130000D01*
X151154759Y-123974637D01*
X151354637Y-123774759D01*
X151511680Y-123539727D01*
X151619853Y-123278574D01*
X151675000Y-123001335D01*
X151675000Y-122718665D01*
X151619853Y-122441426D01*
X151511680Y-122180273D01*
X151354637Y-121945241D01*
X151154759Y-121745363D01*
X150922241Y-121590000D01*
X151154759Y-121434637D01*
X151354637Y-121234759D01*
X151511680Y-120999727D01*
X151619853Y-120738574D01*
X151675000Y-120461335D01*
X151675000Y-120178665D01*
X151619853Y-119901426D01*
X151511680Y-119640273D01*
X151354637Y-119405241D01*
X151154759Y-119205363D01*
X150922241Y-119050000D01*
X151154759Y-118894637D01*
X151354637Y-118694759D01*
X151511680Y-118459727D01*
X151619853Y-118198574D01*
X151675000Y-117921335D01*
X151675000Y-117638665D01*
X151619853Y-117361426D01*
X151511680Y-117100273D01*
X151354637Y-116865241D01*
X151154759Y-116665363D01*
X150922241Y-116510000D01*
X151154759Y-116354637D01*
X151354637Y-116154759D01*
X151511680Y-115919727D01*
X151619853Y-115658574D01*
X151675000Y-115381335D01*
X151675000Y-115098665D01*
X151619853Y-114821426D01*
X151511680Y-114560273D01*
X151354637Y-114325241D01*
X151154759Y-114125363D01*
X150922241Y-113970000D01*
X151154759Y-113814637D01*
X151354637Y-113614759D01*
X151511680Y-113379727D01*
X151619853Y-113118574D01*
X151675000Y-112841335D01*
X151675000Y-112558665D01*
X151619853Y-112281426D01*
X151511680Y-112020273D01*
X151354637Y-111785241D01*
X151154759Y-111585363D01*
X150922241Y-111430000D01*
X151154759Y-111274637D01*
X151354637Y-111074759D01*
X151511680Y-110839727D01*
X151619853Y-110578574D01*
X151675000Y-110301335D01*
X151675000Y-110018665D01*
X151619853Y-109741426D01*
X151511680Y-109480273D01*
X151354637Y-109245241D01*
X151154759Y-109045363D01*
X150922241Y-108890000D01*
X151154759Y-108734637D01*
X151204396Y-108685000D01*
X153006928Y-108685000D01*
X153006928Y-108975000D01*
X153019188Y-109099482D01*
X153055498Y-109219180D01*
X153114463Y-109329494D01*
X153193815Y-109426185D01*
X153290506Y-109505537D01*
X153400820Y-109564502D01*
X153520518Y-109600812D01*
X153645000Y-109613072D01*
X156415000Y-109613072D01*
X156539482Y-109600812D01*
X156659180Y-109564502D01*
X156769494Y-109505537D01*
X156866185Y-109426185D01*
X156945537Y-109329494D01*
X157004502Y-109219180D01*
X157040812Y-109099482D01*
X157053072Y-108975000D01*
X158146928Y-108975000D01*
X158159188Y-109099482D01*
X158195498Y-109219180D01*
X158254463Y-109329494D01*
X158333815Y-109426185D01*
X158430506Y-109505537D01*
X158540820Y-109564502D01*
X158660518Y-109600812D01*
X158785000Y-109613072D01*
X159884250Y-109610000D01*
X160043000Y-109451250D01*
X160043000Y-107927000D01*
X160297000Y-107927000D01*
X160297000Y-109451250D01*
X160455750Y-109610000D01*
X161555000Y-109613072D01*
X161679482Y-109600812D01*
X161799180Y-109564502D01*
X161909494Y-109505537D01*
X162006185Y-109426185D01*
X162085537Y-109329494D01*
X162144502Y-109219180D01*
X162180812Y-109099482D01*
X162193072Y-108975000D01*
X162190000Y-108085750D01*
X162031250Y-107927000D01*
X160297000Y-107927000D01*
X160043000Y-107927000D01*
X158308750Y-107927000D01*
X158150000Y-108085750D01*
X158146928Y-108975000D01*
X157053072Y-108975000D01*
X157053072Y-106625000D01*
X158146928Y-106625000D01*
X158150000Y-107514250D01*
X158308750Y-107673000D01*
X160043000Y-107673000D01*
X160043000Y-106148750D01*
X160297000Y-106148750D01*
X160297000Y-107673000D01*
X162031250Y-107673000D01*
X162190000Y-107514250D01*
X162193072Y-106625000D01*
X162180812Y-106500518D01*
X162144502Y-106380820D01*
X162085537Y-106270506D01*
X162006185Y-106173815D01*
X161909494Y-106094463D01*
X161799180Y-106035498D01*
X161679482Y-105999188D01*
X161555000Y-105986928D01*
X160455750Y-105990000D01*
X160297000Y-106148750D01*
X160043000Y-106148750D01*
X159884250Y-105990000D01*
X158785000Y-105986928D01*
X158660518Y-105999188D01*
X158540820Y-106035498D01*
X158430506Y-106094463D01*
X158333815Y-106173815D01*
X158254463Y-106270506D01*
X158195498Y-106380820D01*
X158159188Y-106500518D01*
X158146928Y-106625000D01*
X157053072Y-106625000D01*
X157050697Y-106600882D01*
X158526579Y-105125000D01*
X168816531Y-105125000D01*
X168860000Y-105129281D01*
X168903469Y-105125000D01*
X168903477Y-105125000D01*
X169033490Y-105112195D01*
X169200313Y-105061589D01*
X169354059Y-104979411D01*
X169488817Y-104868817D01*
X169516534Y-104835044D01*
X172433507Y-101918072D01*
X173670000Y-101918072D01*
X173794482Y-101905812D01*
X173914180Y-101869502D01*
X174024494Y-101810537D01*
X174121185Y-101731185D01*
X174200537Y-101634494D01*
X174259502Y-101524180D01*
X174295812Y-101404482D01*
X174308072Y-101280000D01*
X174308072Y-99580000D01*
X174295812Y-99455518D01*
X174259502Y-99335820D01*
X174200537Y-99225506D01*
X174121185Y-99128815D01*
X174024494Y-99049463D01*
X173914180Y-98990498D01*
X173794482Y-98954188D01*
X173670000Y-98941928D01*
X172433507Y-98941928D01*
X170235184Y-96743605D01*
X183696000Y-96743605D01*
X183821914Y-97033577D01*
X184154126Y-97199433D01*
X184512312Y-97297290D01*
X184882706Y-97323389D01*
X185251075Y-97276725D01*
X185603262Y-97159094D01*
X185838086Y-97033577D01*
X185964000Y-96743605D01*
X184830000Y-95609605D01*
X183696000Y-96743605D01*
X170235184Y-96743605D01*
X168974285Y-95482706D01*
X182936611Y-95482706D01*
X182983275Y-95851075D01*
X183100906Y-96203262D01*
X183226423Y-96438086D01*
X183516395Y-96564000D01*
X184650395Y-95430000D01*
X185009605Y-95430000D01*
X186143605Y-96564000D01*
X186433577Y-96438086D01*
X186599433Y-96105874D01*
X186697290Y-95747688D01*
X186723389Y-95377294D01*
X186676725Y-95008925D01*
X186559094Y-94656738D01*
X186433577Y-94421914D01*
X186143605Y-94296000D01*
X185009605Y-95430000D01*
X184650395Y-95430000D01*
X183516395Y-94296000D01*
X183226423Y-94421914D01*
X183060567Y-94754126D01*
X182962710Y-95112312D01*
X182936611Y-95482706D01*
X168974285Y-95482706D01*
X167607974Y-94116395D01*
X183696000Y-94116395D01*
X184830000Y-95250395D01*
X185964000Y-94116395D01*
X185838086Y-93826423D01*
X185505874Y-93660567D01*
X185147688Y-93562710D01*
X184777294Y-93536611D01*
X184408925Y-93583275D01*
X184056738Y-93700906D01*
X183821914Y-93826423D01*
X183696000Y-94116395D01*
X167607974Y-94116395D01*
X164436532Y-90944954D01*
X164408817Y-90911183D01*
X164274059Y-90800589D01*
X164120313Y-90718411D01*
X163953490Y-90667805D01*
X163823477Y-90655000D01*
X163823469Y-90655000D01*
X163780000Y-90650719D01*
X163736531Y-90655000D01*
X163064625Y-90655000D01*
X163055812Y-90565518D01*
X163019502Y-90445820D01*
X162960537Y-90335506D01*
X162881185Y-90238815D01*
X162784494Y-90159463D01*
X162674180Y-90100498D01*
X162554482Y-90064188D01*
X162430000Y-90051928D01*
X162315000Y-90051928D01*
X162315000Y-85408072D01*
X162430000Y-85408072D01*
X162554482Y-85395812D01*
X162674180Y-85359502D01*
X162784494Y-85300537D01*
X162881185Y-85221185D01*
X162960537Y-85124494D01*
X163019502Y-85014180D01*
X163055812Y-84894482D01*
X163068072Y-84770000D01*
X163068072Y-83070000D01*
X163055812Y-82945518D01*
X163019502Y-82825820D01*
X162960537Y-82715506D01*
X162881185Y-82618815D01*
X162784494Y-82539463D01*
X162674180Y-82480498D01*
X162554482Y-82444188D01*
X162430000Y-82431928D01*
X162315000Y-82431928D01*
X162315000Y-81683072D01*
X162730000Y-81683072D01*
X162883745Y-81667929D01*
X163031582Y-81623084D01*
X163167829Y-81550258D01*
X163287251Y-81452251D01*
X163385258Y-81332829D01*
X163458084Y-81196582D01*
X163502929Y-81048745D01*
X163518072Y-80895000D01*
X163518072Y-80595000D01*
X163502929Y-80441255D01*
X163478281Y-80360000D01*
X167858422Y-80360000D01*
X168151928Y-80653506D01*
X168151928Y-81840000D01*
X168164188Y-81964482D01*
X168200498Y-82084180D01*
X168259463Y-82194494D01*
X168338815Y-82291185D01*
X168435506Y-82370537D01*
X168545820Y-82429502D01*
X168665518Y-82465812D01*
X168790000Y-82478072D01*
X170390000Y-82478072D01*
X170514482Y-82465812D01*
X170634180Y-82429502D01*
X170744494Y-82370537D01*
X170841185Y-82291185D01*
X170862674Y-82265000D01*
X172305375Y-82265000D01*
X172314188Y-82354482D01*
X172350498Y-82474180D01*
X172409463Y-82584494D01*
X172488815Y-82681185D01*
X172585506Y-82760537D01*
X172695820Y-82819502D01*
X172815518Y-82855812D01*
X172940000Y-82868072D01*
X174940000Y-82868072D01*
X175064482Y-82855812D01*
X175184180Y-82819502D01*
X175294494Y-82760537D01*
X175391185Y-82681185D01*
X175470537Y-82584494D01*
X175529502Y-82474180D01*
X175565812Y-82354482D01*
X175578072Y-82230000D01*
X175578072Y-80530000D01*
X176301928Y-80530000D01*
X176301928Y-82230000D01*
X176314188Y-82354482D01*
X176350498Y-82474180D01*
X176409463Y-82584494D01*
X176488815Y-82681185D01*
X176585506Y-82760537D01*
X176695820Y-82819502D01*
X176815518Y-82855812D01*
X176940000Y-82868072D01*
X178940000Y-82868072D01*
X179064482Y-82855812D01*
X179184180Y-82819502D01*
X179294494Y-82760537D01*
X179391185Y-82681185D01*
X179470537Y-82584494D01*
X179529502Y-82474180D01*
X179565812Y-82354482D01*
X179578072Y-82230000D01*
X179578072Y-82185000D01*
X183156269Y-82185000D01*
X183159534Y-82192882D01*
X183365825Y-82501618D01*
X183628382Y-82764175D01*
X183937118Y-82970466D01*
X184280166Y-83112561D01*
X184644344Y-83185000D01*
X185015656Y-83185000D01*
X185379834Y-83112561D01*
X185722882Y-82970466D01*
X186031618Y-82764175D01*
X186294175Y-82501618D01*
X186500466Y-82192882D01*
X186642561Y-81849834D01*
X186715000Y-81485656D01*
X186715000Y-81114344D01*
X186642561Y-80750166D01*
X186500466Y-80407118D01*
X186294175Y-80098382D01*
X186031618Y-79835825D01*
X185722882Y-79629534D01*
X185379834Y-79487439D01*
X185015656Y-79415000D01*
X184644344Y-79415000D01*
X184280166Y-79487439D01*
X183937118Y-79629534D01*
X183628382Y-79835825D01*
X183365825Y-80098382D01*
X183159534Y-80407118D01*
X183156269Y-80415000D01*
X179566746Y-80415000D01*
X179565812Y-80405518D01*
X179529502Y-80285820D01*
X179470537Y-80175506D01*
X179391185Y-80078815D01*
X179294494Y-79999463D01*
X179184180Y-79940498D01*
X179064482Y-79904188D01*
X178940000Y-79891928D01*
X176940000Y-79891928D01*
X176815518Y-79904188D01*
X176695820Y-79940498D01*
X176585506Y-79999463D01*
X176488815Y-80078815D01*
X176409463Y-80175506D01*
X176350498Y-80285820D01*
X176314188Y-80405518D01*
X176301928Y-80530000D01*
X175578072Y-80530000D01*
X175565812Y-80405518D01*
X175529502Y-80285820D01*
X175470537Y-80175506D01*
X175391185Y-80078815D01*
X175294494Y-79999463D01*
X175184180Y-79940498D01*
X175064482Y-79904188D01*
X174940000Y-79891928D01*
X172940000Y-79891928D01*
X172815518Y-79904188D01*
X172695820Y-79940498D01*
X172585506Y-79999463D01*
X172488815Y-80078815D01*
X172409463Y-80175506D01*
X172350498Y-80285820D01*
X172314188Y-80405518D01*
X172305375Y-80495000D01*
X171028072Y-80495000D01*
X171028072Y-79840000D01*
X171015812Y-79715518D01*
X170979502Y-79595820D01*
X170920537Y-79485506D01*
X170841185Y-79388815D01*
X170744494Y-79309463D01*
X170634180Y-79250498D01*
X170514482Y-79214188D01*
X170390000Y-79201928D01*
X169203506Y-79201928D01*
X168881534Y-78879956D01*
X168853817Y-78846183D01*
X168846283Y-78840000D01*
X168853817Y-78833817D01*
X168881534Y-78800044D01*
X169203506Y-78478072D01*
X170390000Y-78478072D01*
X170514482Y-78465812D01*
X170634180Y-78429502D01*
X170744494Y-78370537D01*
X170841185Y-78291185D01*
X170920537Y-78194494D01*
X170979502Y-78084180D01*
X171015812Y-77964482D01*
X171028072Y-77840000D01*
X171028072Y-77185000D01*
X172305375Y-77185000D01*
X172314188Y-77274482D01*
X172350498Y-77394180D01*
X172409463Y-77504494D01*
X172488815Y-77601185D01*
X172585506Y-77680537D01*
X172695820Y-77739502D01*
X172815518Y-77775812D01*
X172940000Y-77788072D01*
X174940000Y-77788072D01*
X175064482Y-77775812D01*
X175184180Y-77739502D01*
X175294494Y-77680537D01*
X175391185Y-77601185D01*
X175470537Y-77504494D01*
X175529502Y-77394180D01*
X175565812Y-77274482D01*
X175578072Y-77150000D01*
X175578072Y-75450000D01*
X176301928Y-75450000D01*
X176301928Y-77150000D01*
X176314188Y-77274482D01*
X176350498Y-77394180D01*
X176409463Y-77504494D01*
X176488815Y-77601185D01*
X176585506Y-77680537D01*
X176695820Y-77739502D01*
X176815518Y-77775812D01*
X176940000Y-77788072D01*
X178940000Y-77788072D01*
X179064482Y-77775812D01*
X179184180Y-77739502D01*
X179294494Y-77680537D01*
X179391185Y-77601185D01*
X179470537Y-77504494D01*
X179529502Y-77394180D01*
X179565812Y-77274482D01*
X179574625Y-77185000D01*
X182941928Y-77185000D01*
X182941928Y-77550000D01*
X182954188Y-77674482D01*
X182990498Y-77794180D01*
X183049463Y-77904494D01*
X183128815Y-78001185D01*
X183225506Y-78080537D01*
X183335820Y-78139502D01*
X183455518Y-78175812D01*
X183580000Y-78188072D01*
X186080000Y-78188072D01*
X186204482Y-78175812D01*
X186324180Y-78139502D01*
X186434494Y-78080537D01*
X186531185Y-78001185D01*
X186610537Y-77904494D01*
X186669502Y-77794180D01*
X186705812Y-77674482D01*
X186718072Y-77550000D01*
X186718072Y-75050000D01*
X186705812Y-74925518D01*
X186669502Y-74805820D01*
X186610537Y-74695506D01*
X186531185Y-74598815D01*
X186434494Y-74519463D01*
X186324180Y-74460498D01*
X186204482Y-74424188D01*
X186080000Y-74411928D01*
X183580000Y-74411928D01*
X183455518Y-74424188D01*
X183335820Y-74460498D01*
X183225506Y-74519463D01*
X183128815Y-74598815D01*
X183049463Y-74695506D01*
X182990498Y-74805820D01*
X182954188Y-74925518D01*
X182941928Y-75050000D01*
X182941928Y-75415000D01*
X179574625Y-75415000D01*
X179565812Y-75325518D01*
X179529502Y-75205820D01*
X179470537Y-75095506D01*
X179391185Y-74998815D01*
X179294494Y-74919463D01*
X179184180Y-74860498D01*
X179064482Y-74824188D01*
X178940000Y-74811928D01*
X176940000Y-74811928D01*
X176815518Y-74824188D01*
X176695820Y-74860498D01*
X176585506Y-74919463D01*
X176488815Y-74998815D01*
X176409463Y-75095506D01*
X176350498Y-75205820D01*
X176314188Y-75325518D01*
X176301928Y-75450000D01*
X175578072Y-75450000D01*
X175565812Y-75325518D01*
X175529502Y-75205820D01*
X175470537Y-75095506D01*
X175391185Y-74998815D01*
X175294494Y-74919463D01*
X175184180Y-74860498D01*
X175064482Y-74824188D01*
X174940000Y-74811928D01*
X172940000Y-74811928D01*
X172815518Y-74824188D01*
X172695820Y-74860498D01*
X172585506Y-74919463D01*
X172488815Y-74998815D01*
X172409463Y-75095506D01*
X172350498Y-75205820D01*
X172314188Y-75325518D01*
X172305375Y-75415000D01*
X170862674Y-75415000D01*
X170841185Y-75388815D01*
X170744494Y-75309463D01*
X170634180Y-75250498D01*
X170514482Y-75214188D01*
X170390000Y-75201928D01*
X168790000Y-75201928D01*
X168665518Y-75214188D01*
X168545820Y-75250498D01*
X168435506Y-75309463D01*
X168338815Y-75388815D01*
X168259463Y-75485506D01*
X168200498Y-75595820D01*
X168164188Y-75715518D01*
X168151928Y-75840000D01*
X168151928Y-77026494D01*
X167858422Y-77320000D01*
X163509701Y-77320000D01*
X163518072Y-77235000D01*
X163515000Y-77220750D01*
X163356250Y-77062000D01*
X162032000Y-77062000D01*
X162032000Y-77082000D01*
X161778000Y-77082000D01*
X161778000Y-77062000D01*
X160453750Y-77062000D01*
X160295000Y-77220750D01*
X160291928Y-77235000D01*
X160304188Y-77359482D01*
X160340498Y-77479180D01*
X160399463Y-77589494D01*
X160423730Y-77619064D01*
X160351916Y-77753418D01*
X160307071Y-77901255D01*
X160291928Y-78055000D01*
X160291928Y-78355000D01*
X160307071Y-78508745D01*
X160351916Y-78656582D01*
X160424742Y-78792829D01*
X160463454Y-78840000D01*
X160424742Y-78887171D01*
X160351916Y-79023418D01*
X160307071Y-79171255D01*
X160291928Y-79325000D01*
X160291928Y-79625000D01*
X160307071Y-79778745D01*
X160351916Y-79926582D01*
X160424742Y-80062829D01*
X160463454Y-80110000D01*
X160424742Y-80157171D01*
X160351916Y-80293418D01*
X160315000Y-80415116D01*
X160315000Y-80153469D01*
X160319281Y-80110000D01*
X160315000Y-80066531D01*
X160315000Y-80066523D01*
X160302195Y-79936510D01*
X160298222Y-79923412D01*
X160251589Y-79769686D01*
X160169411Y-79615941D01*
X160086532Y-79514953D01*
X160086530Y-79514951D01*
X160058817Y-79481183D01*
X160025049Y-79453470D01*
X159451534Y-78879956D01*
X159423817Y-78846183D01*
X159289059Y-78735589D01*
X159135313Y-78653411D01*
X158968490Y-78602805D01*
X158838477Y-78590000D01*
X158838469Y-78590000D01*
X158795000Y-78585719D01*
X158751531Y-78590000D01*
X158528281Y-78590000D01*
X158552929Y-78508745D01*
X158568072Y-78355000D01*
X158568072Y-78055000D01*
X158552929Y-77901255D01*
X158508084Y-77753418D01*
X158435258Y-77617171D01*
X158396546Y-77570000D01*
X158435258Y-77522829D01*
X158508084Y-77386582D01*
X158552929Y-77238745D01*
X158568072Y-77085000D01*
X158568072Y-76785000D01*
X158553298Y-76635000D01*
X160291928Y-76635000D01*
X160295000Y-76649250D01*
X160453750Y-76808000D01*
X161778000Y-76808000D01*
X161778000Y-76158750D01*
X162032000Y-76158750D01*
X162032000Y-76808000D01*
X163356250Y-76808000D01*
X163515000Y-76649250D01*
X163518072Y-76635000D01*
X163505812Y-76510518D01*
X163469502Y-76390820D01*
X163410537Y-76280506D01*
X163331185Y-76183815D01*
X163234494Y-76104463D01*
X163124180Y-76045498D01*
X163004482Y-76009188D01*
X162880000Y-75996928D01*
X162190750Y-76000000D01*
X162032000Y-76158750D01*
X161778000Y-76158750D01*
X161619250Y-76000000D01*
X160930000Y-75996928D01*
X160805518Y-76009188D01*
X160685820Y-76045498D01*
X160575506Y-76104463D01*
X160478815Y-76183815D01*
X160399463Y-76280506D01*
X160340498Y-76390820D01*
X160304188Y-76510518D01*
X160291928Y-76635000D01*
X158553298Y-76635000D01*
X158552929Y-76631255D01*
X158508084Y-76483418D01*
X158435258Y-76347171D01*
X158337251Y-76227749D01*
X158217829Y-76129742D01*
X158081582Y-76056916D01*
X157933745Y-76012071D01*
X157780000Y-75996928D01*
X156130000Y-75996928D01*
X155976255Y-76012071D01*
X155828418Y-76056916D01*
X155692171Y-76129742D01*
X155572749Y-76227749D01*
X155474742Y-76347171D01*
X155401916Y-76483418D01*
X155357071Y-76631255D01*
X155341928Y-76785000D01*
X155341928Y-77085000D01*
X155357071Y-77238745D01*
X155381719Y-77320000D01*
X151218469Y-77320000D01*
X151175000Y-77315719D01*
X151131531Y-77320000D01*
X151131523Y-77320000D01*
X151001510Y-77332805D01*
X150834687Y-77383411D01*
X150767238Y-77419463D01*
X150680941Y-77465589D01*
X150579953Y-77548468D01*
X150579951Y-77548470D01*
X150546183Y-77576183D01*
X150518470Y-77609951D01*
X148674951Y-79453471D01*
X148641184Y-79481183D01*
X148613471Y-79514951D01*
X148613468Y-79514954D01*
X148530590Y-79615941D01*
X148448412Y-79769687D01*
X148397805Y-79936510D01*
X148380719Y-80110000D01*
X148385001Y-80153479D01*
X148385000Y-86093421D01*
X147633422Y-86845000D01*
X140423465Y-86845000D01*
X140379999Y-86840719D01*
X140336533Y-86845000D01*
X140336523Y-86845000D01*
X140206510Y-86857805D01*
X140039687Y-86908411D01*
X139885941Y-86990589D01*
X139885939Y-86990590D01*
X139885940Y-86990590D01*
X139784953Y-87073468D01*
X139784951Y-87073470D01*
X139751183Y-87101183D01*
X139723470Y-87134951D01*
X137455000Y-89403422D01*
X137455000Y-88096578D01*
X139476579Y-86075000D01*
X142551928Y-86075000D01*
X142551928Y-86142500D01*
X142564188Y-86266982D01*
X142600498Y-86386680D01*
X142659463Y-86496994D01*
X142738815Y-86593685D01*
X142835506Y-86673037D01*
X142945820Y-86732002D01*
X143065518Y-86768312D01*
X143190000Y-86780572D01*
X145190000Y-86780572D01*
X145314482Y-86768312D01*
X145434180Y-86732002D01*
X145544494Y-86673037D01*
X145641185Y-86593685D01*
X145720537Y-86496994D01*
X145779502Y-86386680D01*
X145815812Y-86266982D01*
X145828072Y-86142500D01*
X145828072Y-84237500D01*
X145815812Y-84113018D01*
X145779502Y-83993320D01*
X145720537Y-83883006D01*
X145641185Y-83786315D01*
X145544494Y-83706963D01*
X145460554Y-83662095D01*
X145563845Y-83536235D01*
X145567896Y-83528655D01*
X145633490Y-83522195D01*
X145800313Y-83471589D01*
X145954059Y-83389411D01*
X146088817Y-83278817D01*
X146116534Y-83245044D01*
X147325050Y-82036529D01*
X147358817Y-82008817D01*
X147391645Y-81968817D01*
X147469410Y-81874060D01*
X147469411Y-81874059D01*
X147551589Y-81720313D01*
X147602195Y-81553490D01*
X147615000Y-81423477D01*
X147615000Y-81423467D01*
X147619281Y-81380001D01*
X147615000Y-81336535D01*
X147615000Y-60156578D01*
X149556579Y-58215000D01*
X183156269Y-58215000D01*
X183159534Y-58222882D01*
X183365825Y-58531618D01*
X183628382Y-58794175D01*
X183937118Y-59000466D01*
X184280166Y-59142561D01*
X184644344Y-59215000D01*
X185015656Y-59215000D01*
X185379834Y-59142561D01*
X185722882Y-59000466D01*
X186031618Y-58794175D01*
X186294175Y-58531618D01*
X186500466Y-58222882D01*
X186642561Y-57879834D01*
X186715000Y-57515656D01*
X186715000Y-57144344D01*
X186642561Y-56780166D01*
X186500466Y-56437118D01*
X186294175Y-56128382D01*
X186031618Y-55865825D01*
X185722882Y-55659534D01*
X185379834Y-55517439D01*
X185015656Y-55445000D01*
X184644344Y-55445000D01*
X184280166Y-55517439D01*
X183937118Y-55659534D01*
X183628382Y-55865825D01*
X183365825Y-56128382D01*
X183159534Y-56437118D01*
X183156269Y-56445000D01*
X149233465Y-56445000D01*
X149189999Y-56440719D01*
X149146533Y-56445000D01*
X149146523Y-56445000D01*
X149016510Y-56457805D01*
X148849687Y-56508411D01*
X148695941Y-56590589D01*
X148695939Y-56590590D01*
X148695940Y-56590590D01*
X148594953Y-56673468D01*
X148594951Y-56673470D01*
X148561183Y-56701183D01*
X148533470Y-56734951D01*
X146134951Y-59133471D01*
X146101184Y-59161183D01*
X146073471Y-59194951D01*
X146073468Y-59194954D01*
X145990590Y-59295941D01*
X145908412Y-59449687D01*
X145857805Y-59616510D01*
X145840719Y-59790000D01*
X145845001Y-59833479D01*
X145845000Y-81013421D01*
X145349492Y-81508930D01*
X145186101Y-81374837D01*
X145371315Y-81219437D01*
X145565969Y-80976923D01*
X145709571Y-80701094D01*
X145780563Y-80482980D01*
X145660594Y-80237000D01*
X144317000Y-80237000D01*
X144317000Y-80257000D01*
X144063000Y-80257000D01*
X144063000Y-80237000D01*
X142719406Y-80237000D01*
X142599437Y-80482980D01*
X142670429Y-80701094D01*
X142814031Y-80976923D01*
X143008685Y-81219437D01*
X143193899Y-81374837D01*
X143014537Y-81522037D01*
X142816155Y-81763765D01*
X142668745Y-82039551D01*
X142577970Y-82338796D01*
X142547319Y-82650000D01*
X142577970Y-82961204D01*
X142668745Y-83260449D01*
X142816155Y-83536235D01*
X142919446Y-83662095D01*
X142835506Y-83706963D01*
X142738815Y-83786315D01*
X142659463Y-83883006D01*
X142600498Y-83993320D01*
X142564188Y-84113018D01*
X142551928Y-84237500D01*
X142551928Y-84305000D01*
X139153465Y-84305000D01*
X139109999Y-84300719D01*
X139066533Y-84305000D01*
X139066523Y-84305000D01*
X138936510Y-84317805D01*
X138769687Y-84368411D01*
X138615941Y-84450589D01*
X138615939Y-84450590D01*
X138615940Y-84450590D01*
X138514953Y-84533468D01*
X138514951Y-84533470D01*
X138481183Y-84561183D01*
X138453470Y-84594951D01*
X135974951Y-87073471D01*
X135941184Y-87101183D01*
X135913471Y-87134951D01*
X135913468Y-87134954D01*
X135830590Y-87235941D01*
X135748412Y-87389687D01*
X135697805Y-87556510D01*
X135680719Y-87730000D01*
X135685001Y-87773476D01*
X135685001Y-98561928D01*
X134634999Y-98561928D01*
X134634999Y-95113465D01*
X134639280Y-95069998D01*
X134634999Y-95026532D01*
X134634999Y-95026522D01*
X134622194Y-94896509D01*
X134571588Y-94729686D01*
X134489410Y-94575940D01*
X134455039Y-94534059D01*
X134406531Y-94474952D01*
X134406529Y-94474950D01*
X134378816Y-94441182D01*
X134345048Y-94413469D01*
X133738966Y-93807387D01*
X133928061Y-93845000D01*
X134131939Y-93845000D01*
X134331898Y-93805226D01*
X134520256Y-93727205D01*
X134689774Y-93613937D01*
X134833937Y-93469774D01*
X134947205Y-93300256D01*
X135025226Y-93111898D01*
X135065000Y-92911939D01*
X135065000Y-92708061D01*
X135025226Y-92508102D01*
X134947205Y-92319744D01*
X134833937Y-92150226D01*
X134689774Y-92006063D01*
X134520256Y-91892795D01*
X134331898Y-91814774D01*
X134275044Y-91803465D01*
X133376534Y-90904956D01*
X133348817Y-90871183D01*
X133214059Y-90760589D01*
X133060313Y-90678411D01*
X132893490Y-90627805D01*
X132763477Y-90615000D01*
X132763469Y-90615000D01*
X132720000Y-90610719D01*
X132676531Y-90615000D01*
X130794656Y-90615000D01*
X130753475Y-90553368D01*
X130546632Y-90346525D01*
X130364466Y-90224805D01*
X130481355Y-90155178D01*
X130697588Y-89960269D01*
X130871641Y-89726920D01*
X130996825Y-89464099D01*
X131041476Y-89316890D01*
X130920155Y-89087000D01*
X129727000Y-89087000D01*
X129727000Y-89107000D01*
X129473000Y-89107000D01*
X129473000Y-89087000D01*
X128279845Y-89087000D01*
X128158524Y-89316890D01*
X128203175Y-89464099D01*
X128328359Y-89726920D01*
X128502412Y-89960269D01*
X128718645Y-90155178D01*
X128835534Y-90224805D01*
X128653368Y-90346525D01*
X128446525Y-90553368D01*
X128284010Y-90796589D01*
X128172068Y-91066842D01*
X128115000Y-91353740D01*
X128115000Y-91646260D01*
X128172068Y-91933158D01*
X128284010Y-92203411D01*
X128446525Y-92446632D01*
X128653368Y-92653475D01*
X128827760Y-92770000D01*
X128653368Y-92886525D01*
X128446525Y-93093368D01*
X128284010Y-93336589D01*
X128172068Y-93606842D01*
X128115000Y-93893740D01*
X128115000Y-94186260D01*
X128172068Y-94473158D01*
X128284010Y-94743411D01*
X128446525Y-94986632D01*
X128653368Y-95193475D01*
X128827760Y-95310000D01*
X128653368Y-95426525D01*
X128446525Y-95633368D01*
X128284010Y-95876589D01*
X128172068Y-96146842D01*
X128115000Y-96433740D01*
X128115000Y-96726260D01*
X128172068Y-97013158D01*
X128284010Y-97283411D01*
X128446525Y-97526632D01*
X128653368Y-97733475D01*
X128827760Y-97850000D01*
X128653368Y-97966525D01*
X128446525Y-98173368D01*
X128405344Y-98235000D01*
X128086579Y-98235000D01*
X126025000Y-96173422D01*
X126025000Y-85556578D01*
X128198465Y-83383114D01*
X128172068Y-83446842D01*
X128115000Y-83733740D01*
X128115000Y-84026260D01*
X128172068Y-84313158D01*
X128284010Y-84583411D01*
X128446525Y-84826632D01*
X128653368Y-85033475D01*
X128827760Y-85150000D01*
X128653368Y-85266525D01*
X128446525Y-85473368D01*
X128284010Y-85716589D01*
X128172068Y-85986842D01*
X128115000Y-86273740D01*
X128115000Y-86566260D01*
X128172068Y-86853158D01*
X128284010Y-87123411D01*
X128446525Y-87366632D01*
X128653368Y-87573475D01*
X128835534Y-87695195D01*
X128718645Y-87764822D01*
X128502412Y-87959731D01*
X128328359Y-88193080D01*
X128203175Y-88455901D01*
X128158524Y-88603110D01*
X128279845Y-88833000D01*
X129473000Y-88833000D01*
X129473000Y-88813000D01*
X129727000Y-88813000D01*
X129727000Y-88833000D01*
X130920155Y-88833000D01*
X131041476Y-88603110D01*
X130996825Y-88455901D01*
X130871641Y-88193080D01*
X130697588Y-87959731D01*
X130481355Y-87764822D01*
X130364466Y-87695195D01*
X130546632Y-87573475D01*
X130753475Y-87366632D01*
X130794656Y-87305000D01*
X131083422Y-87305000D01*
X133023465Y-89245044D01*
X133034774Y-89301898D01*
X133112795Y-89490256D01*
X133226063Y-89659774D01*
X133370226Y-89803937D01*
X133539744Y-89917205D01*
X133728102Y-89995226D01*
X133928061Y-90035000D01*
X134131939Y-90035000D01*
X134331898Y-89995226D01*
X134520256Y-89917205D01*
X134689774Y-89803937D01*
X134833937Y-89659774D01*
X134947205Y-89490256D01*
X135025226Y-89301898D01*
X135065000Y-89101939D01*
X135065000Y-88898061D01*
X135025226Y-88698102D01*
X134947205Y-88509744D01*
X134833937Y-88340226D01*
X134689774Y-88196063D01*
X134520256Y-88082795D01*
X134331898Y-88004774D01*
X134275044Y-87993465D01*
X132106534Y-85824956D01*
X132078817Y-85791183D01*
X131944059Y-85680589D01*
X131790313Y-85598411D01*
X131623490Y-85547805D01*
X131493477Y-85535000D01*
X131493469Y-85535000D01*
X131450000Y-85530719D01*
X131406531Y-85535000D01*
X130794656Y-85535000D01*
X130753475Y-85473368D01*
X130546632Y-85266525D01*
X130372240Y-85150000D01*
X130546632Y-85033475D01*
X130753475Y-84826632D01*
X130794656Y-84765000D01*
X132353422Y-84765000D01*
X133023465Y-85435044D01*
X133034774Y-85491898D01*
X133112795Y-85680256D01*
X133226063Y-85849774D01*
X133370226Y-85993937D01*
X133539744Y-86107205D01*
X133728102Y-86185226D01*
X133928061Y-86225000D01*
X134131939Y-86225000D01*
X134331898Y-86185226D01*
X134520256Y-86107205D01*
X134689774Y-85993937D01*
X134833937Y-85849774D01*
X134947205Y-85680256D01*
X135025226Y-85491898D01*
X135065000Y-85291939D01*
X135065000Y-85088061D01*
X135025226Y-84888102D01*
X134947205Y-84699744D01*
X134833937Y-84530226D01*
X134689774Y-84386063D01*
X134520256Y-84272795D01*
X134331898Y-84194774D01*
X134275044Y-84183465D01*
X133738965Y-83647387D01*
X133928061Y-83685000D01*
X134131939Y-83685000D01*
X134331898Y-83645226D01*
X134520256Y-83567205D01*
X134689774Y-83453937D01*
X134833937Y-83309774D01*
X134947205Y-83140256D01*
X135025226Y-82951898D01*
X135065000Y-82751939D01*
X135065000Y-82548061D01*
X135025226Y-82348102D01*
X134947205Y-82159744D01*
X134833937Y-81990226D01*
X134689774Y-81846063D01*
X134520256Y-81732795D01*
X134331898Y-81654774D01*
X134275044Y-81643465D01*
X133376532Y-80744954D01*
X133348817Y-80711183D01*
X133214059Y-80600589D01*
X133060313Y-80518411D01*
X132893490Y-80467805D01*
X132763477Y-80455000D01*
X132763469Y-80455000D01*
X132720000Y-80450719D01*
X132676531Y-80455000D01*
X131736578Y-80455000D01*
X132454558Y-79737020D01*
X142599437Y-79737020D01*
X142719406Y-79983000D01*
X144063000Y-79983000D01*
X144063000Y-78684430D01*
X144317000Y-78684430D01*
X144317000Y-79983000D01*
X145660594Y-79983000D01*
X145780563Y-79737020D01*
X145709571Y-79518906D01*
X145565969Y-79243077D01*
X145371315Y-79000563D01*
X145133089Y-78800684D01*
X144860446Y-78651121D01*
X144563863Y-78557622D01*
X144317000Y-78684430D01*
X144063000Y-78684430D01*
X143816137Y-78557622D01*
X143519554Y-78651121D01*
X143246911Y-78800684D01*
X143008685Y-79000563D01*
X142814031Y-79243077D01*
X142670429Y-79518906D01*
X142599437Y-79737020D01*
X132454558Y-79737020D01*
X136261532Y-75930047D01*
X136261537Y-75930041D01*
X136713167Y-75478411D01*
X136955001Y-75236578D01*
X136955000Y-75761545D01*
X136922795Y-75809744D01*
X136844774Y-75998102D01*
X136805000Y-76198061D01*
X136805000Y-76401939D01*
X136844774Y-76601898D01*
X136922795Y-76790256D01*
X137036063Y-76959774D01*
X137180226Y-77103937D01*
X137349744Y-77217205D01*
X137538102Y-77295226D01*
X137738061Y-77335000D01*
X137941939Y-77335000D01*
X138141898Y-77295226D01*
X138330256Y-77217205D01*
X138499774Y-77103937D01*
X138643937Y-76959774D01*
X138757205Y-76790256D01*
X138835226Y-76601898D01*
X138875000Y-76401939D01*
X138875000Y-76198061D01*
X138835226Y-75998102D01*
X138757205Y-75809744D01*
X138725000Y-75761546D01*
X138725000Y-75396578D01*
X140746579Y-73375000D01*
X142551928Y-73375000D01*
X142551928Y-73442500D01*
X142564188Y-73566982D01*
X142600498Y-73686680D01*
X142659463Y-73796994D01*
X142738815Y-73893685D01*
X142835506Y-73973037D01*
X142945820Y-74032002D01*
X143065518Y-74068312D01*
X143190000Y-74080572D01*
X145190000Y-74080572D01*
X145314482Y-74068312D01*
X145434180Y-74032002D01*
X145544494Y-73973037D01*
X145641185Y-73893685D01*
X145720537Y-73796994D01*
X145779502Y-73686680D01*
X145815812Y-73566982D01*
X145828072Y-73442500D01*
X145828072Y-71537500D01*
X145815812Y-71413018D01*
X145779502Y-71293320D01*
X145720537Y-71183006D01*
X145641185Y-71086315D01*
X145544494Y-71006963D01*
X145460554Y-70962095D01*
X145563845Y-70836235D01*
X145711255Y-70560449D01*
X145802030Y-70261204D01*
X145832681Y-69950000D01*
X145802030Y-69638796D01*
X145711255Y-69339551D01*
X145563845Y-69063765D01*
X145365463Y-68822037D01*
X145192391Y-68680000D01*
X145365463Y-68537963D01*
X145563845Y-68296235D01*
X145711255Y-68020449D01*
X145802030Y-67721204D01*
X145832681Y-67410000D01*
X145802030Y-67098796D01*
X145711255Y-66799551D01*
X145563845Y-66523765D01*
X145365463Y-66282037D01*
X145123735Y-66083655D01*
X145075000Y-66057606D01*
X145075000Y-57616578D01*
X148366579Y-54325000D01*
X185733422Y-54325000D01*
X187755000Y-56346579D01*
X187755001Y-58153420D01*
X185466494Y-60441928D01*
X183580000Y-60441928D01*
X183455518Y-60454188D01*
X183335820Y-60490498D01*
X183225506Y-60549463D01*
X183128815Y-60628815D01*
X183049463Y-60725506D01*
X182990498Y-60835820D01*
X182954188Y-60955518D01*
X182941928Y-61080000D01*
X182941928Y-63580000D01*
X182954188Y-63704482D01*
X182990498Y-63824180D01*
X183049463Y-63934494D01*
X183128815Y-64031185D01*
X183225506Y-64110537D01*
X183335820Y-64169502D01*
X183455518Y-64205812D01*
X183580000Y-64218072D01*
X186080000Y-64218072D01*
X186204482Y-64205812D01*
X186324180Y-64169502D01*
X186434494Y-64110537D01*
X186531185Y-64031185D01*
X186610537Y-63934494D01*
X186669502Y-63824180D01*
X186705812Y-63704482D01*
X186718072Y-63580000D01*
X186718072Y-61693506D01*
X189235049Y-59176530D01*
X189268817Y-59148817D01*
X189379411Y-59014059D01*
X189403810Y-58968411D01*
X189461589Y-58860314D01*
X189512195Y-58693490D01*
X189525000Y-58563477D01*
X189525000Y-58563469D01*
X189529281Y-58520000D01*
X189525000Y-58476531D01*
X189525000Y-56023465D01*
X189529281Y-55979999D01*
X189525000Y-55936533D01*
X189525000Y-55936523D01*
X189512195Y-55806510D01*
X189461589Y-55639687D01*
X189379411Y-55485941D01*
X189268817Y-55351183D01*
X189235050Y-55323471D01*
X186756534Y-52844956D01*
X186728817Y-52811183D01*
X186594059Y-52700589D01*
X186440313Y-52618411D01*
X186273490Y-52567805D01*
X186143477Y-52555000D01*
X186143469Y-52555000D01*
X186100000Y-52550719D01*
X186056531Y-52555000D01*
X148043469Y-52555000D01*
X148000000Y-52550719D01*
X147956531Y-52555000D01*
X147956523Y-52555000D01*
X147826510Y-52567805D01*
X147659686Y-52618411D01*
X147505941Y-52700589D01*
X147404953Y-52783468D01*
X147404951Y-52783470D01*
X147371183Y-52811183D01*
X147343470Y-52844951D01*
X143594951Y-56593470D01*
X143561184Y-56621183D01*
X143533471Y-56654951D01*
X143533468Y-56654954D01*
X143450590Y-56755941D01*
X143368412Y-56909687D01*
X143317805Y-57076510D01*
X143300719Y-57250000D01*
X143305001Y-57293479D01*
X143305000Y-66057606D01*
X143256265Y-66083655D01*
X143014537Y-66282037D01*
X142816155Y-66523765D01*
X142668745Y-66799551D01*
X142577970Y-67098796D01*
X142547319Y-67410000D01*
X142577970Y-67721204D01*
X142668745Y-68020449D01*
X142816155Y-68296235D01*
X143014537Y-68537963D01*
X143187609Y-68680000D01*
X143014537Y-68822037D01*
X142816155Y-69063765D01*
X142815495Y-69065000D01*
X141033466Y-69065000D01*
X140989999Y-69060719D01*
X140946533Y-69065000D01*
X140946523Y-69065000D01*
X140816510Y-69077805D01*
X140649687Y-69128411D01*
X140495941Y-69210589D01*
X140495939Y-69210590D01*
X140495940Y-69210590D01*
X140394953Y-69293468D01*
X140394951Y-69293470D01*
X140361183Y-69321183D01*
X140333470Y-69354951D01*
X135974958Y-73713464D01*
X135974953Y-73713468D01*
X135009958Y-74678464D01*
X135009953Y-74678468D01*
X131015424Y-78672998D01*
X130926252Y-78672998D01*
X131085000Y-78514250D01*
X131088072Y-77950000D01*
X131075812Y-77825518D01*
X131039502Y-77705820D01*
X130980537Y-77595506D01*
X130901185Y-77498815D01*
X130804494Y-77419463D01*
X130694180Y-77360498D01*
X130574482Y-77324188D01*
X130450000Y-77311928D01*
X129885750Y-77315000D01*
X129727000Y-77473750D01*
X129727000Y-78673000D01*
X129747000Y-78673000D01*
X129747000Y-78927000D01*
X129727000Y-78927000D01*
X129727000Y-78947000D01*
X129473000Y-78947000D01*
X129473000Y-78927000D01*
X128273750Y-78927000D01*
X128115000Y-79085750D01*
X128111928Y-79650000D01*
X128124188Y-79774482D01*
X128160498Y-79894180D01*
X128219463Y-80004494D01*
X128298815Y-80101185D01*
X128395506Y-80180537D01*
X128505820Y-80239502D01*
X128578380Y-80261513D01*
X128446525Y-80393368D01*
X128284010Y-80636589D01*
X128172414Y-80906007D01*
X124544951Y-84533470D01*
X124511184Y-84561183D01*
X124483471Y-84594951D01*
X124483468Y-84594954D01*
X124400590Y-84695941D01*
X124318412Y-84849687D01*
X124267805Y-85016510D01*
X124250719Y-85190000D01*
X123260000Y-85190000D01*
X123260000Y-77950000D01*
X128111928Y-77950000D01*
X128115000Y-78514250D01*
X128273750Y-78673000D01*
X129473000Y-78673000D01*
X129473000Y-77473750D01*
X129314250Y-77315000D01*
X128750000Y-77311928D01*
X128625518Y-77324188D01*
X128505820Y-77360498D01*
X128395506Y-77419463D01*
X128298815Y-77498815D01*
X128219463Y-77595506D01*
X128160498Y-77705820D01*
X128124188Y-77825518D01*
X128111928Y-77950000D01*
X123260000Y-77950000D01*
X123260000Y-44829392D01*
X123292817Y-44461682D01*
X124165000Y-44461682D01*
X124165000Y-45138318D01*
X124297006Y-45801952D01*
X124555943Y-46427082D01*
X124931862Y-46989685D01*
X125410315Y-47468138D01*
X125972918Y-47844057D01*
X126598048Y-48102994D01*
X127261682Y-48235000D01*
X127938318Y-48235000D01*
X128601952Y-48102994D01*
X129227082Y-47844057D01*
X129789685Y-47468138D01*
X130268138Y-46989685D01*
X130644057Y-46427082D01*
X130902994Y-45801952D01*
X131035000Y-45138318D01*
X131035000Y-44461682D01*
X184165000Y-44461682D01*
X184165000Y-45138318D01*
X184297006Y-45801952D01*
X184555943Y-46427082D01*
X184931862Y-46989685D01*
X185410315Y-47468138D01*
X185972918Y-47844057D01*
X186598048Y-48102994D01*
X187261682Y-48235000D01*
X187938318Y-48235000D01*
X188601952Y-48102994D01*
X189227082Y-47844057D01*
X189789685Y-47468138D01*
X190268138Y-46989685D01*
X190644057Y-46427082D01*
X190902994Y-45801952D01*
X191035000Y-45138318D01*
X191035000Y-44461682D01*
X190902994Y-43798048D01*
X190644057Y-43172918D01*
X190268138Y-42610315D01*
X189789685Y-42131862D01*
X189227082Y-41755943D01*
X188601952Y-41497006D01*
X187938318Y-41365000D01*
X187261682Y-41365000D01*
X186598048Y-41497006D01*
X185972918Y-41755943D01*
X185410315Y-42131862D01*
X184931862Y-42610315D01*
X184555943Y-43172918D01*
X184297006Y-43798048D01*
X184165000Y-44461682D01*
X131035000Y-44461682D01*
X130902994Y-43798048D01*
X130644057Y-43172918D01*
X130268138Y-42610315D01*
X129789685Y-42131862D01*
X129227082Y-41755943D01*
X128601952Y-41497006D01*
X127938318Y-41365000D01*
X127261682Y-41365000D01*
X126598048Y-41497006D01*
X125972918Y-41755943D01*
X125410315Y-42131862D01*
X124931862Y-42610315D01*
X124555943Y-43172918D01*
X124297006Y-43798048D01*
X124165000Y-44461682D01*
X123292817Y-44461682D01*
X123331173Y-44031917D01*
X123534656Y-43288109D01*
X123866638Y-42592095D01*
X124316626Y-41965870D01*
X124870403Y-41429223D01*
X125510451Y-40999129D01*
X125811448Y-40867000D01*
X189389356Y-40867000D01*
X189807905Y-41066638D01*
G37*
%TD.AperFunction*%
D24*
X155804188Y-84894482D02*
X155840498Y-85014180D01*
X155899463Y-85124494D01*
X155978815Y-85221185D01*
X156075506Y-85300537D01*
X156185820Y-85359502D01*
X156305518Y-85395812D01*
X156430000Y-85408072D01*
X158430000Y-85408072D01*
X158545000Y-85396746D01*
X158545000Y-87363421D01*
X156834951Y-89073471D01*
X156801184Y-89101183D01*
X156773471Y-89134951D01*
X156773468Y-89134954D01*
X156690590Y-89235941D01*
X156608412Y-89389687D01*
X156557805Y-89556510D01*
X156540719Y-89730000D01*
X156545001Y-89773479D01*
X156545001Y-90051928D01*
X156430000Y-90051928D01*
X156305518Y-90064188D01*
X156185820Y-90100498D01*
X156075506Y-90159463D01*
X155978815Y-90238815D01*
X155899463Y-90335506D01*
X155840498Y-90445820D01*
X155804188Y-90565518D01*
X155791928Y-90690000D01*
X155791928Y-92390000D01*
X155804188Y-92514482D01*
X155840498Y-92634180D01*
X155899463Y-92744494D01*
X155978815Y-92841185D01*
X156075506Y-92920537D01*
X156185820Y-92979502D01*
X156305518Y-93015812D01*
X156430000Y-93028072D01*
X158430000Y-93028072D01*
X158554482Y-93015812D01*
X158674180Y-92979502D01*
X158784494Y-92920537D01*
X158881185Y-92841185D01*
X158960537Y-92744494D01*
X159019502Y-92634180D01*
X159055812Y-92514482D01*
X159068072Y-92390000D01*
X159068072Y-90690000D01*
X159055812Y-90565518D01*
X159019502Y-90445820D01*
X158960537Y-90335506D01*
X158881185Y-90238815D01*
X158784494Y-90159463D01*
X158674180Y-90100498D01*
X158554482Y-90064188D01*
X158430000Y-90051928D01*
X158359650Y-90051928D01*
X160025050Y-88386529D01*
X160058817Y-88358817D01*
X160169411Y-88224059D01*
X160251589Y-88070313D01*
X160302195Y-87903490D01*
X160315000Y-87773477D01*
X160315000Y-87773467D01*
X160319281Y-87730001D01*
X160315000Y-87686535D01*
X160315000Y-85396746D01*
X160430000Y-85408072D01*
X160545001Y-85408072D01*
X160545000Y-90051928D01*
X160430000Y-90051928D01*
X160305518Y-90064188D01*
X160185820Y-90100498D01*
X160075506Y-90159463D01*
X159978815Y-90238815D01*
X159899463Y-90335506D01*
X159840498Y-90445820D01*
X159804188Y-90565518D01*
X159791928Y-90690000D01*
X159791928Y-92390000D01*
X159804188Y-92514482D01*
X159840498Y-92634180D01*
X159899463Y-92744494D01*
X159978815Y-92841185D01*
X160075506Y-92920537D01*
X160185820Y-92979502D01*
X160305518Y-93015812D01*
X160430000Y-93028072D01*
X162430000Y-93028072D01*
X162554482Y-93015812D01*
X162674180Y-92979502D01*
X162784494Y-92920537D01*
X162881185Y-92841185D01*
X162960537Y-92744494D01*
X163019502Y-92634180D01*
X163055812Y-92514482D01*
X163064625Y-92425000D01*
X163413422Y-92425000D01*
X171031928Y-100043507D01*
X171031928Y-100816493D01*
X168493422Y-103355000D01*
X158203465Y-103355000D01*
X158159999Y-103350719D01*
X158116533Y-103355000D01*
X158116523Y-103355000D01*
X157986510Y-103367805D01*
X157819687Y-103418411D01*
X157665941Y-103500589D01*
X157665939Y-103500590D01*
X157665940Y-103500590D01*
X157564953Y-103583468D01*
X157564951Y-103583470D01*
X157531183Y-103611183D01*
X157503470Y-103644951D01*
X155161494Y-105986928D01*
X153645000Y-105986928D01*
X153520518Y-105999188D01*
X153400820Y-106035498D01*
X153290506Y-106094463D01*
X153193815Y-106173815D01*
X153114463Y-106270506D01*
X153055498Y-106380820D01*
X153019188Y-106500518D01*
X153006928Y-106625000D01*
X153006928Y-106915000D01*
X151494793Y-106915000D01*
X151354637Y-106705241D01*
X151154759Y-106505363D01*
X150922241Y-106350000D01*
X151154759Y-106194637D01*
X151354637Y-105994759D01*
X151511680Y-105759727D01*
X151619853Y-105498574D01*
X151675000Y-105221335D01*
X151675000Y-104938665D01*
X151619853Y-104661426D01*
X151511680Y-104400273D01*
X151354637Y-104165241D01*
X151154759Y-103965363D01*
X150919727Y-103808320D01*
X150909135Y-103803933D01*
X151095131Y-103692385D01*
X151303519Y-103503414D01*
X151471037Y-103277420D01*
X151591246Y-103023087D01*
X151631904Y-102889039D01*
X151509915Y-102667000D01*
X150367000Y-102667000D01*
X150367000Y-102687000D01*
X150113000Y-102687000D01*
X150113000Y-102667000D01*
X148970085Y-102667000D01*
X148848096Y-102889039D01*
X148888754Y-103023087D01*
X149008963Y-103277420D01*
X149176481Y-103503414D01*
X149384869Y-103692385D01*
X149570865Y-103803933D01*
X149560273Y-103808320D01*
X149325241Y-103965363D01*
X149125363Y-104165241D01*
X148968320Y-104400273D01*
X148860147Y-104661426D01*
X148805000Y-104938665D01*
X148805000Y-105221335D01*
X148860147Y-105498574D01*
X148968320Y-105759727D01*
X149125363Y-105994759D01*
X149325241Y-106194637D01*
X149557759Y-106350000D01*
X149325241Y-106505363D01*
X149125363Y-106705241D01*
X148968320Y-106940273D01*
X148860147Y-107201426D01*
X148805000Y-107478665D01*
X148805000Y-107761335D01*
X148860147Y-108038574D01*
X148968320Y-108299727D01*
X149125363Y-108534759D01*
X149325241Y-108734637D01*
X149557759Y-108890000D01*
X149325241Y-109045363D01*
X149125363Y-109245241D01*
X148968320Y-109480273D01*
X148860147Y-109741426D01*
X148805000Y-110018665D01*
X148805000Y-110301335D01*
X148860147Y-110578574D01*
X148968320Y-110839727D01*
X149125363Y-111074759D01*
X149325241Y-111274637D01*
X149557759Y-111430000D01*
X149325241Y-111585363D01*
X149125363Y-111785241D01*
X148968320Y-112020273D01*
X148860147Y-112281426D01*
X148805000Y-112558665D01*
X148805000Y-112841335D01*
X148860147Y-113118574D01*
X148968320Y-113379727D01*
X149125363Y-113614759D01*
X149325241Y-113814637D01*
X149557759Y-113970000D01*
X149325241Y-114125363D01*
X149151091Y-114299513D01*
X147615000Y-112763422D01*
X147615000Y-99858665D01*
X148805000Y-99858665D01*
X148805000Y-100141335D01*
X148860147Y-100418574D01*
X148968320Y-100679727D01*
X149125363Y-100914759D01*
X149325241Y-101114637D01*
X149560273Y-101271680D01*
X149570865Y-101276067D01*
X149384869Y-101387615D01*
X149176481Y-101576586D01*
X149008963Y-101802580D01*
X148888754Y-102056913D01*
X148848096Y-102190961D01*
X148970085Y-102413000D01*
X150113000Y-102413000D01*
X150113000Y-102393000D01*
X150367000Y-102393000D01*
X150367000Y-102413000D01*
X151509915Y-102413000D01*
X151631904Y-102190961D01*
X151591246Y-102056913D01*
X151471037Y-101802580D01*
X151303519Y-101576586D01*
X151095131Y-101387615D01*
X150909135Y-101276067D01*
X150919727Y-101271680D01*
X151154759Y-101114637D01*
X151354637Y-100914759D01*
X151511680Y-100679727D01*
X151619853Y-100418574D01*
X151675000Y-100141335D01*
X151675000Y-99885000D01*
X153006928Y-99885000D01*
X153006928Y-100175000D01*
X153019188Y-100299482D01*
X153055498Y-100419180D01*
X153114463Y-100529494D01*
X153193815Y-100626185D01*
X153290506Y-100705537D01*
X153400820Y-100764502D01*
X153520518Y-100800812D01*
X153645000Y-100813072D01*
X156415000Y-100813072D01*
X156539482Y-100800812D01*
X156659180Y-100764502D01*
X156769494Y-100705537D01*
X156866185Y-100626185D01*
X156945537Y-100529494D01*
X157004502Y-100419180D01*
X157040812Y-100299482D01*
X157053072Y-100175000D01*
X158146928Y-100175000D01*
X158159188Y-100299482D01*
X158195498Y-100419180D01*
X158254463Y-100529494D01*
X158333815Y-100626185D01*
X158430506Y-100705537D01*
X158540820Y-100764502D01*
X158660518Y-100800812D01*
X158785000Y-100813072D01*
X159884250Y-100810000D01*
X160043000Y-100651250D01*
X160043000Y-99127000D01*
X160297000Y-99127000D01*
X160297000Y-100651250D01*
X160455750Y-100810000D01*
X161555000Y-100813072D01*
X161679482Y-100800812D01*
X161799180Y-100764502D01*
X161909494Y-100705537D01*
X162006185Y-100626185D01*
X162085537Y-100529494D01*
X162144502Y-100419180D01*
X162180812Y-100299482D01*
X162193072Y-100175000D01*
X162190000Y-99285750D01*
X162031250Y-99127000D01*
X160297000Y-99127000D01*
X160043000Y-99127000D01*
X158308750Y-99127000D01*
X158150000Y-99285750D01*
X158146928Y-100175000D01*
X157053072Y-100175000D01*
X157053072Y-97825000D01*
X158146928Y-97825000D01*
X158150000Y-98714250D01*
X158308750Y-98873000D01*
X160043000Y-98873000D01*
X160043000Y-97348750D01*
X160297000Y-97348750D01*
X160297000Y-98873000D01*
X162031250Y-98873000D01*
X162190000Y-98714250D01*
X162193072Y-97825000D01*
X162180812Y-97700518D01*
X162144502Y-97580820D01*
X162085537Y-97470506D01*
X162006185Y-97373815D01*
X161909494Y-97294463D01*
X161799180Y-97235498D01*
X161679482Y-97199188D01*
X161555000Y-97186928D01*
X160455750Y-97190000D01*
X160297000Y-97348750D01*
X160043000Y-97348750D01*
X159884250Y-97190000D01*
X158785000Y-97186928D01*
X158660518Y-97199188D01*
X158540820Y-97235498D01*
X158430506Y-97294463D01*
X158333815Y-97373815D01*
X158254463Y-97470506D01*
X158195498Y-97580820D01*
X158159188Y-97700518D01*
X158146928Y-97825000D01*
X157053072Y-97825000D01*
X157040812Y-97700518D01*
X157004502Y-97580820D01*
X156945537Y-97470506D01*
X156866185Y-97373815D01*
X156769494Y-97294463D01*
X156659180Y-97235498D01*
X156539482Y-97199188D01*
X156415000Y-97186928D01*
X154468507Y-97186928D01*
X152036534Y-94754956D01*
X152008817Y-94721183D01*
X151874059Y-94610589D01*
X151720313Y-94528411D01*
X151553490Y-94477805D01*
X151423477Y-94465000D01*
X151423469Y-94465000D01*
X151380000Y-94460719D01*
X151336531Y-94465000D01*
X151078454Y-94465000D01*
X151030256Y-94432795D01*
X150841898Y-94354774D01*
X150641939Y-94315000D01*
X150438061Y-94315000D01*
X150238102Y-94354774D01*
X150049744Y-94432795D01*
X149880226Y-94546063D01*
X149736063Y-94690226D01*
X149622795Y-94859744D01*
X149544774Y-95048102D01*
X149505000Y-95248061D01*
X149505000Y-95451939D01*
X149544774Y-95651898D01*
X149622795Y-95840256D01*
X149736063Y-96009774D01*
X149880226Y-96153937D01*
X150049744Y-96267205D01*
X150238102Y-96345226D01*
X150438061Y-96385000D01*
X150641939Y-96385000D01*
X150841898Y-96345226D01*
X151030256Y-96267205D01*
X151039470Y-96261048D01*
X152893421Y-98115000D01*
X151283469Y-98115000D01*
X151240000Y-98110719D01*
X151196531Y-98115000D01*
X151196523Y-98115000D01*
X151066510Y-98127805D01*
X150899686Y-98178411D01*
X150745941Y-98260589D01*
X150644953Y-98343468D01*
X150644951Y-98343470D01*
X150611183Y-98371183D01*
X150583470Y-98404951D01*
X150416439Y-98571983D01*
X150381335Y-98565000D01*
X150098665Y-98565000D01*
X149821426Y-98620147D01*
X149560273Y-98728320D01*
X149325241Y-98885363D01*
X149125363Y-99085241D01*
X148968320Y-99320273D01*
X148860147Y-99581426D01*
X148805000Y-99858665D01*
X147615000Y-99858665D01*
X147615000Y-97933469D01*
X147619281Y-97890000D01*
X147615000Y-97846531D01*
X147615000Y-97846523D01*
X147602195Y-97716510D01*
X147551589Y-97549687D01*
X147469411Y-97395941D01*
X147358817Y-97261183D01*
X147325049Y-97233470D01*
X142656535Y-92564957D01*
X142645226Y-92508102D01*
X142567205Y-92319744D01*
X142453937Y-92150226D01*
X142309774Y-92006063D01*
X142140256Y-91892795D01*
X141951898Y-91814774D01*
X141751939Y-91775000D01*
X141548061Y-91775000D01*
X141348102Y-91814774D01*
X141159744Y-91892795D01*
X140990226Y-92006063D01*
X140846063Y-92150226D01*
X140732795Y-92319744D01*
X140654774Y-92508102D01*
X140615000Y-92708061D01*
X140615000Y-92911939D01*
X140654774Y-93111898D01*
X140732795Y-93300256D01*
X140846063Y-93469774D01*
X140990226Y-93613937D01*
X141159744Y-93727205D01*
X141348102Y-93805226D01*
X141404957Y-93816535D01*
X145845001Y-98256580D01*
X145845000Y-113086531D01*
X145840719Y-113130000D01*
X145845000Y-113173469D01*
X145845000Y-113173476D01*
X145857805Y-113303489D01*
X145908411Y-113470312D01*
X145990589Y-113624058D01*
X146101183Y-113758817D01*
X146134956Y-113786534D01*
X148183470Y-115835049D01*
X148211183Y-115868817D01*
X148244951Y-115896530D01*
X148244953Y-115896532D01*
X148345941Y-115979411D01*
X148499686Y-116061589D01*
X148666510Y-116112195D01*
X148796523Y-116125000D01*
X148796531Y-116125000D01*
X148840000Y-116129281D01*
X148883469Y-116125000D01*
X149105479Y-116125000D01*
X149125363Y-116154759D01*
X149325241Y-116354637D01*
X149557759Y-116510000D01*
X149325241Y-116665363D01*
X149151091Y-116839513D01*
X145075000Y-112763422D01*
X145075000Y-99203469D01*
X145079281Y-99160000D01*
X145075000Y-99116531D01*
X145075000Y-99116523D01*
X145062195Y-98986510D01*
X145011589Y-98819687D01*
X145011589Y-98819686D01*
X144929411Y-98665941D01*
X144846532Y-98564953D01*
X144846530Y-98564951D01*
X144818817Y-98531183D01*
X144785049Y-98503470D01*
X141386535Y-95104957D01*
X141375226Y-95048102D01*
X141297205Y-94859744D01*
X141183937Y-94690226D01*
X141039774Y-94546063D01*
X140870256Y-94432795D01*
X140681898Y-94354774D01*
X140481939Y-94315000D01*
X140278061Y-94315000D01*
X140078102Y-94354774D01*
X139995000Y-94389196D01*
X139995000Y-91906578D01*
X140746579Y-91155000D01*
X147956531Y-91155000D01*
X148000000Y-91159281D01*
X148043469Y-91155000D01*
X148043477Y-91155000D01*
X148173490Y-91142195D01*
X148340313Y-91091589D01*
X148494059Y-91009411D01*
X148628817Y-90898817D01*
X148656534Y-90865044D01*
X152405050Y-87116529D01*
X152438817Y-87088817D01*
X152471645Y-87048817D01*
X152549411Y-86954059D01*
X152631589Y-86800314D01*
X152682195Y-86633490D01*
X152686115Y-86593685D01*
X152695000Y-86503477D01*
X152695000Y-86503469D01*
X152699281Y-86460000D01*
X152695000Y-86416531D01*
X152695000Y-85556578D01*
X153446579Y-84805000D01*
X155795375Y-84805000D01*
X155804188Y-84894482D01*
%TA.AperFunction,Conductor*%
D25*
G36*
X155804188Y-84894482D02*
G01*
X155840498Y-85014180D01*
X155899463Y-85124494D01*
X155978815Y-85221185D01*
X156075506Y-85300537D01*
X156185820Y-85359502D01*
X156305518Y-85395812D01*
X156430000Y-85408072D01*
X158430000Y-85408072D01*
X158545000Y-85396746D01*
X158545000Y-87363421D01*
X156834951Y-89073471D01*
X156801184Y-89101183D01*
X156773471Y-89134951D01*
X156773468Y-89134954D01*
X156690590Y-89235941D01*
X156608412Y-89389687D01*
X156557805Y-89556510D01*
X156540719Y-89730000D01*
X156545001Y-89773479D01*
X156545001Y-90051928D01*
X156430000Y-90051928D01*
X156305518Y-90064188D01*
X156185820Y-90100498D01*
X156075506Y-90159463D01*
X155978815Y-90238815D01*
X155899463Y-90335506D01*
X155840498Y-90445820D01*
X155804188Y-90565518D01*
X155791928Y-90690000D01*
X155791928Y-92390000D01*
X155804188Y-92514482D01*
X155840498Y-92634180D01*
X155899463Y-92744494D01*
X155978815Y-92841185D01*
X156075506Y-92920537D01*
X156185820Y-92979502D01*
X156305518Y-93015812D01*
X156430000Y-93028072D01*
X158430000Y-93028072D01*
X158554482Y-93015812D01*
X158674180Y-92979502D01*
X158784494Y-92920537D01*
X158881185Y-92841185D01*
X158960537Y-92744494D01*
X159019502Y-92634180D01*
X159055812Y-92514482D01*
X159068072Y-92390000D01*
X159068072Y-90690000D01*
X159055812Y-90565518D01*
X159019502Y-90445820D01*
X158960537Y-90335506D01*
X158881185Y-90238815D01*
X158784494Y-90159463D01*
X158674180Y-90100498D01*
X158554482Y-90064188D01*
X158430000Y-90051928D01*
X158359650Y-90051928D01*
X160025050Y-88386529D01*
X160058817Y-88358817D01*
X160169411Y-88224059D01*
X160251589Y-88070313D01*
X160302195Y-87903490D01*
X160315000Y-87773477D01*
X160315000Y-87773467D01*
X160319281Y-87730001D01*
X160315000Y-87686535D01*
X160315000Y-85396746D01*
X160430000Y-85408072D01*
X160545001Y-85408072D01*
X160545000Y-90051928D01*
X160430000Y-90051928D01*
X160305518Y-90064188D01*
X160185820Y-90100498D01*
X160075506Y-90159463D01*
X159978815Y-90238815D01*
X159899463Y-90335506D01*
X159840498Y-90445820D01*
X159804188Y-90565518D01*
X159791928Y-90690000D01*
X159791928Y-92390000D01*
X159804188Y-92514482D01*
X159840498Y-92634180D01*
X159899463Y-92744494D01*
X159978815Y-92841185D01*
X160075506Y-92920537D01*
X160185820Y-92979502D01*
X160305518Y-93015812D01*
X160430000Y-93028072D01*
X162430000Y-93028072D01*
X162554482Y-93015812D01*
X162674180Y-92979502D01*
X162784494Y-92920537D01*
X162881185Y-92841185D01*
X162960537Y-92744494D01*
X163019502Y-92634180D01*
X163055812Y-92514482D01*
X163064625Y-92425000D01*
X163413422Y-92425000D01*
X171031928Y-100043507D01*
X171031928Y-100816493D01*
X168493422Y-103355000D01*
X158203465Y-103355000D01*
X158159999Y-103350719D01*
X158116533Y-103355000D01*
X158116523Y-103355000D01*
X157986510Y-103367805D01*
X157819687Y-103418411D01*
X157665941Y-103500589D01*
X157665939Y-103500590D01*
X157665940Y-103500590D01*
X157564953Y-103583468D01*
X157564951Y-103583470D01*
X157531183Y-103611183D01*
X157503470Y-103644951D01*
X155161494Y-105986928D01*
X153645000Y-105986928D01*
X153520518Y-105999188D01*
X153400820Y-106035498D01*
X153290506Y-106094463D01*
X153193815Y-106173815D01*
X153114463Y-106270506D01*
X153055498Y-106380820D01*
X153019188Y-106500518D01*
X153006928Y-106625000D01*
X153006928Y-106915000D01*
X151494793Y-106915000D01*
X151354637Y-106705241D01*
X151154759Y-106505363D01*
X150922241Y-106350000D01*
X151154759Y-106194637D01*
X151354637Y-105994759D01*
X151511680Y-105759727D01*
X151619853Y-105498574D01*
X151675000Y-105221335D01*
X151675000Y-104938665D01*
X151619853Y-104661426D01*
X151511680Y-104400273D01*
X151354637Y-104165241D01*
X151154759Y-103965363D01*
X150919727Y-103808320D01*
X150909135Y-103803933D01*
X151095131Y-103692385D01*
X151303519Y-103503414D01*
X151471037Y-103277420D01*
X151591246Y-103023087D01*
X151631904Y-102889039D01*
X151509915Y-102667000D01*
X150367000Y-102667000D01*
X150367000Y-102687000D01*
X150113000Y-102687000D01*
X150113000Y-102667000D01*
X148970085Y-102667000D01*
X148848096Y-102889039D01*
X148888754Y-103023087D01*
X149008963Y-103277420D01*
X149176481Y-103503414D01*
X149384869Y-103692385D01*
X149570865Y-103803933D01*
X149560273Y-103808320D01*
X149325241Y-103965363D01*
X149125363Y-104165241D01*
X148968320Y-104400273D01*
X148860147Y-104661426D01*
X148805000Y-104938665D01*
X148805000Y-105221335D01*
X148860147Y-105498574D01*
X148968320Y-105759727D01*
X149125363Y-105994759D01*
X149325241Y-106194637D01*
X149557759Y-106350000D01*
X149325241Y-106505363D01*
X149125363Y-106705241D01*
X148968320Y-106940273D01*
X148860147Y-107201426D01*
X148805000Y-107478665D01*
X148805000Y-107761335D01*
X148860147Y-108038574D01*
X148968320Y-108299727D01*
X149125363Y-108534759D01*
X149325241Y-108734637D01*
X149557759Y-108890000D01*
X149325241Y-109045363D01*
X149125363Y-109245241D01*
X148968320Y-109480273D01*
X148860147Y-109741426D01*
X148805000Y-110018665D01*
X148805000Y-110301335D01*
X148860147Y-110578574D01*
X148968320Y-110839727D01*
X149125363Y-111074759D01*
X149325241Y-111274637D01*
X149557759Y-111430000D01*
X149325241Y-111585363D01*
X149125363Y-111785241D01*
X148968320Y-112020273D01*
X148860147Y-112281426D01*
X148805000Y-112558665D01*
X148805000Y-112841335D01*
X148860147Y-113118574D01*
X148968320Y-113379727D01*
X149125363Y-113614759D01*
X149325241Y-113814637D01*
X149557759Y-113970000D01*
X149325241Y-114125363D01*
X149151091Y-114299513D01*
X147615000Y-112763422D01*
X147615000Y-99858665D01*
X148805000Y-99858665D01*
X148805000Y-100141335D01*
X148860147Y-100418574D01*
X148968320Y-100679727D01*
X149125363Y-100914759D01*
X149325241Y-101114637D01*
X149560273Y-101271680D01*
X149570865Y-101276067D01*
X149384869Y-101387615D01*
X149176481Y-101576586D01*
X149008963Y-101802580D01*
X148888754Y-102056913D01*
X148848096Y-102190961D01*
X148970085Y-102413000D01*
X150113000Y-102413000D01*
X150113000Y-102393000D01*
X150367000Y-102393000D01*
X150367000Y-102413000D01*
X151509915Y-102413000D01*
X151631904Y-102190961D01*
X151591246Y-102056913D01*
X151471037Y-101802580D01*
X151303519Y-101576586D01*
X151095131Y-101387615D01*
X150909135Y-101276067D01*
X150919727Y-101271680D01*
X151154759Y-101114637D01*
X151354637Y-100914759D01*
X151511680Y-100679727D01*
X151619853Y-100418574D01*
X151675000Y-100141335D01*
X151675000Y-99885000D01*
X153006928Y-99885000D01*
X153006928Y-100175000D01*
X153019188Y-100299482D01*
X153055498Y-100419180D01*
X153114463Y-100529494D01*
X153193815Y-100626185D01*
X153290506Y-100705537D01*
X153400820Y-100764502D01*
X153520518Y-100800812D01*
X153645000Y-100813072D01*
X156415000Y-100813072D01*
X156539482Y-100800812D01*
X156659180Y-100764502D01*
X156769494Y-100705537D01*
X156866185Y-100626185D01*
X156945537Y-100529494D01*
X157004502Y-100419180D01*
X157040812Y-100299482D01*
X157053072Y-100175000D01*
X158146928Y-100175000D01*
X158159188Y-100299482D01*
X158195498Y-100419180D01*
X158254463Y-100529494D01*
X158333815Y-100626185D01*
X158430506Y-100705537D01*
X158540820Y-100764502D01*
X158660518Y-100800812D01*
X158785000Y-100813072D01*
X159884250Y-100810000D01*
X160043000Y-100651250D01*
X160043000Y-99127000D01*
X160297000Y-99127000D01*
X160297000Y-100651250D01*
X160455750Y-100810000D01*
X161555000Y-100813072D01*
X161679482Y-100800812D01*
X161799180Y-100764502D01*
X161909494Y-100705537D01*
X162006185Y-100626185D01*
X162085537Y-100529494D01*
X162144502Y-100419180D01*
X162180812Y-100299482D01*
X162193072Y-100175000D01*
X162190000Y-99285750D01*
X162031250Y-99127000D01*
X160297000Y-99127000D01*
X160043000Y-99127000D01*
X158308750Y-99127000D01*
X158150000Y-99285750D01*
X158146928Y-100175000D01*
X157053072Y-100175000D01*
X157053072Y-97825000D01*
X158146928Y-97825000D01*
X158150000Y-98714250D01*
X158308750Y-98873000D01*
X160043000Y-98873000D01*
X160043000Y-97348750D01*
X160297000Y-97348750D01*
X160297000Y-98873000D01*
X162031250Y-98873000D01*
X162190000Y-98714250D01*
X162193072Y-97825000D01*
X162180812Y-97700518D01*
X162144502Y-97580820D01*
X162085537Y-97470506D01*
X162006185Y-97373815D01*
X161909494Y-97294463D01*
X161799180Y-97235498D01*
X161679482Y-97199188D01*
X161555000Y-97186928D01*
X160455750Y-97190000D01*
X160297000Y-97348750D01*
X160043000Y-97348750D01*
X159884250Y-97190000D01*
X158785000Y-97186928D01*
X158660518Y-97199188D01*
X158540820Y-97235498D01*
X158430506Y-97294463D01*
X158333815Y-97373815D01*
X158254463Y-97470506D01*
X158195498Y-97580820D01*
X158159188Y-97700518D01*
X158146928Y-97825000D01*
X157053072Y-97825000D01*
X157040812Y-97700518D01*
X157004502Y-97580820D01*
X156945537Y-97470506D01*
X156866185Y-97373815D01*
X156769494Y-97294463D01*
X156659180Y-97235498D01*
X156539482Y-97199188D01*
X156415000Y-97186928D01*
X154468507Y-97186928D01*
X152036534Y-94754956D01*
X152008817Y-94721183D01*
X151874059Y-94610589D01*
X151720313Y-94528411D01*
X151553490Y-94477805D01*
X151423477Y-94465000D01*
X151423469Y-94465000D01*
X151380000Y-94460719D01*
X151336531Y-94465000D01*
X151078454Y-94465000D01*
X151030256Y-94432795D01*
X150841898Y-94354774D01*
X150641939Y-94315000D01*
X150438061Y-94315000D01*
X150238102Y-94354774D01*
X150049744Y-94432795D01*
X149880226Y-94546063D01*
X149736063Y-94690226D01*
X149622795Y-94859744D01*
X149544774Y-95048102D01*
X149505000Y-95248061D01*
X149505000Y-95451939D01*
X149544774Y-95651898D01*
X149622795Y-95840256D01*
X149736063Y-96009774D01*
X149880226Y-96153937D01*
X150049744Y-96267205D01*
X150238102Y-96345226D01*
X150438061Y-96385000D01*
X150641939Y-96385000D01*
X150841898Y-96345226D01*
X151030256Y-96267205D01*
X151039470Y-96261048D01*
X152893421Y-98115000D01*
X151283469Y-98115000D01*
X151240000Y-98110719D01*
X151196531Y-98115000D01*
X151196523Y-98115000D01*
X151066510Y-98127805D01*
X150899686Y-98178411D01*
X150745941Y-98260589D01*
X150644953Y-98343468D01*
X150644951Y-98343470D01*
X150611183Y-98371183D01*
X150583470Y-98404951D01*
X150416439Y-98571983D01*
X150381335Y-98565000D01*
X150098665Y-98565000D01*
X149821426Y-98620147D01*
X149560273Y-98728320D01*
X149325241Y-98885363D01*
X149125363Y-99085241D01*
X148968320Y-99320273D01*
X148860147Y-99581426D01*
X148805000Y-99858665D01*
X147615000Y-99858665D01*
X147615000Y-97933469D01*
X147619281Y-97890000D01*
X147615000Y-97846531D01*
X147615000Y-97846523D01*
X147602195Y-97716510D01*
X147551589Y-97549687D01*
X147469411Y-97395941D01*
X147358817Y-97261183D01*
X147325049Y-97233470D01*
X142656535Y-92564957D01*
X142645226Y-92508102D01*
X142567205Y-92319744D01*
X142453937Y-92150226D01*
X142309774Y-92006063D01*
X142140256Y-91892795D01*
X141951898Y-91814774D01*
X141751939Y-91775000D01*
X141548061Y-91775000D01*
X141348102Y-91814774D01*
X141159744Y-91892795D01*
X140990226Y-92006063D01*
X140846063Y-92150226D01*
X140732795Y-92319744D01*
X140654774Y-92508102D01*
X140615000Y-92708061D01*
X140615000Y-92911939D01*
X140654774Y-93111898D01*
X140732795Y-93300256D01*
X140846063Y-93469774D01*
X140990226Y-93613937D01*
X141159744Y-93727205D01*
X141348102Y-93805226D01*
X141404957Y-93816535D01*
X145845001Y-98256580D01*
X145845000Y-113086531D01*
X145840719Y-113130000D01*
X145845000Y-113173469D01*
X145845000Y-113173476D01*
X145857805Y-113303489D01*
X145908411Y-113470312D01*
X145990589Y-113624058D01*
X146101183Y-113758817D01*
X146134956Y-113786534D01*
X148183470Y-115835049D01*
X148211183Y-115868817D01*
X148244951Y-115896530D01*
X148244953Y-115896532D01*
X148345941Y-115979411D01*
X148499686Y-116061589D01*
X148666510Y-116112195D01*
X148796523Y-116125000D01*
X148796531Y-116125000D01*
X148840000Y-116129281D01*
X148883469Y-116125000D01*
X149105479Y-116125000D01*
X149125363Y-116154759D01*
X149325241Y-116354637D01*
X149557759Y-116510000D01*
X149325241Y-116665363D01*
X149151091Y-116839513D01*
X145075000Y-112763422D01*
X145075000Y-99203469D01*
X145079281Y-99160000D01*
X145075000Y-99116531D01*
X145075000Y-99116523D01*
X145062195Y-98986510D01*
X145011589Y-98819687D01*
X145011589Y-98819686D01*
X144929411Y-98665941D01*
X144846532Y-98564953D01*
X144846530Y-98564951D01*
X144818817Y-98531183D01*
X144785049Y-98503470D01*
X141386535Y-95104957D01*
X141375226Y-95048102D01*
X141297205Y-94859744D01*
X141183937Y-94690226D01*
X141039774Y-94546063D01*
X140870256Y-94432795D01*
X140681898Y-94354774D01*
X140481939Y-94315000D01*
X140278061Y-94315000D01*
X140078102Y-94354774D01*
X139995000Y-94389196D01*
X139995000Y-91906578D01*
X140746579Y-91155000D01*
X147956531Y-91155000D01*
X148000000Y-91159281D01*
X148043469Y-91155000D01*
X148043477Y-91155000D01*
X148173490Y-91142195D01*
X148340313Y-91091589D01*
X148494059Y-91009411D01*
X148628817Y-90898817D01*
X148656534Y-90865044D01*
X152405050Y-87116529D01*
X152438817Y-87088817D01*
X152471645Y-87048817D01*
X152549411Y-86954059D01*
X152631589Y-86800314D01*
X152682195Y-86633490D01*
X152686115Y-86593685D01*
X152695000Y-86503477D01*
X152695000Y-86503469D01*
X152699281Y-86460000D01*
X152695000Y-86416531D01*
X152695000Y-85556578D01*
X153446579Y-84805000D01*
X155795375Y-84805000D01*
X155804188Y-84894482D01*
G37*
%TD.AperFunction*%
D24*
X135127000Y-107493000D02*
X135147000Y-107493000D01*
X135147000Y-107747000D01*
X135127000Y-107747000D01*
X135127000Y-107767000D01*
X134873000Y-107767000D01*
X134873000Y-107747000D01*
X134853000Y-107747000D01*
X134853000Y-107493000D01*
X134873000Y-107493000D01*
X134873000Y-107473000D01*
X135127000Y-107473000D01*
X135127000Y-107493000D01*
%TA.AperFunction,Conductor*%
D25*
G36*
X135127000Y-107493000D02*
G01*
X135147000Y-107493000D01*
X135147000Y-107747000D01*
X135127000Y-107747000D01*
X135127000Y-107767000D01*
X134873000Y-107767000D01*
X134873000Y-107747000D01*
X134853000Y-107747000D01*
X134853000Y-107493000D01*
X134873000Y-107493000D01*
X134873000Y-107473000D01*
X135127000Y-107473000D01*
X135127000Y-107493000D01*
G37*
%TD.AperFunction*%
%TD*%
M02*
