%TF.GenerationSoftware,KiCad,Pcbnew,5.1.10*%
%TF.CreationDate,2021-10-26T18:06:13-04:00*%
%TF.ProjectId,BREAD_Slice,42524541-445f-4536-9c69-63652e6b6963,rev?*%
%TF.SameCoordinates,Original*%
%TF.FileFunction,Soldermask,Bot*%
%TF.FilePolarity,Negative*%
%FSLAX46Y46*%
G04 Gerber Fmt 4.6, Leading zero omitted, Abs format (unit mm)*
G04 Created by KiCad (PCBNEW 5.1.10) date 2021-10-26 18:06:13*
%MOMM*%
%LPD*%
G01*
G04 APERTURE LIST*
%ADD10O,2.100000X2.005000*%
%ADD11C,2.600000*%
%ADD12C,5.700000*%
%ADD13O,1.700000X1.700000*%
%ADD14O,1.800000X1.800000*%
G04 APERTURE END LIST*
D10*
%TO.C,Q2*%
X144190000Y-67410000D03*
X144190000Y-69950000D03*
G36*
G01*
X145190000Y-73492500D02*
X143190000Y-73492500D01*
G75*
G02*
X143140000Y-73442500I0J50000D01*
G01*
X143140000Y-71537500D01*
G75*
G02*
X143190000Y-71487500I50000J0D01*
G01*
X145190000Y-71487500D01*
G75*
G02*
X145240000Y-71537500I0J-50000D01*
G01*
X145240000Y-73442500D01*
G75*
G02*
X145190000Y-73492500I-50000J0D01*
G01*
G37*
%TD*%
%TO.C,U1*%
G36*
G01*
X157980000Y-76760000D02*
X157980000Y-77110000D01*
G75*
G02*
X157805000Y-77285000I-175000J0D01*
G01*
X156105000Y-77285000D01*
G75*
G02*
X155930000Y-77110000I0J175000D01*
G01*
X155930000Y-76760000D01*
G75*
G02*
X156105000Y-76585000I175000J0D01*
G01*
X157805000Y-76585000D01*
G75*
G02*
X157980000Y-76760000I0J-175000D01*
G01*
G37*
G36*
G01*
X157980000Y-78030000D02*
X157980000Y-78380000D01*
G75*
G02*
X157805000Y-78555000I-175000J0D01*
G01*
X156105000Y-78555000D01*
G75*
G02*
X155930000Y-78380000I0J175000D01*
G01*
X155930000Y-78030000D01*
G75*
G02*
X156105000Y-77855000I175000J0D01*
G01*
X157805000Y-77855000D01*
G75*
G02*
X157980000Y-78030000I0J-175000D01*
G01*
G37*
G36*
G01*
X157980000Y-79300000D02*
X157980000Y-79650000D01*
G75*
G02*
X157805000Y-79825000I-175000J0D01*
G01*
X156105000Y-79825000D01*
G75*
G02*
X155930000Y-79650000I0J175000D01*
G01*
X155930000Y-79300000D01*
G75*
G02*
X156105000Y-79125000I175000J0D01*
G01*
X157805000Y-79125000D01*
G75*
G02*
X157980000Y-79300000I0J-175000D01*
G01*
G37*
G36*
G01*
X157980000Y-80570000D02*
X157980000Y-80920000D01*
G75*
G02*
X157805000Y-81095000I-175000J0D01*
G01*
X156105000Y-81095000D01*
G75*
G02*
X155930000Y-80920000I0J175000D01*
G01*
X155930000Y-80570000D01*
G75*
G02*
X156105000Y-80395000I175000J0D01*
G01*
X157805000Y-80395000D01*
G75*
G02*
X157980000Y-80570000I0J-175000D01*
G01*
G37*
G36*
G01*
X162930000Y-80570000D02*
X162930000Y-80920000D01*
G75*
G02*
X162755000Y-81095000I-175000J0D01*
G01*
X161055000Y-81095000D01*
G75*
G02*
X160880000Y-80920000I0J175000D01*
G01*
X160880000Y-80570000D01*
G75*
G02*
X161055000Y-80395000I175000J0D01*
G01*
X162755000Y-80395000D01*
G75*
G02*
X162930000Y-80570000I0J-175000D01*
G01*
G37*
G36*
G01*
X162930000Y-79300000D02*
X162930000Y-79650000D01*
G75*
G02*
X162755000Y-79825000I-175000J0D01*
G01*
X161055000Y-79825000D01*
G75*
G02*
X160880000Y-79650000I0J175000D01*
G01*
X160880000Y-79300000D01*
G75*
G02*
X161055000Y-79125000I175000J0D01*
G01*
X162755000Y-79125000D01*
G75*
G02*
X162930000Y-79300000I0J-175000D01*
G01*
G37*
G36*
G01*
X162930000Y-78030000D02*
X162930000Y-78380000D01*
G75*
G02*
X162755000Y-78555000I-175000J0D01*
G01*
X161055000Y-78555000D01*
G75*
G02*
X160880000Y-78380000I0J175000D01*
G01*
X160880000Y-78030000D01*
G75*
G02*
X161055000Y-77855000I175000J0D01*
G01*
X162755000Y-77855000D01*
G75*
G02*
X162930000Y-78030000I0J-175000D01*
G01*
G37*
G36*
G01*
X162930000Y-76760000D02*
X162930000Y-77110000D01*
G75*
G02*
X162755000Y-77285000I-175000J0D01*
G01*
X161055000Y-77285000D01*
G75*
G02*
X160880000Y-77110000I0J175000D01*
G01*
X160880000Y-76760000D01*
G75*
G02*
X161055000Y-76585000I175000J0D01*
G01*
X162755000Y-76585000D01*
G75*
G02*
X162930000Y-76760000I0J-175000D01*
G01*
G37*
%TD*%
%TO.C,R3*%
G36*
G01*
X158480000Y-83070000D02*
X158480000Y-84770000D01*
G75*
G02*
X158430000Y-84820000I-50000J0D01*
G01*
X156430000Y-84820000D01*
G75*
G02*
X156380000Y-84770000I0J50000D01*
G01*
X156380000Y-83070000D01*
G75*
G02*
X156430000Y-83020000I50000J0D01*
G01*
X158430000Y-83020000D01*
G75*
G02*
X158480000Y-83070000I0J-50000D01*
G01*
G37*
G36*
G01*
X162480000Y-83070000D02*
X162480000Y-84770000D01*
G75*
G02*
X162430000Y-84820000I-50000J0D01*
G01*
X160430000Y-84820000D01*
G75*
G02*
X160380000Y-84770000I0J50000D01*
G01*
X160380000Y-83070000D01*
G75*
G02*
X160430000Y-83020000I50000J0D01*
G01*
X162430000Y-83020000D01*
G75*
G02*
X162480000Y-83070000I0J-50000D01*
G01*
G37*
%TD*%
%TO.C,R2*%
G36*
G01*
X160380000Y-92390000D02*
X160380000Y-90690000D01*
G75*
G02*
X160430000Y-90640000I50000J0D01*
G01*
X162430000Y-90640000D01*
G75*
G02*
X162480000Y-90690000I0J-50000D01*
G01*
X162480000Y-92390000D01*
G75*
G02*
X162430000Y-92440000I-50000J0D01*
G01*
X160430000Y-92440000D01*
G75*
G02*
X160380000Y-92390000I0J50000D01*
G01*
G37*
G36*
G01*
X156380000Y-92390000D02*
X156380000Y-90690000D01*
G75*
G02*
X156430000Y-90640000I50000J0D01*
G01*
X158430000Y-90640000D01*
G75*
G02*
X158480000Y-90690000I0J-50000D01*
G01*
X158480000Y-92390000D01*
G75*
G02*
X158430000Y-92440000I-50000J0D01*
G01*
X156430000Y-92440000D01*
G75*
G02*
X156380000Y-92390000I0J50000D01*
G01*
G37*
%TD*%
%TO.C,R1*%
G36*
G01*
X175620000Y-101280000D02*
X175620000Y-99580000D01*
G75*
G02*
X175670000Y-99530000I50000J0D01*
G01*
X177670000Y-99530000D01*
G75*
G02*
X177720000Y-99580000I0J-50000D01*
G01*
X177720000Y-101280000D01*
G75*
G02*
X177670000Y-101330000I-50000J0D01*
G01*
X175670000Y-101330000D01*
G75*
G02*
X175620000Y-101280000I0J50000D01*
G01*
G37*
G36*
G01*
X171620000Y-101280000D02*
X171620000Y-99580000D01*
G75*
G02*
X171670000Y-99530000I50000J0D01*
G01*
X173670000Y-99530000D01*
G75*
G02*
X173720000Y-99580000I0J-50000D01*
G01*
X173720000Y-101280000D01*
G75*
G02*
X173670000Y-101330000I-50000J0D01*
G01*
X171670000Y-101330000D01*
G75*
G02*
X171620000Y-101280000I0J50000D01*
G01*
G37*
%TD*%
%TO.C,Q1*%
X144190000Y-80110000D03*
X144190000Y-82650000D03*
G36*
G01*
X145190000Y-86192500D02*
X143190000Y-86192500D01*
G75*
G02*
X143140000Y-86142500I0J50000D01*
G01*
X143140000Y-84237500D01*
G75*
G02*
X143190000Y-84187500I50000J0D01*
G01*
X145190000Y-84187500D01*
G75*
G02*
X145240000Y-84237500I0J-50000D01*
G01*
X145240000Y-86142500D01*
G75*
G02*
X145190000Y-86192500I-50000J0D01*
G01*
G37*
%TD*%
D11*
%TO.C,J4*%
X184830000Y-95430000D03*
G36*
G01*
X186080000Y-101730000D02*
X183580000Y-101730000D01*
G75*
G02*
X183530000Y-101680000I0J50000D01*
G01*
X183530000Y-99180000D01*
G75*
G02*
X183580000Y-99130000I50000J0D01*
G01*
X186080000Y-99130000D01*
G75*
G02*
X186130000Y-99180000I0J-50000D01*
G01*
X186130000Y-101680000D01*
G75*
G02*
X186080000Y-101730000I-50000J0D01*
G01*
G37*
%TD*%
%TO.C,J3*%
X184830000Y-57330000D03*
G36*
G01*
X186080000Y-63630000D02*
X183580000Y-63630000D01*
G75*
G02*
X183530000Y-63580000I0J50000D01*
G01*
X183530000Y-61080000D01*
G75*
G02*
X183580000Y-61030000I50000J0D01*
G01*
X186080000Y-61030000D01*
G75*
G02*
X186130000Y-61080000I0J-50000D01*
G01*
X186130000Y-63580000D01*
G75*
G02*
X186080000Y-63630000I-50000J0D01*
G01*
G37*
%TD*%
%TO.C,J2*%
X184830000Y-81300000D03*
G36*
G01*
X183580000Y-75000000D02*
X186080000Y-75000000D01*
G75*
G02*
X186130000Y-75050000I0J-50000D01*
G01*
X186130000Y-77550000D01*
G75*
G02*
X186080000Y-77600000I-50000J0D01*
G01*
X183580000Y-77600000D01*
G75*
G02*
X183530000Y-77550000I0J50000D01*
G01*
X183530000Y-75050000D01*
G75*
G02*
X183580000Y-75000000I50000J0D01*
G01*
G37*
%TD*%
%TO.C,FB2*%
G36*
G01*
X176890000Y-77150000D02*
X176890000Y-75450000D01*
G75*
G02*
X176940000Y-75400000I50000J0D01*
G01*
X178940000Y-75400000D01*
G75*
G02*
X178990000Y-75450000I0J-50000D01*
G01*
X178990000Y-77150000D01*
G75*
G02*
X178940000Y-77200000I-50000J0D01*
G01*
X176940000Y-77200000D01*
G75*
G02*
X176890000Y-77150000I0J50000D01*
G01*
G37*
G36*
G01*
X172890000Y-77150000D02*
X172890000Y-75450000D01*
G75*
G02*
X172940000Y-75400000I50000J0D01*
G01*
X174940000Y-75400000D01*
G75*
G02*
X174990000Y-75450000I0J-50000D01*
G01*
X174990000Y-77150000D01*
G75*
G02*
X174940000Y-77200000I-50000J0D01*
G01*
X172940000Y-77200000D01*
G75*
G02*
X172890000Y-77150000I0J50000D01*
G01*
G37*
%TD*%
%TO.C,FB1*%
G36*
G01*
X176890000Y-82230000D02*
X176890000Y-80530000D01*
G75*
G02*
X176940000Y-80480000I50000J0D01*
G01*
X178940000Y-80480000D01*
G75*
G02*
X178990000Y-80530000I0J-50000D01*
G01*
X178990000Y-82230000D01*
G75*
G02*
X178940000Y-82280000I-50000J0D01*
G01*
X176940000Y-82280000D01*
G75*
G02*
X176890000Y-82230000I0J50000D01*
G01*
G37*
G36*
G01*
X172890000Y-82230000D02*
X172890000Y-80530000D01*
G75*
G02*
X172940000Y-80480000I50000J0D01*
G01*
X174940000Y-80480000D01*
G75*
G02*
X174990000Y-80530000I0J-50000D01*
G01*
X174990000Y-82230000D01*
G75*
G02*
X174940000Y-82280000I-50000J0D01*
G01*
X172940000Y-82280000D01*
G75*
G02*
X172890000Y-82230000I0J50000D01*
G01*
G37*
%TD*%
%TO.C,C3*%
G36*
G01*
X170390000Y-77890000D02*
X168790000Y-77890000D01*
G75*
G02*
X168740000Y-77840000I0J50000D01*
G01*
X168740000Y-75840000D01*
G75*
G02*
X168790000Y-75790000I50000J0D01*
G01*
X170390000Y-75790000D01*
G75*
G02*
X170440000Y-75840000I0J-50000D01*
G01*
X170440000Y-77840000D01*
G75*
G02*
X170390000Y-77890000I-50000J0D01*
G01*
G37*
G36*
G01*
X170390000Y-81890000D02*
X168790000Y-81890000D01*
G75*
G02*
X168740000Y-81840000I0J50000D01*
G01*
X168740000Y-79840000D01*
G75*
G02*
X168790000Y-79790000I50000J0D01*
G01*
X170390000Y-79790000D01*
G75*
G02*
X170440000Y-79840000I0J-50000D01*
G01*
X170440000Y-81840000D01*
G75*
G02*
X170390000Y-81890000I-50000J0D01*
G01*
G37*
%TD*%
D12*
%TO.C,H4*%
X187600000Y-134800000D03*
%TD*%
%TO.C,H3*%
X127600000Y-134800000D03*
%TD*%
%TO.C,H2*%
X187600000Y-44800000D03*
%TD*%
%TO.C,H1*%
X127600000Y-44800000D03*
%TD*%
%TO.C,C1*%
G36*
G01*
X158735000Y-100175001D02*
X158735000Y-97824999D01*
G75*
G02*
X158784999Y-97775000I49999J0D01*
G01*
X161555001Y-97775000D01*
G75*
G02*
X161605000Y-97824999I0J-49999D01*
G01*
X161605000Y-100175001D01*
G75*
G02*
X161555001Y-100225000I-49999J0D01*
G01*
X158784999Y-100225000D01*
G75*
G02*
X158735000Y-100175001I0J49999D01*
G01*
G37*
G36*
G01*
X153595000Y-100175001D02*
X153595000Y-97824999D01*
G75*
G02*
X153644999Y-97775000I49999J0D01*
G01*
X156415001Y-97775000D01*
G75*
G02*
X156465000Y-97824999I0J-49999D01*
G01*
X156465000Y-100175001D01*
G75*
G02*
X156415001Y-100225000I-49999J0D01*
G01*
X153644999Y-100225000D01*
G75*
G02*
X153595000Y-100175001I0J49999D01*
G01*
G37*
%TD*%
%TO.C,A1*%
G36*
G01*
X134150000Y-100800000D02*
X134150000Y-99200000D01*
G75*
G02*
X134200000Y-99150000I50000J0D01*
G01*
X135800000Y-99150000D01*
G75*
G02*
X135850000Y-99200000I0J-50000D01*
G01*
X135850000Y-100800000D01*
G75*
G02*
X135800000Y-100850000I-50000J0D01*
G01*
X134200000Y-100850000D01*
G75*
G02*
X134150000Y-100800000I0J50000D01*
G01*
G37*
D13*
X150240000Y-133020000D03*
X135000000Y-102540000D03*
X150240000Y-130480000D03*
X135000000Y-105080000D03*
X150240000Y-127940000D03*
X135000000Y-107620000D03*
X150240000Y-125400000D03*
X135000000Y-110160000D03*
X150240000Y-122860000D03*
X135000000Y-112700000D03*
X150240000Y-120320000D03*
X135000000Y-115240000D03*
X150240000Y-117780000D03*
X135000000Y-117780000D03*
X150240000Y-115240000D03*
X135000000Y-120320000D03*
X150240000Y-112700000D03*
X135000000Y-122860000D03*
X150240000Y-110160000D03*
X135000000Y-125400000D03*
X150240000Y-107620000D03*
X135000000Y-127940000D03*
X150240000Y-105080000D03*
X135000000Y-130480000D03*
X150240000Y-102540000D03*
X135000000Y-133020000D03*
X150240000Y-100000000D03*
X135000000Y-135560000D03*
X150240000Y-135560000D03*
%TD*%
%TO.C,C2*%
G36*
G01*
X153595000Y-108975001D02*
X153595000Y-106624999D01*
G75*
G02*
X153644999Y-106575000I49999J0D01*
G01*
X156415001Y-106575000D01*
G75*
G02*
X156465000Y-106624999I0J-49999D01*
G01*
X156465000Y-108975001D01*
G75*
G02*
X156415001Y-109025000I-49999J0D01*
G01*
X153644999Y-109025000D01*
G75*
G02*
X153595000Y-108975001I0J49999D01*
G01*
G37*
G36*
G01*
X158735000Y-108975001D02*
X158735000Y-106624999D01*
G75*
G02*
X158784999Y-106575000I49999J0D01*
G01*
X161555001Y-106575000D01*
G75*
G02*
X161605000Y-106624999I0J-49999D01*
G01*
X161605000Y-108975001D01*
G75*
G02*
X161555001Y-109025000I-49999J0D01*
G01*
X158784999Y-109025000D01*
G75*
G02*
X158735000Y-108975001I0J49999D01*
G01*
G37*
%TD*%
%TO.C,J1*%
G36*
G01*
X128700000Y-79650000D02*
X128700000Y-77950000D01*
G75*
G02*
X128750000Y-77900000I50000J0D01*
G01*
X130450000Y-77900000D01*
G75*
G02*
X130500000Y-77950000I0J-50000D01*
G01*
X130500000Y-79650000D01*
G75*
G02*
X130450000Y-79700000I-50000J0D01*
G01*
X128750000Y-79700000D01*
G75*
G02*
X128700000Y-79650000I0J50000D01*
G01*
G37*
D14*
X129600000Y-81340000D03*
X129600000Y-83880000D03*
X129600000Y-86420000D03*
X129600000Y-88960000D03*
X129600000Y-91500000D03*
X129600000Y-94040000D03*
X129600000Y-96580000D03*
X129600000Y-99120000D03*
X129600000Y-101660000D03*
%TD*%
M02*
