%TF.GenerationSoftware,KiCad,Pcbnew,5.1.10*%
%TF.CreationDate,2021-10-26T18:06:13-04:00*%
%TF.ProjectId,BREAD_Slice,42524541-445f-4536-9c69-63652e6b6963,rev?*%
%TF.SameCoordinates,Original*%
%TF.FileFunction,Copper,L1,Top*%
%TF.FilePolarity,Positive*%
%FSLAX46Y46*%
G04 Gerber Fmt 4.6, Leading zero omitted, Abs format (unit mm)*
G04 Created by KiCad (PCBNEW 5.1.10) date 2021-10-26 18:06:13*
%MOMM*%
%LPD*%
G01*
G04 APERTURE LIST*
%TA.AperFunction,ComponentPad*%
%ADD10O,2.000000X1.905000*%
%TD*%
%TA.AperFunction,ComponentPad*%
%ADD11R,2.000000X1.905000*%
%TD*%
%TA.AperFunction,ComponentPad*%
%ADD12C,2.500000*%
%TD*%
%TA.AperFunction,ComponentPad*%
%ADD13R,2.500000X2.500000*%
%TD*%
%TA.AperFunction,ComponentPad*%
%ADD14C,5.600000*%
%TD*%
%TA.AperFunction,ComponentPad*%
%ADD15R,1.600000X1.600000*%
%TD*%
%TA.AperFunction,ComponentPad*%
%ADD16O,1.600000X1.600000*%
%TD*%
%TA.AperFunction,ComponentPad*%
%ADD17R,1.700000X1.700000*%
%TD*%
%TA.AperFunction,ComponentPad*%
%ADD18O,1.700000X1.700000*%
%TD*%
%TA.AperFunction,ViaPad*%
%ADD19C,0.800000*%
%TD*%
%TA.AperFunction,Conductor*%
%ADD20C,0.500000*%
%TD*%
G04 APERTURE END LIST*
D10*
%TO.P,Q2,3*%
%TO.N,Net-(J3-Pad1)*%
X144190000Y-67410000D03*
%TO.P,Q2,2*%
%TO.N,+12V*%
X144190000Y-69950000D03*
D11*
%TO.P,Q2,1*%
%TO.N,/E_STOP*%
X144190000Y-72490000D03*
%TD*%
D10*
%TO.P,Q1,3*%
%TO.N,GND*%
X144190000Y-80110000D03*
%TO.P,Q1,2*%
%TO.N,Net-(J3-Pad2)*%
X144190000Y-82650000D03*
D11*
%TO.P,Q1,1*%
%TO.N,/PWM*%
X144190000Y-85190000D03*
%TD*%
D12*
%TO.P,J4,2*%
%TO.N,GND*%
X184830000Y-95430000D03*
D13*
%TO.P,J4,1*%
%TO.N,/TMSTR*%
X184830000Y-100430000D03*
%TD*%
D12*
%TO.P,J3,2*%
%TO.N,Net-(J3-Pad2)*%
X184830000Y-57330000D03*
D13*
%TO.P,J3,1*%
%TO.N,Net-(J3-Pad1)*%
X184830000Y-62330000D03*
%TD*%
D12*
%TO.P,J2,2*%
%TO.N,Net-(FB1-Pad2)*%
X184830000Y-81300000D03*
D13*
%TO.P,J2,1*%
%TO.N,Net-(FB2-Pad2)*%
X184830000Y-76300000D03*
%TD*%
D14*
%TO.P,H4,1*%
%TO.N,N/C*%
X187600000Y-134800000D03*
%TD*%
%TO.P,H3,1*%
%TO.N,N/C*%
X127600000Y-134800000D03*
%TD*%
%TO.P,H2,1*%
%TO.N,N/C*%
X187600000Y-44800000D03*
%TD*%
%TO.P,H1,1*%
%TO.N,N/C*%
X127600000Y-44800000D03*
%TD*%
D15*
%TO.P,A1,1*%
%TO.N,Net-(A1-Pad1)*%
X135000000Y-100000000D03*
D16*
%TO.P,A1,17*%
%TO.N,Net-(A1-Pad17)*%
X150240000Y-133020000D03*
%TO.P,A1,2*%
%TO.N,Net-(A1-Pad2)*%
X135000000Y-102540000D03*
%TO.P,A1,18*%
%TO.N,Net-(A1-Pad18)*%
X150240000Y-130480000D03*
%TO.P,A1,3*%
%TO.N,Net-(A1-Pad3)*%
X135000000Y-105080000D03*
%TO.P,A1,19*%
%TO.N,/TMSTR*%
X150240000Y-127940000D03*
%TO.P,A1,4*%
%TO.N,GND*%
X135000000Y-107620000D03*
%TO.P,A1,20*%
%TO.N,Net-(A1-Pad20)*%
X150240000Y-125400000D03*
%TO.P,A1,5*%
%TO.N,/E_STOP*%
X135000000Y-110160000D03*
%TO.P,A1,21*%
%TO.N,Net-(A1-Pad21)*%
X150240000Y-122860000D03*
%TO.P,A1,6*%
%TO.N,/INT*%
X135000000Y-112700000D03*
%TO.P,A1,22*%
%TO.N,Net-(A1-Pad22)*%
X150240000Y-120320000D03*
%TO.P,A1,7*%
%TO.N,/SYNC*%
X135000000Y-115240000D03*
%TO.P,A1,23*%
%TO.N,/I2C_DAT*%
X150240000Y-117780000D03*
%TO.P,A1,8*%
%TO.N,Net-(A1-Pad8)*%
X135000000Y-117780000D03*
%TO.P,A1,24*%
%TO.N,/I2C_CLK*%
X150240000Y-115240000D03*
%TO.P,A1,9*%
%TO.N,/PWM*%
X135000000Y-120320000D03*
%TO.P,A1,25*%
%TO.N,Net-(A1-Pad25)*%
X150240000Y-112700000D03*
%TO.P,A1,10*%
%TO.N,Net-(A1-Pad10)*%
X135000000Y-122860000D03*
%TO.P,A1,26*%
%TO.N,Net-(A1-Pad26)*%
X150240000Y-110160000D03*
%TO.P,A1,11*%
%TO.N,Net-(A1-Pad11)*%
X135000000Y-125400000D03*
%TO.P,A1,27*%
%TO.N,+5V*%
X150240000Y-107620000D03*
%TO.P,A1,12*%
%TO.N,/SS*%
X135000000Y-127940000D03*
%TO.P,A1,28*%
%TO.N,Net-(A1-Pad28)*%
X150240000Y-105080000D03*
%TO.P,A1,13*%
%TO.N,/DATA*%
X135000000Y-130480000D03*
%TO.P,A1,29*%
%TO.N,GND*%
X150240000Y-102540000D03*
%TO.P,A1,14*%
%TO.N,/CLK*%
X135000000Y-133020000D03*
%TO.P,A1,30*%
%TO.N,+12V*%
X150240000Y-100000000D03*
%TO.P,A1,15*%
%TO.N,Net-(A1-Pad15)*%
X135000000Y-135560000D03*
%TO.P,A1,16*%
%TO.N,Net-(A1-Pad16)*%
X150240000Y-135560000D03*
%TD*%
D17*
%TO.P,J1,1*%
%TO.N,GND*%
X129600000Y-78800000D03*
D18*
%TO.P,J1,2*%
%TO.N,+12V*%
X129600000Y-81340000D03*
%TO.P,J1,3*%
%TO.N,/I2C_CLK*%
X129600000Y-83880000D03*
%TO.P,J1,4*%
%TO.N,/I2C_DAT*%
X129600000Y-86420000D03*
%TO.P,J1,5*%
%TO.N,GND*%
X129600000Y-88960000D03*
%TO.P,J1,6*%
%TO.N,/E_STOP*%
X129600000Y-91500000D03*
%TO.P,J1,7*%
%TO.N,/INT*%
X129600000Y-94040000D03*
%TO.P,J1,8*%
%TO.N,/SYNC*%
X129600000Y-96580000D03*
%TO.P,J1,9*%
%TO.N,+12V*%
X129600000Y-99120000D03*
%TO.P,J1,10*%
%TO.N,GND*%
X129600000Y-101660000D03*
%TD*%
D19*
%TO.N,GND*%
X158160000Y-111860000D03*
X167050000Y-101700000D03*
%TO.N,/I2C_CLK*%
X141650000Y-92810000D03*
X134030000Y-85190000D03*
%TO.N,/I2C_DAT*%
X134030000Y-89000000D03*
X140380000Y-95350000D03*
%TO.N,/E_STOP*%
X134030000Y-92810000D03*
X137840000Y-76300000D03*
%TO.N,+12V*%
X134030000Y-82650000D03*
X150540000Y-95350000D03*
%TO.N,/SS*%
X128950000Y-127100000D03*
X151810000Y-81380000D03*
%TD*%
D20*
%TO.N,GND*%
X158160000Y-111860000D02*
X159430000Y-113130000D01*
X159430000Y-113130000D02*
X161970000Y-113130000D01*
X167050000Y-108050000D02*
X167050000Y-101700000D01*
X161970000Y-113130000D02*
X167050000Y-108050000D01*
X127720000Y-101660000D02*
X129600000Y-101660000D01*
X125140000Y-104240000D02*
X127720000Y-101660000D01*
X125140000Y-128370000D02*
X125140000Y-104240000D01*
X128950000Y-129640000D02*
X126410000Y-129640000D01*
X131490000Y-109320000D02*
X131490000Y-127100000D01*
X126410000Y-129640000D02*
X125140000Y-128370000D01*
X133190000Y-107620000D02*
X131490000Y-109320000D01*
X131490000Y-127100000D02*
X128950000Y-129640000D01*
X135000000Y-107620000D02*
X133190000Y-107620000D01*
%TO.N,/I2C_CLK*%
X141650000Y-92810000D02*
X134030000Y-85190000D01*
%TO.N,/I2C_DAT*%
X140380000Y-95350000D02*
X137840000Y-92810000D01*
X137840000Y-92810000D02*
X134030000Y-89000000D01*
%TO.N,/E_STOP*%
X134030000Y-92810000D02*
X139110000Y-97890000D01*
X139110000Y-97890000D02*
X151810000Y-97890000D01*
X151810000Y-97890000D02*
X152660001Y-97039999D01*
X152660001Y-97039999D02*
X154350000Y-95350000D01*
X154350000Y-95350000D02*
X154350000Y-77570000D01*
X153080000Y-76300000D02*
X137840000Y-76300000D01*
X154350000Y-77570000D02*
X153080000Y-76300000D01*
%TO.N,+12V*%
X146730000Y-95350000D02*
X150540000Y-95350000D01*
X134030000Y-82650000D02*
X146730000Y-95350000D01*
%TO.N,/SS*%
X128950000Y-127100000D02*
X128950000Y-110590000D01*
X128950000Y-110590000D02*
X128950000Y-108050000D01*
X128950000Y-108050000D02*
X132760000Y-104240000D01*
X132760000Y-104240000D02*
X132760000Y-81380000D01*
X132760000Y-81380000D02*
X136570000Y-77570000D01*
X148000000Y-77570000D02*
X151810000Y-81380000D01*
X136570000Y-77570000D02*
X148000000Y-77570000D01*
%TD*%
M02*
