M48
; DRILL file {KiCad 5.1.10} date Tue Oct 26 18:06:16 2021
; FORMAT={-:-/ absolute / inch / decimal}
; #@! TF.CreationDate,2021-10-26T18:06:16-04:00
; #@! TF.GenerationSoftware,Kicad,Pcbnew,5.1.10
; #@! TF.FileFunction,Plated,1,2,PTH
FMAT,2
INCH
T1C0.0157
T2C0.0394
T3C0.0433
T4C0.0512
T5C0.1260
%
G90
G05
T1
X5.0768Y-5.0039
X5.2768Y-3.2539
X5.2768Y-3.3539
X5.2768Y-3.5039
X5.2768Y-3.6539
X5.4268Y-3.0039
X5.5268Y-3.7539
X5.5768Y-3.6539
X5.9268Y-3.7539
X5.9768Y-3.2039
X6.2268Y-4.4039
X6.5768Y-4.0039
T2
X5.1024Y-3.1024
X5.1024Y-3.2024
X5.1024Y-3.3024
X5.1024Y-3.4024
X5.1024Y-3.5024
X5.1024Y-3.6024
X5.1024Y-3.7024
X5.1024Y-3.8024
X5.1024Y-3.9024
X5.1024Y-4.0024
X5.315Y-3.937
X5.315Y-4.037
X5.315Y-4.137
X5.315Y-4.237
X5.315Y-4.337
X5.315Y-4.437
X5.315Y-4.537
X5.315Y-4.637
X5.315Y-4.737
X5.315Y-4.837
X5.315Y-4.937
X5.315Y-5.037
X5.315Y-5.137
X5.315Y-5.237
X5.315Y-5.337
X5.915Y-3.937
X5.915Y-4.037
X5.915Y-4.137
X5.915Y-4.237
X5.915Y-4.337
X5.915Y-4.437
X5.915Y-4.537
X5.915Y-4.637
X5.915Y-4.737
X5.915Y-4.837
X5.915Y-4.937
X5.915Y-5.037
X5.915Y-5.137
X5.915Y-5.237
X5.915Y-5.337
T3
X5.6768Y-2.6539
X5.6768Y-2.7539
X5.6768Y-2.8539
X5.6768Y-3.1539
X5.6768Y-3.2539
X5.6768Y-3.3539
T4
X7.2768Y-2.2571
X7.2768Y-2.4539
X7.2768Y-3.0039
X7.2768Y-3.2008
X7.2768Y-3.7571
X7.2768Y-3.9539
T5
X5.0236Y-1.7638
X5.0236Y-5.3071
X7.3858Y-1.7638
X7.3858Y-5.3071
T0
M30
