M48
; DRILL file {KiCad 8.0.5} date 2024-09-29T17:35:42-0400
; FORMAT={-:-/ absolute / inch / decimal}
; #@! TF.CreationDate,2024-09-29T17:35:42-04:00
; #@! TF.GenerationSoftware,Kicad,Pcbnew,8.0.5
; #@! TF.FileFunction,Plated,1,2,PTH
FMAT,2
INCH
; #@! TA.AperFunction,Plated,PTH,ViaDrill
T1C0.0079
; #@! TA.AperFunction,Plated,PTH,ViaDrill
T2C0.0157
; #@! TA.AperFunction,Plated,PTH,ComponentDrill
T3C0.0394
; #@! TA.AperFunction,Plated,PTH,ComponentDrill
T4C0.0433
%
G90
G05
T1
X0.2421Y0.6356
X0.2854Y0.7419
X0.2933Y0.86
X0.3209Y0.7419
X0.3366Y0.8285
X0.3366Y0.7695
X0.3839Y0.86
T2
X0.1398Y0.6533
X0.1476Y0.5254
X0.2894Y0.9289
X0.561Y0.862
X0.561Y0.7478
X0.561Y0.551
X0.9541Y0.2219
X1.8946Y0.2074
X1.9764Y0.0827
T3
X0.1417Y2.4193
X0.1417Y2.3193
X0.1417Y2.2193
X0.1417Y2.1193
X0.1417Y2.0193
X0.1417Y1.9193
X0.1417Y1.8193
X0.1417Y1.7193
X0.1417Y1.6193
X0.1417Y1.5193
X0.7869Y1.5669
X0.7869Y1.4669
X0.7869Y1.3669
X0.7869Y1.2669
X0.7869Y1.1669
X0.7869Y1.0669
X0.7869Y0.9669
X0.7869Y0.8669
X0.7869Y0.7669
X0.7869Y0.6669
X0.7869Y0.5669
X0.7869Y0.4669
X0.7869Y0.3669
X0.7869Y0.2669
X0.7869Y0.1669
X1.3869Y1.5669
X1.3869Y1.4669
X1.3869Y1.3669
X1.3869Y1.2669
X1.3869Y1.1669
X1.3869Y1.0669
X1.3869Y0.9669
X1.3869Y0.8669
X1.3869Y0.7669
X1.3869Y0.6669
X1.3869Y0.5669
X1.3869Y0.4669
X1.3869Y0.3669
X1.3869Y0.2669
X1.3869Y0.1669
T4
X0.7071Y2.9161
X0.711Y2.6587
X0.8071Y2.9161
X0.811Y2.6587
X0.9071Y2.9161
X0.911Y2.6587
X1.1717Y2.6587
X1.215Y2.9161
X1.2717Y2.6587
X1.315Y2.9161
X1.3717Y2.6587
X1.415Y2.9161
X2.248Y3.252
X2.248Y3.0787
X2.248Y2.9055
X2.248Y2.7323
X2.2531Y2.1768
X2.2531Y2.0035
X2.2531Y1.8303
X2.2531Y1.6571
X2.2531Y1.4839
X2.2531Y1.3106
X2.2531Y1.1374
X2.2531Y0.9642
X2.5709Y3.252
X2.5709Y3.0787
X2.5709Y2.9055
X2.5709Y2.7323
X2.576Y2.1768
X2.576Y2.0035
X2.576Y1.8303
X2.576Y1.6571
X2.576Y1.4839
X2.576Y1.3106
X2.576Y1.1374
X2.576Y0.9642
M30
