%TF.GenerationSoftware,KiCad,Pcbnew,8.0.5*%
%TF.CreationDate,2024-09-29T17:35:40-04:00*%
%TF.ProjectId,BREAD_Slice,42524541-445f-4536-9c69-63652e6b6963,rev?*%
%TF.SameCoordinates,PX74eba40PY8552dc0*%
%TF.FileFunction,Copper,L1,Top*%
%TF.FilePolarity,Positive*%
%FSLAX46Y46*%
G04 Gerber Fmt 4.6, Leading zero omitted, Abs format (unit mm)*
G04 Created by KiCad (PCBNEW 8.0.5) date 2024-09-29 17:35:40*
%MOMM*%
%LPD*%
G01*
G04 APERTURE LIST*
G04 Aperture macros list*
%AMRoundRect*
0 Rectangle with rounded corners*
0 $1 Rounding radius*
0 $2 $3 $4 $5 $6 $7 $8 $9 X,Y pos of 4 corners*
0 Add a 4 corners polygon primitive as box body*
4,1,4,$2,$3,$4,$5,$6,$7,$8,$9,$2,$3,0*
0 Add four circle primitives for the rounded corners*
1,1,$1+$1,$2,$3*
1,1,$1+$1,$4,$5*
1,1,$1+$1,$6,$7*
1,1,$1+$1,$8,$9*
0 Add four rect primitives between the rounded corners*
20,1,$1+$1,$2,$3,$4,$5,0*
20,1,$1+$1,$4,$5,$6,$7,0*
20,1,$1+$1,$6,$7,$8,$9,0*
20,1,$1+$1,$8,$9,$2,$3,0*%
G04 Aperture macros list end*
%TA.AperFunction,ComponentPad*%
%ADD10R,1.800000X1.800000*%
%TD*%
%TA.AperFunction,ComponentPad*%
%ADD11C,1.800000*%
%TD*%
%TA.AperFunction,ComponentPad*%
%ADD12R,1.600000X1.600000*%
%TD*%
%TA.AperFunction,ComponentPad*%
%ADD13O,1.600000X1.600000*%
%TD*%
%TA.AperFunction,ComponentPad*%
%ADD14R,1.700000X1.700000*%
%TD*%
%TA.AperFunction,ComponentPad*%
%ADD15O,1.700000X1.700000*%
%TD*%
%TA.AperFunction,SMDPad,CuDef*%
%ADD16RoundRect,1.000000X-5.000000X-5.000000X5.000000X-5.000000X5.000000X5.000000X-5.000000X5.000000X0*%
%TD*%
%TA.AperFunction,ComponentPad*%
%ADD17R,1.905000X2.000000*%
%TD*%
%TA.AperFunction,ComponentPad*%
%ADD18O,1.905000X2.000000*%
%TD*%
%TA.AperFunction,SMDPad,CuDef*%
%ADD19R,1.651000X1.000000*%
%TD*%
%TA.AperFunction,ViaPad*%
%ADD20C,0.800000*%
%TD*%
%TA.AperFunction,ViaPad*%
%ADD21C,0.500000*%
%TD*%
%TA.AperFunction,Conductor*%
%ADD22C,0.500000*%
%TD*%
%TA.AperFunction,Conductor*%
%ADD23C,1.500000*%
%TD*%
G04 APERTURE END LIST*
D10*
%TO.P,J14,1,1*%
%TO.N,Net-(Q4-C)*%
X65300000Y69400000D03*
D11*
%TO.P,J14,2,2*%
X57100000Y69400000D03*
%TD*%
D10*
%TO.P,J13,1,1*%
%TO.N,Net-(Q3-E)*%
X65300000Y78200000D03*
D11*
%TO.P,J13,2,2*%
X57100000Y78200000D03*
%TD*%
D10*
%TO.P,J12,1,1*%
%TO.N,Net-(Q2-C)*%
X65300000Y73800000D03*
D11*
%TO.P,J12,2,2*%
X57100000Y73800000D03*
%TD*%
D10*
%TO.P,J11,1,1*%
%TO.N,Net-(Q1-E)*%
X65300000Y82600000D03*
D11*
%TO.P,J11,2,2*%
X57100000Y82600000D03*
%TD*%
%TO.P,J10,2,2*%
%TO.N,GND*%
X57230000Y37690000D03*
D10*
%TO.P,J10,1,1*%
X65430000Y37690000D03*
%TD*%
D11*
%TO.P,J9,2,2*%
%TO.N,/TMSTR2*%
X57230000Y33290000D03*
D10*
%TO.P,J9,1,1*%
X65430000Y33290000D03*
%TD*%
D11*
%TO.P,J8,2,2*%
%TO.N,GND*%
X57230000Y28890000D03*
D10*
%TO.P,J8,1,1*%
X65430000Y28890000D03*
%TD*%
%TO.P,J7,1,1*%
%TO.N,/TMSTR1*%
X65430000Y24490000D03*
D11*
%TO.P,J7,2,2*%
X57230000Y24490000D03*
%TD*%
%TO.P,J6,2,2*%
%TO.N,/MAX31855K1/T-*%
X57230000Y55290000D03*
D10*
%TO.P,J6,1,1*%
X65430000Y55290000D03*
%TD*%
D11*
%TO.P,J5,2,2*%
%TO.N,/MAX31855K1/T+*%
X57230000Y50890000D03*
D10*
%TO.P,J5,1,1*%
X65430000Y50890000D03*
%TD*%
D11*
%TO.P,J4,2,2*%
%TO.N,/MAX31855K/T-*%
X57230000Y46490000D03*
D10*
%TO.P,J4,1,1*%
X65430000Y46490000D03*
%TD*%
D11*
%TO.P,J3,2,2*%
%TO.N,/MAX31855K/T+*%
X57230000Y42090000D03*
D10*
%TO.P,J3,1,1*%
X65430000Y42090000D03*
%TD*%
D12*
%TO.P,A1,1,D1/TX*%
%TO.N,unconnected-(A1-D1{slash}TX-Pad1)*%
X19988000Y39800000D03*
D13*
%TO.P,A1,2,D0/RX*%
%TO.N,unconnected-(A1-D0{slash}RX-Pad2)*%
X19988000Y37260000D03*
%TO.P,A1,3,~{RESET}*%
%TO.N,unconnected-(A1-~{RESET}-Pad3)*%
X19988000Y34720000D03*
%TO.P,A1,4,GND*%
%TO.N,GND*%
X19988000Y32180000D03*
%TO.P,A1,5,D2*%
%TO.N,/E_STOP*%
X19988000Y29640000D03*
%TO.P,A1,6,D3*%
%TO.N,/INT*%
X19988000Y27100000D03*
%TO.P,A1,7,D4*%
%TO.N,/SYNC*%
X19988000Y24560000D03*
%TO.P,A1,8,D5*%
%TO.N,/LED*%
X19988000Y22020000D03*
%TO.P,A1,9,D6*%
%TO.N,/SS2*%
X19988000Y19480000D03*
%TO.P,A1,10,D7*%
%TO.N,/DATA*%
X19988000Y16940000D03*
%TO.P,A1,11,D8*%
%TO.N,/SS1*%
X19988000Y14400000D03*
%TO.P,A1,12,D9*%
%TO.N,/CLK*%
X19988000Y11860000D03*
%TO.P,A1,13,D10*%
%TO.N,/PWM2*%
X19988000Y9320000D03*
%TO.P,A1,14,D11*%
%TO.N,/PWM1*%
X19988000Y6780000D03*
%TO.P,A1,15,D12*%
%TO.N,unconnected-(A1-D12-Pad15)*%
X19988000Y4240000D03*
%TO.P,A1,16,D13*%
%TO.N,unconnected-(A1-D13-Pad16)*%
X35228000Y4240000D03*
%TO.P,A1,17,3V3*%
%TO.N,unconnected-(A1-3V3-Pad17)*%
X35228000Y6780000D03*
%TO.P,A1,18,AREF*%
%TO.N,unconnected-(A1-AREF-Pad18)*%
X35228000Y9320000D03*
%TO.P,A1,19,A0*%
%TO.N,/TMSTR1*%
X35228000Y11860000D03*
%TO.P,A1,20,A1*%
%TO.N,/TMSTR2*%
X35228000Y14400000D03*
%TO.P,A1,21,A2*%
%TO.N,unconnected-(A1-A2-Pad21)*%
X35228000Y16940000D03*
%TO.P,A1,22,A3*%
%TO.N,unconnected-(A1-A3-Pad22)*%
X35228000Y19480000D03*
%TO.P,A1,23,A4*%
%TO.N,/I2C_DAT*%
X35228000Y22020000D03*
%TO.P,A1,24,A5*%
%TO.N,/I2C_CLK*%
X35228000Y24560000D03*
%TO.P,A1,25,A6*%
%TO.N,unconnected-(A1-A6-Pad25)*%
X35228000Y27100000D03*
%TO.P,A1,26,A7*%
%TO.N,unconnected-(A1-A7-Pad26)*%
X35228000Y29640000D03*
%TO.P,A1,27,+5V*%
%TO.N,+5V*%
X35228000Y32180000D03*
%TO.P,A1,28,~{RESET}*%
%TO.N,unconnected-(A1-~{RESET}-Pad28)*%
X35228000Y34720000D03*
%TO.P,A1,29,GND*%
%TO.N,GND*%
X35228000Y37260000D03*
%TO.P,A1,30,VIN*%
%TO.N,unconnected-(A1-VIN-Pad30)*%
X35228000Y39800000D03*
%TD*%
D14*
%TO.P,J2,1,Pin_1*%
%TO.N,GND*%
X3600000Y61450000D03*
D15*
%TO.P,J2,2,Pin_2*%
%TO.N,+12V*%
X3600000Y58910000D03*
%TO.P,J2,3,Pin_3*%
%TO.N,/I2C_CLK*%
X3600000Y56370000D03*
%TO.P,J2,4,Pin_4*%
%TO.N,/I2C_DAT*%
X3600000Y53830000D03*
%TO.P,J2,5,Pin_5*%
%TO.N,GND*%
X3600000Y51290000D03*
%TO.P,J2,6,Pin_6*%
%TO.N,/E_STOP*%
X3600000Y48750000D03*
%TO.P,J2,7,Pin_7*%
%TO.N,/INT*%
X3600000Y46210000D03*
%TO.P,J2,8,Pin_8*%
%TO.N,/SYNC*%
X3600000Y43670000D03*
%TO.P,J2,9,Pin_9*%
%TO.N,+12V*%
X3600000Y41130000D03*
%TO.P,J2,10,Pin_10*%
%TO.N,GND*%
X3600000Y38590000D03*
%TD*%
D16*
%TO.P,HS1,1*%
%TO.N,GND*%
X8750000Y18445000D03*
%TD*%
D17*
%TO.P,Q1,1,B*%
%TO.N,/E_STOP*%
X17960000Y74070000D03*
D18*
%TO.P,Q1,2,C*%
%TO.N,+12V*%
X20500000Y74070000D03*
%TO.P,Q1,3,E*%
%TO.N,Net-(Q1-E)*%
X23040000Y74070000D03*
%TD*%
D17*
%TO.P,Q3,1,B*%
%TO.N,/E_STOP*%
X18060000Y67530000D03*
D18*
%TO.P,Q3,2,C*%
%TO.N,+12V*%
X20600000Y67530000D03*
%TO.P,Q3,3,E*%
%TO.N,Net-(Q3-E)*%
X23140000Y67530000D03*
%TD*%
D19*
%TO.P,D1,1,VDD*%
%TO.N,+5V*%
X48123000Y5267231D03*
%TO.P,D1,2,DOUT*%
%TO.N,unconnected-(D1-DOUT-Pad2)*%
X48123000Y2067231D03*
%TO.P,D1,3,VSS*%
%TO.N,GND*%
X53277000Y2067231D03*
%TO.P,D1,4,DIN*%
%TO.N,/LED*%
X53277000Y5267231D03*
%TD*%
D17*
%TO.P,Q2,1,B*%
%TO.N,/PWM1*%
X30860000Y74070000D03*
D18*
%TO.P,Q2,2,C*%
%TO.N,Net-(Q2-C)*%
X33400000Y74070000D03*
%TO.P,Q2,3,E*%
%TO.N,GND*%
X35940000Y74070000D03*
%TD*%
D17*
%TO.P,Q4,1,B*%
%TO.N,/PWM2*%
X29760000Y67530000D03*
D18*
%TO.P,Q4,2,C*%
%TO.N,Net-(Q4-C)*%
X32300000Y67530000D03*
%TO.P,Q4,3,E*%
%TO.N,GND*%
X34840000Y67530000D03*
%TD*%
D20*
%TO.N,+5V*%
X48123000Y5267231D03*
%TO.N,GND*%
X14250000Y21895000D03*
X3750000Y13345000D03*
D21*
X7250000Y18845000D03*
D20*
X7350000Y23595000D03*
D21*
X8550000Y19545000D03*
X8550000Y21045000D03*
X7450000Y21845000D03*
D20*
X50200000Y2100000D03*
D21*
X9750000Y21845000D03*
D20*
X3550000Y16595000D03*
X14250000Y13995000D03*
X14250000Y18995000D03*
D21*
X8150000Y18845000D03*
X6150000Y16145000D03*
D20*
%TO.N,+5V*%
X24235158Y5635158D03*
%TD*%
D22*
%TO.N,GND*%
X50200000Y2100000D02*
X50232769Y2067231D01*
X50232769Y2067231D02*
X53277000Y2067231D01*
%TO.N,+5V*%
X47677281Y5267231D02*
X48123000Y5267231D01*
X28260000Y1900000D02*
X44310050Y1900000D01*
X24524842Y5635158D02*
X28260000Y1900000D01*
X24235158Y5635158D02*
X24524842Y5635158D01*
D23*
X35208000Y32180000D02*
X35228000Y32180000D01*
D22*
X44310050Y1900000D02*
X47677281Y5267231D01*
%TO.N,/LED*%
X27388000Y1200000D02*
X44600000Y1200000D01*
X19988000Y22020000D02*
X20068000Y22020000D01*
X44600000Y1200000D02*
X47000000Y3600000D01*
X51609769Y3600000D02*
X53277000Y5267231D01*
X21688000Y20400000D02*
X21688000Y6900000D01*
X47000000Y3600000D02*
X51609769Y3600000D01*
X21688000Y6900000D02*
X27388000Y1200000D01*
X20068000Y22020000D02*
X21688000Y20400000D01*
%TO.N,/I2C_CLK*%
X34240000Y24560000D02*
X31688000Y27112000D01*
X31688000Y31451950D02*
X20739950Y42400000D01*
X35228000Y24560000D02*
X34240000Y24560000D01*
X31688000Y27112000D02*
X31688000Y31451950D01*
X17600000Y42400000D02*
X3630000Y56370000D01*
X3630000Y56370000D02*
X3600000Y56370000D01*
X20739950Y42400000D02*
X17600000Y42400000D01*
%TO.N,/I2C_DAT*%
X30988000Y26260000D02*
X35228000Y22020000D01*
X30988000Y31162000D02*
X30988000Y26260000D01*
X20450000Y41700000D02*
X30988000Y31162000D01*
X3600000Y53830000D02*
X3600000Y53296000D01*
X15196000Y41700000D02*
X20450000Y41700000D01*
X3600000Y53296000D02*
X15196000Y41700000D01*
%TO.N,/SYNC*%
X12248000Y32300000D02*
X19988000Y24560000D01*
X8900100Y32300000D02*
X12248000Y32300000D01*
X5800000Y35400100D02*
X8900100Y32300000D01*
X3600000Y43670000D02*
X5800000Y41470000D01*
X5800000Y41470000D02*
X5800000Y35400100D01*
%TO.N,/E_STOP*%
X3600000Y48750000D02*
X4250000Y48750000D01*
X9480000Y33700000D02*
X15928000Y33700000D01*
X15928000Y33700000D02*
X19988000Y29640000D01*
X7200000Y45800000D02*
X7200000Y35980000D01*
X4250000Y48750000D02*
X7200000Y45800000D01*
X7200000Y35980000D02*
X9480000Y33700000D01*
D23*
%TO.N,+12V*%
X3600000Y58910000D02*
X3594415Y58910000D01*
X1800000Y42924415D02*
X3594415Y41130000D01*
X1800000Y57115585D02*
X1800000Y42924415D01*
X3594415Y58910000D02*
X1800000Y57115585D01*
X3594415Y41130000D02*
X3600000Y41130000D01*
D22*
%TO.N,/INT*%
X6500000Y43310000D02*
X6500000Y35690050D01*
X9190050Y33000000D02*
X14088000Y33000000D01*
X3600000Y46210000D02*
X6500000Y43310000D01*
X14088000Y33000000D02*
X19988000Y27100000D01*
X6500000Y35690050D02*
X9190050Y33000000D01*
%TD*%
M02*
