%TF.GenerationSoftware,KiCad,Pcbnew,8.0.5*%
%TF.CreationDate,2024-09-29T17:35:40-04:00*%
%TF.ProjectId,BREAD_Slice,42524541-445f-4536-9c69-63652e6b6963,rev?*%
%TF.SameCoordinates,PX74eba40PY8552dc0*%
%TF.FileFunction,Legend,Bot*%
%TF.FilePolarity,Positive*%
%FSLAX46Y46*%
G04 Gerber Fmt 4.6, Leading zero omitted, Abs format (unit mm)*
G04 Created by KiCad (PCBNEW 8.0.5) date 2024-09-29 17:35:40*
%MOMM*%
%LPD*%
G01*
G04 APERTURE LIST*
%ADD10C,0.120000*%
%ADD11C,0.150000*%
G04 APERTURE END LIST*
D10*
X2450000Y26913000D02*
X3770000Y26913000D01*
X4250000Y26913000D02*
X5570000Y26913000D01*
X6050000Y26913000D02*
X7370000Y26913000D01*
X7850000Y26913000D02*
X9170000Y26913000D01*
X9650000Y26913000D02*
X10970000Y26913000D01*
X11450000Y26913000D02*
X12770000Y26913000D01*
X13250000Y26913000D02*
X14570000Y26913000D01*
X15050000Y26913000D02*
X16150000Y26913000D01*
X16150000Y26913000D02*
X16150000Y25593000D01*
X16150000Y25113000D02*
X16150000Y23793000D01*
X16150000Y23313000D02*
X16150000Y21993000D01*
X16150000Y21513000D02*
X16150000Y20193000D01*
X16150000Y19713000D02*
X16150000Y18393000D01*
X16150000Y17913000D02*
X16150000Y16593000D01*
X16150000Y16113000D02*
X16150000Y14793000D01*
X16150000Y14313000D02*
X16150000Y12993000D01*
X16150000Y12513000D02*
X16150000Y11193000D01*
X16150000Y10713000D02*
X16150000Y10445000D01*
X16150000Y10445000D02*
X14830000Y10445000D01*
X14350000Y10445000D02*
X13030000Y10445000D01*
X12550000Y10445000D02*
X11230000Y10445000D01*
X10750000Y10445000D02*
X9430000Y10445000D01*
X8950000Y10445000D02*
X7630000Y10445000D01*
X7150000Y10445000D02*
X5830000Y10445000D01*
X5350000Y10445000D02*
X4030000Y10445000D01*
X3550000Y10445000D02*
X2450000Y10445000D01*
X2450000Y10445000D02*
X2450000Y11765000D01*
X2450000Y12245000D02*
X2450000Y13565000D01*
X2450000Y14045000D02*
X2450000Y15365000D01*
X2450000Y15845000D02*
X2450000Y17165000D01*
X2450000Y17645000D02*
X2450000Y18965000D01*
X2450000Y19445000D02*
X2450000Y20765000D01*
X2450000Y21245000D02*
X2450000Y22565000D01*
X2450000Y23045000D02*
X2450000Y24365000D01*
X2450000Y24845000D02*
X2450000Y26165000D01*
X2450000Y26645000D02*
X2450000Y26913000D01*
D11*
X13773809Y25375181D02*
X14345237Y25375181D01*
X14059523Y25375181D02*
X14059523Y26375181D01*
X14059523Y26375181D02*
X14154761Y26232324D01*
X14154761Y26232324D02*
X14249999Y26137086D01*
X14249999Y26137086D02*
X14345237Y26089467D01*
X13392856Y26279943D02*
X13345237Y26327562D01*
X13345237Y26327562D02*
X13249999Y26375181D01*
X13249999Y26375181D02*
X13011904Y26375181D01*
X13011904Y26375181D02*
X12916666Y26327562D01*
X12916666Y26327562D02*
X12869047Y26279943D01*
X12869047Y26279943D02*
X12821428Y26184705D01*
X12821428Y26184705D02*
X12821428Y26089467D01*
X12821428Y26089467D02*
X12869047Y25946610D01*
X12869047Y25946610D02*
X13440475Y25375181D01*
X13440475Y25375181D02*
X12821428Y25375181D01*
X12535713Y26375181D02*
X12202380Y25375181D01*
X12202380Y25375181D02*
X11869047Y26375181D01*
X11535713Y25756134D02*
X10773809Y25756134D01*
X10297618Y26041848D02*
X9535714Y25756134D01*
X9535714Y25756134D02*
X10297618Y25470420D01*
X8583333Y26375181D02*
X9059523Y26375181D01*
X9059523Y26375181D02*
X9107142Y25898991D01*
X9107142Y25898991D02*
X9059523Y25946610D01*
X9059523Y25946610D02*
X8964285Y25994229D01*
X8964285Y25994229D02*
X8726190Y25994229D01*
X8726190Y25994229D02*
X8630952Y25946610D01*
X8630952Y25946610D02*
X8583333Y25898991D01*
X8583333Y25898991D02*
X8535714Y25803753D01*
X8535714Y25803753D02*
X8535714Y25565658D01*
X8535714Y25565658D02*
X8583333Y25470420D01*
X8583333Y25470420D02*
X8630952Y25422800D01*
X8630952Y25422800D02*
X8726190Y25375181D01*
X8726190Y25375181D02*
X8964285Y25375181D01*
X8964285Y25375181D02*
X9059523Y25422800D01*
X9059523Y25422800D02*
X9107142Y25470420D01*
X8249999Y26375181D02*
X7916666Y25375181D01*
X7916666Y25375181D02*
X7583333Y26375181D01*
X5916666Y25375181D02*
X6249999Y25851372D01*
X6488094Y25375181D02*
X6488094Y26375181D01*
X6488094Y26375181D02*
X6107142Y26375181D01*
X6107142Y26375181D02*
X6011904Y26327562D01*
X6011904Y26327562D02*
X5964285Y26279943D01*
X5964285Y26279943D02*
X5916666Y26184705D01*
X5916666Y26184705D02*
X5916666Y26041848D01*
X5916666Y26041848D02*
X5964285Y25946610D01*
X5964285Y25946610D02*
X6011904Y25898991D01*
X6011904Y25898991D02*
X6107142Y25851372D01*
X6107142Y25851372D02*
X6488094Y25851372D01*
X5107142Y25422800D02*
X5202380Y25375181D01*
X5202380Y25375181D02*
X5392856Y25375181D01*
X5392856Y25375181D02*
X5488094Y25422800D01*
X5488094Y25422800D02*
X5535713Y25518039D01*
X5535713Y25518039D02*
X5535713Y25898991D01*
X5535713Y25898991D02*
X5488094Y25994229D01*
X5488094Y25994229D02*
X5392856Y26041848D01*
X5392856Y26041848D02*
X5202380Y26041848D01*
X5202380Y26041848D02*
X5107142Y25994229D01*
X5107142Y25994229D02*
X5059523Y25898991D01*
X5059523Y25898991D02*
X5059523Y25803753D01*
X5059523Y25803753D02*
X5535713Y25708515D01*
X4202380Y26041848D02*
X4202380Y25232324D01*
X4202380Y25232324D02*
X4249999Y25137086D01*
X4249999Y25137086D02*
X4297618Y25089467D01*
X4297618Y25089467D02*
X4392856Y25041848D01*
X4392856Y25041848D02*
X4535713Y25041848D01*
X4535713Y25041848D02*
X4630951Y25089467D01*
X4202380Y25422800D02*
X4297618Y25375181D01*
X4297618Y25375181D02*
X4488094Y25375181D01*
X4488094Y25375181D02*
X4583332Y25422800D01*
X4583332Y25422800D02*
X4630951Y25470420D01*
X4630951Y25470420D02*
X4678570Y25565658D01*
X4678570Y25565658D02*
X4678570Y25851372D01*
X4678570Y25851372D02*
X4630951Y25946610D01*
X4630951Y25946610D02*
X4583332Y25994229D01*
X4583332Y25994229D02*
X4488094Y26041848D01*
X4488094Y26041848D02*
X4297618Y26041848D01*
X4297618Y26041848D02*
X4202380Y25994229D01*
X29764666Y10740125D02*
X30240856Y10740125D01*
X30240856Y10740125D02*
X30288475Y10263935D01*
X30288475Y10263935D02*
X30240856Y10311554D01*
X30240856Y10311554D02*
X30145618Y10359173D01*
X30145618Y10359173D02*
X29907523Y10359173D01*
X29907523Y10359173D02*
X29812285Y10311554D01*
X29812285Y10311554D02*
X29764666Y10263935D01*
X29764666Y10263935D02*
X29717047Y10168697D01*
X29717047Y10168697D02*
X29717047Y9930602D01*
X29717047Y9930602D02*
X29764666Y9835364D01*
X29764666Y9835364D02*
X29812285Y9787744D01*
X29812285Y9787744D02*
X29907523Y9740125D01*
X29907523Y9740125D02*
X30145618Y9740125D01*
X30145618Y9740125D02*
X30240856Y9787744D01*
X30240856Y9787744D02*
X30288475Y9835364D01*
X29431332Y10740125D02*
X29097999Y9740125D01*
X29097999Y9740125D02*
X28764666Y10740125D01*
X27669427Y9740125D02*
X27669427Y10740125D01*
X27240856Y10644887D02*
X27193237Y10692506D01*
X27193237Y10692506D02*
X27097999Y10740125D01*
X27097999Y10740125D02*
X26859904Y10740125D01*
X26859904Y10740125D02*
X26764666Y10692506D01*
X26764666Y10692506D02*
X26717047Y10644887D01*
X26717047Y10644887D02*
X26669428Y10549649D01*
X26669428Y10549649D02*
X26669428Y10454411D01*
X26669428Y10454411D02*
X26717047Y10311554D01*
X26717047Y10311554D02*
X27288475Y9740125D01*
X27288475Y9740125D02*
X26669428Y9740125D01*
X25669428Y9835364D02*
X25717047Y9787744D01*
X25717047Y9787744D02*
X25859904Y9740125D01*
X25859904Y9740125D02*
X25955142Y9740125D01*
X25955142Y9740125D02*
X26097999Y9787744D01*
X26097999Y9787744D02*
X26193237Y9882983D01*
X26193237Y9882983D02*
X26240856Y9978221D01*
X26240856Y9978221D02*
X26288475Y10168697D01*
X26288475Y10168697D02*
X26288475Y10311554D01*
X26288475Y10311554D02*
X26240856Y10502030D01*
X26240856Y10502030D02*
X26193237Y10597268D01*
X26193237Y10597268D02*
X26097999Y10692506D01*
X26097999Y10692506D02*
X25955142Y10740125D01*
X25955142Y10740125D02*
X25859904Y10740125D01*
X25859904Y10740125D02*
X25717047Y10692506D01*
X25717047Y10692506D02*
X25669428Y10644887D01*
X30550381Y8225420D02*
X30598000Y8177800D01*
X30598000Y8177800D02*
X30740857Y8130181D01*
X30740857Y8130181D02*
X30836095Y8130181D01*
X30836095Y8130181D02*
X30978952Y8177800D01*
X30978952Y8177800D02*
X31074190Y8273039D01*
X31074190Y8273039D02*
X31121809Y8368277D01*
X31121809Y8368277D02*
X31169428Y8558753D01*
X31169428Y8558753D02*
X31169428Y8701610D01*
X31169428Y8701610D02*
X31121809Y8892086D01*
X31121809Y8892086D02*
X31074190Y8987324D01*
X31074190Y8987324D02*
X30978952Y9082562D01*
X30978952Y9082562D02*
X30836095Y9130181D01*
X30836095Y9130181D02*
X30740857Y9130181D01*
X30740857Y9130181D02*
X30598000Y9082562D01*
X30598000Y9082562D02*
X30550381Y9034943D01*
X29978952Y8130181D02*
X30074190Y8177800D01*
X30074190Y8177800D02*
X30121809Y8225420D01*
X30121809Y8225420D02*
X30169428Y8320658D01*
X30169428Y8320658D02*
X30169428Y8606372D01*
X30169428Y8606372D02*
X30121809Y8701610D01*
X30121809Y8701610D02*
X30074190Y8749229D01*
X30074190Y8749229D02*
X29978952Y8796848D01*
X29978952Y8796848D02*
X29836095Y8796848D01*
X29836095Y8796848D02*
X29740857Y8749229D01*
X29740857Y8749229D02*
X29693238Y8701610D01*
X29693238Y8701610D02*
X29645619Y8606372D01*
X29645619Y8606372D02*
X29645619Y8320658D01*
X29645619Y8320658D02*
X29693238Y8225420D01*
X29693238Y8225420D02*
X29740857Y8177800D01*
X29740857Y8177800D02*
X29836095Y8130181D01*
X29836095Y8130181D02*
X29978952Y8130181D01*
X29217047Y8796848D02*
X29217047Y8130181D01*
X29217047Y8701610D02*
X29169428Y8749229D01*
X29169428Y8749229D02*
X29074190Y8796848D01*
X29074190Y8796848D02*
X28931333Y8796848D01*
X28931333Y8796848D02*
X28836095Y8749229D01*
X28836095Y8749229D02*
X28788476Y8653991D01*
X28788476Y8653991D02*
X28788476Y8130181D01*
X28312285Y8796848D02*
X28312285Y8130181D01*
X28312285Y8701610D02*
X28264666Y8749229D01*
X28264666Y8749229D02*
X28169428Y8796848D01*
X28169428Y8796848D02*
X28026571Y8796848D01*
X28026571Y8796848D02*
X27931333Y8749229D01*
X27931333Y8749229D02*
X27883714Y8653991D01*
X27883714Y8653991D02*
X27883714Y8130181D01*
X27026571Y8177800D02*
X27121809Y8130181D01*
X27121809Y8130181D02*
X27312285Y8130181D01*
X27312285Y8130181D02*
X27407523Y8177800D01*
X27407523Y8177800D02*
X27455142Y8273039D01*
X27455142Y8273039D02*
X27455142Y8653991D01*
X27455142Y8653991D02*
X27407523Y8749229D01*
X27407523Y8749229D02*
X27312285Y8796848D01*
X27312285Y8796848D02*
X27121809Y8796848D01*
X27121809Y8796848D02*
X27026571Y8749229D01*
X27026571Y8749229D02*
X26978952Y8653991D01*
X26978952Y8653991D02*
X26978952Y8558753D01*
X26978952Y8558753D02*
X27455142Y8463515D01*
X26121809Y8177800D02*
X26217047Y8130181D01*
X26217047Y8130181D02*
X26407523Y8130181D01*
X26407523Y8130181D02*
X26502761Y8177800D01*
X26502761Y8177800D02*
X26550380Y8225420D01*
X26550380Y8225420D02*
X26597999Y8320658D01*
X26597999Y8320658D02*
X26597999Y8606372D01*
X26597999Y8606372D02*
X26550380Y8701610D01*
X26550380Y8701610D02*
X26502761Y8749229D01*
X26502761Y8749229D02*
X26407523Y8796848D01*
X26407523Y8796848D02*
X26217047Y8796848D01*
X26217047Y8796848D02*
X26121809Y8749229D01*
X25836094Y8796848D02*
X25455142Y8796848D01*
X25693237Y9130181D02*
X25693237Y8273039D01*
X25693237Y8273039D02*
X25645618Y8177800D01*
X25645618Y8177800D02*
X25550380Y8130181D01*
X25550380Y8130181D02*
X25455142Y8130181D01*
X24978951Y8130181D02*
X25074189Y8177800D01*
X25074189Y8177800D02*
X25121808Y8225420D01*
X25121808Y8225420D02*
X25169427Y8320658D01*
X25169427Y8320658D02*
X25169427Y8606372D01*
X25169427Y8606372D02*
X25121808Y8701610D01*
X25121808Y8701610D02*
X25074189Y8749229D01*
X25074189Y8749229D02*
X24978951Y8796848D01*
X24978951Y8796848D02*
X24836094Y8796848D01*
X24836094Y8796848D02*
X24740856Y8749229D01*
X24740856Y8749229D02*
X24693237Y8701610D01*
X24693237Y8701610D02*
X24645618Y8606372D01*
X24645618Y8606372D02*
X24645618Y8320658D01*
X24645618Y8320658D02*
X24693237Y8225420D01*
X24693237Y8225420D02*
X24740856Y8177800D01*
X24740856Y8177800D02*
X24836094Y8130181D01*
X24836094Y8130181D02*
X24978951Y8130181D01*
X24217046Y8130181D02*
X24217046Y8796848D01*
X24217046Y8606372D02*
X24169427Y8701610D01*
X24169427Y8701610D02*
X24121808Y8749229D01*
X24121808Y8749229D02*
X24026570Y8796848D01*
X24026570Y8796848D02*
X23931332Y8796848D01*
X39659819Y35691667D02*
X39183628Y36025000D01*
X39659819Y36263095D02*
X38659819Y36263095D01*
X38659819Y36263095D02*
X38659819Y35882143D01*
X38659819Y35882143D02*
X38707438Y35786905D01*
X38707438Y35786905D02*
X38755057Y35739286D01*
X38755057Y35739286D02*
X38850295Y35691667D01*
X38850295Y35691667D02*
X38993152Y35691667D01*
X38993152Y35691667D02*
X39088390Y35739286D01*
X39088390Y35739286D02*
X39136009Y35786905D01*
X39136009Y35786905D02*
X39183628Y35882143D01*
X39183628Y35882143D02*
X39183628Y36263095D01*
X38993152Y34834524D02*
X39659819Y34834524D01*
X38612200Y35072619D02*
X39326485Y35310714D01*
X39326485Y35310714D02*
X39326485Y34691667D01*
X44336904Y58070181D02*
X44336904Y57260658D01*
X44336904Y57260658D02*
X44289285Y57165420D01*
X44289285Y57165420D02*
X44241666Y57117800D01*
X44241666Y57117800D02*
X44146428Y57070181D01*
X44146428Y57070181D02*
X43955952Y57070181D01*
X43955952Y57070181D02*
X43860714Y57117800D01*
X43860714Y57117800D02*
X43813095Y57165420D01*
X43813095Y57165420D02*
X43765476Y57260658D01*
X43765476Y57260658D02*
X43765476Y58070181D01*
X43384523Y58070181D02*
X42765476Y58070181D01*
X42765476Y58070181D02*
X43098809Y57689229D01*
X43098809Y57689229D02*
X42955952Y57689229D01*
X42955952Y57689229D02*
X42860714Y57641610D01*
X42860714Y57641610D02*
X42813095Y57593991D01*
X42813095Y57593991D02*
X42765476Y57498753D01*
X42765476Y57498753D02*
X42765476Y57260658D01*
X42765476Y57260658D02*
X42813095Y57165420D01*
X42813095Y57165420D02*
X42860714Y57117800D01*
X42860714Y57117800D02*
X42955952Y57070181D01*
X42955952Y57070181D02*
X43241666Y57070181D01*
X43241666Y57070181D02*
X43336904Y57117800D01*
X43336904Y57117800D02*
X43384523Y57165420D01*
X52083333Y58418991D02*
X52416666Y58418991D01*
X52416666Y57895181D02*
X52416666Y58895181D01*
X52416666Y58895181D02*
X51940476Y58895181D01*
X51226190Y58418991D02*
X51083333Y58371372D01*
X51083333Y58371372D02*
X51035714Y58323753D01*
X51035714Y58323753D02*
X50988095Y58228515D01*
X50988095Y58228515D02*
X50988095Y58085658D01*
X50988095Y58085658D02*
X51035714Y57990420D01*
X51035714Y57990420D02*
X51083333Y57942800D01*
X51083333Y57942800D02*
X51178571Y57895181D01*
X51178571Y57895181D02*
X51559523Y57895181D01*
X51559523Y57895181D02*
X51559523Y58895181D01*
X51559523Y58895181D02*
X51226190Y58895181D01*
X51226190Y58895181D02*
X51130952Y58847562D01*
X51130952Y58847562D02*
X51083333Y58799943D01*
X51083333Y58799943D02*
X51035714Y58704705D01*
X51035714Y58704705D02*
X51035714Y58609467D01*
X51035714Y58609467D02*
X51083333Y58514229D01*
X51083333Y58514229D02*
X51130952Y58466610D01*
X51130952Y58466610D02*
X51226190Y58418991D01*
X51226190Y58418991D02*
X51559523Y58418991D01*
X50130952Y58561848D02*
X50130952Y57895181D01*
X50369047Y58942800D02*
X50607142Y58228515D01*
X50607142Y58228515D02*
X49988095Y58228515D01*
X27921333Y2245181D02*
X27921333Y1530896D01*
X27921333Y1530896D02*
X27968952Y1388039D01*
X27968952Y1388039D02*
X28064190Y1292800D01*
X28064190Y1292800D02*
X28207047Y1245181D01*
X28207047Y1245181D02*
X28302285Y1245181D01*
X26921333Y1245181D02*
X27492761Y1245181D01*
X27207047Y1245181D02*
X27207047Y2245181D01*
X27207047Y2245181D02*
X27302285Y2102324D01*
X27302285Y2102324D02*
X27397523Y2007086D01*
X27397523Y2007086D02*
X27492761Y1959467D01*
X6116666Y21835420D02*
X6164285Y21787800D01*
X6164285Y21787800D02*
X6307142Y21740181D01*
X6307142Y21740181D02*
X6402380Y21740181D01*
X6402380Y21740181D02*
X6545237Y21787800D01*
X6545237Y21787800D02*
X6640475Y21883039D01*
X6640475Y21883039D02*
X6688094Y21978277D01*
X6688094Y21978277D02*
X6735713Y22168753D01*
X6735713Y22168753D02*
X6735713Y22311610D01*
X6735713Y22311610D02*
X6688094Y22502086D01*
X6688094Y22502086D02*
X6640475Y22597324D01*
X6640475Y22597324D02*
X6545237Y22692562D01*
X6545237Y22692562D02*
X6402380Y22740181D01*
X6402380Y22740181D02*
X6307142Y22740181D01*
X6307142Y22740181D02*
X6164285Y22692562D01*
X6164285Y22692562D02*
X6116666Y22644943D01*
X5164285Y21740181D02*
X5735713Y21740181D01*
X5449999Y21740181D02*
X5449999Y22740181D01*
X5449999Y22740181D02*
X5545237Y22597324D01*
X5545237Y22597324D02*
X5640475Y22502086D01*
X5640475Y22502086D02*
X5735713Y22454467D01*
X51709819Y32241667D02*
X51233628Y32575000D01*
X51709819Y32813095D02*
X50709819Y32813095D01*
X50709819Y32813095D02*
X50709819Y32432143D01*
X50709819Y32432143D02*
X50757438Y32336905D01*
X50757438Y32336905D02*
X50805057Y32289286D01*
X50805057Y32289286D02*
X50900295Y32241667D01*
X50900295Y32241667D02*
X51043152Y32241667D01*
X51043152Y32241667D02*
X51138390Y32289286D01*
X51138390Y32289286D02*
X51186009Y32336905D01*
X51186009Y32336905D02*
X51233628Y32432143D01*
X51233628Y32432143D02*
X51233628Y32813095D01*
X50805057Y31860714D02*
X50757438Y31813095D01*
X50757438Y31813095D02*
X50709819Y31717857D01*
X50709819Y31717857D02*
X50709819Y31479762D01*
X50709819Y31479762D02*
X50757438Y31384524D01*
X50757438Y31384524D02*
X50805057Y31336905D01*
X50805057Y31336905D02*
X50900295Y31289286D01*
X50900295Y31289286D02*
X50995533Y31289286D01*
X50995533Y31289286D02*
X51138390Y31336905D01*
X51138390Y31336905D02*
X51709819Y31908333D01*
X51709819Y31908333D02*
X51709819Y31289286D01*
X45799819Y35691667D02*
X45323628Y36025000D01*
X45799819Y36263095D02*
X44799819Y36263095D01*
X44799819Y36263095D02*
X44799819Y35882143D01*
X44799819Y35882143D02*
X44847438Y35786905D01*
X44847438Y35786905D02*
X44895057Y35739286D01*
X44895057Y35739286D02*
X44990295Y35691667D01*
X44990295Y35691667D02*
X45133152Y35691667D01*
X45133152Y35691667D02*
X45228390Y35739286D01*
X45228390Y35739286D02*
X45276009Y35786905D01*
X45276009Y35786905D02*
X45323628Y35882143D01*
X45323628Y35882143D02*
X45323628Y36263095D01*
X44799819Y35358333D02*
X44799819Y34739286D01*
X44799819Y34739286D02*
X45180771Y35072619D01*
X45180771Y35072619D02*
X45180771Y34929762D01*
X45180771Y34929762D02*
X45228390Y34834524D01*
X45228390Y34834524D02*
X45276009Y34786905D01*
X45276009Y34786905D02*
X45371247Y34739286D01*
X45371247Y34739286D02*
X45609342Y34739286D01*
X45609342Y34739286D02*
X45704580Y34786905D01*
X45704580Y34786905D02*
X45752200Y34834524D01*
X45752200Y34834524D02*
X45799819Y34929762D01*
X45799819Y34929762D02*
X45799819Y35215476D01*
X45799819Y35215476D02*
X45752200Y35310714D01*
X45752200Y35310714D02*
X45704580Y35358333D01*
X45749819Y48791667D02*
X45273628Y49125000D01*
X45749819Y49363095D02*
X44749819Y49363095D01*
X44749819Y49363095D02*
X44749819Y48982143D01*
X44749819Y48982143D02*
X44797438Y48886905D01*
X44797438Y48886905D02*
X44845057Y48839286D01*
X44845057Y48839286D02*
X44940295Y48791667D01*
X44940295Y48791667D02*
X45083152Y48791667D01*
X45083152Y48791667D02*
X45178390Y48839286D01*
X45178390Y48839286D02*
X45226009Y48886905D01*
X45226009Y48886905D02*
X45273628Y48982143D01*
X45273628Y48982143D02*
X45273628Y49363095D01*
X44749819Y47886905D02*
X44749819Y48363095D01*
X44749819Y48363095D02*
X45226009Y48410714D01*
X45226009Y48410714D02*
X45178390Y48363095D01*
X45178390Y48363095D02*
X45130771Y48267857D01*
X45130771Y48267857D02*
X45130771Y48029762D01*
X45130771Y48029762D02*
X45178390Y47934524D01*
X45178390Y47934524D02*
X45226009Y47886905D01*
X45226009Y47886905D02*
X45321247Y47839286D01*
X45321247Y47839286D02*
X45559342Y47839286D01*
X45559342Y47839286D02*
X45654580Y47886905D01*
X45654580Y47886905D02*
X45702200Y47934524D01*
X45702200Y47934524D02*
X45749819Y48029762D01*
X45749819Y48029762D02*
X45749819Y48267857D01*
X45749819Y48267857D02*
X45702200Y48363095D01*
X45702200Y48363095D02*
X45654580Y48410714D01*
X6011904Y14945181D02*
X6011904Y14135658D01*
X6011904Y14135658D02*
X5964285Y14040420D01*
X5964285Y14040420D02*
X5916666Y13992800D01*
X5916666Y13992800D02*
X5821428Y13945181D01*
X5821428Y13945181D02*
X5630952Y13945181D01*
X5630952Y13945181D02*
X5535714Y13992800D01*
X5535714Y13992800D02*
X5488095Y14040420D01*
X5488095Y14040420D02*
X5440476Y14135658D01*
X5440476Y14135658D02*
X5440476Y14945181D01*
X4440476Y13945181D02*
X5011904Y13945181D01*
X4726190Y13945181D02*
X4726190Y14945181D01*
X4726190Y14945181D02*
X4821428Y14802324D01*
X4821428Y14802324D02*
X4916666Y14707086D01*
X4916666Y14707086D02*
X5011904Y14659467D01*
X48316666Y53740420D02*
X48364285Y53692800D01*
X48364285Y53692800D02*
X48507142Y53645181D01*
X48507142Y53645181D02*
X48602380Y53645181D01*
X48602380Y53645181D02*
X48745237Y53692800D01*
X48745237Y53692800D02*
X48840475Y53788039D01*
X48840475Y53788039D02*
X48888094Y53883277D01*
X48888094Y53883277D02*
X48935713Y54073753D01*
X48935713Y54073753D02*
X48935713Y54216610D01*
X48935713Y54216610D02*
X48888094Y54407086D01*
X48888094Y54407086D02*
X48840475Y54502324D01*
X48840475Y54502324D02*
X48745237Y54597562D01*
X48745237Y54597562D02*
X48602380Y54645181D01*
X48602380Y54645181D02*
X48507142Y54645181D01*
X48507142Y54645181D02*
X48364285Y54597562D01*
X48364285Y54597562D02*
X48316666Y54549943D01*
X47459523Y54645181D02*
X47649999Y54645181D01*
X47649999Y54645181D02*
X47745237Y54597562D01*
X47745237Y54597562D02*
X47792856Y54549943D01*
X47792856Y54549943D02*
X47888094Y54407086D01*
X47888094Y54407086D02*
X47935713Y54216610D01*
X47935713Y54216610D02*
X47935713Y53835658D01*
X47935713Y53835658D02*
X47888094Y53740420D01*
X47888094Y53740420D02*
X47840475Y53692800D01*
X47840475Y53692800D02*
X47745237Y53645181D01*
X47745237Y53645181D02*
X47554761Y53645181D01*
X47554761Y53645181D02*
X47459523Y53692800D01*
X47459523Y53692800D02*
X47411904Y53740420D01*
X47411904Y53740420D02*
X47364285Y53835658D01*
X47364285Y53835658D02*
X47364285Y54073753D01*
X47364285Y54073753D02*
X47411904Y54168991D01*
X47411904Y54168991D02*
X47459523Y54216610D01*
X47459523Y54216610D02*
X47554761Y54264229D01*
X47554761Y54264229D02*
X47745237Y54264229D01*
X47745237Y54264229D02*
X47840475Y54216610D01*
X47840475Y54216610D02*
X47888094Y54168991D01*
X47888094Y54168991D02*
X47935713Y54073753D01*
X44361904Y44835181D02*
X44361904Y44025658D01*
X44361904Y44025658D02*
X44314285Y43930420D01*
X44314285Y43930420D02*
X44266666Y43882800D01*
X44266666Y43882800D02*
X44171428Y43835181D01*
X44171428Y43835181D02*
X43980952Y43835181D01*
X43980952Y43835181D02*
X43885714Y43882800D01*
X43885714Y43882800D02*
X43838095Y43930420D01*
X43838095Y43930420D02*
X43790476Y44025658D01*
X43790476Y44025658D02*
X43790476Y44835181D01*
X43361904Y44739943D02*
X43314285Y44787562D01*
X43314285Y44787562D02*
X43219047Y44835181D01*
X43219047Y44835181D02*
X42980952Y44835181D01*
X42980952Y44835181D02*
X42885714Y44787562D01*
X42885714Y44787562D02*
X42838095Y44739943D01*
X42838095Y44739943D02*
X42790476Y44644705D01*
X42790476Y44644705D02*
X42790476Y44549467D01*
X42790476Y44549467D02*
X42838095Y44406610D01*
X42838095Y44406610D02*
X43409523Y43835181D01*
X43409523Y43835181D02*
X42790476Y43835181D01*
X52158333Y49773991D02*
X52491666Y49773991D01*
X52491666Y49250181D02*
X52491666Y50250181D01*
X52491666Y50250181D02*
X52015476Y50250181D01*
X51301190Y49773991D02*
X51158333Y49726372D01*
X51158333Y49726372D02*
X51110714Y49678753D01*
X51110714Y49678753D02*
X51063095Y49583515D01*
X51063095Y49583515D02*
X51063095Y49440658D01*
X51063095Y49440658D02*
X51110714Y49345420D01*
X51110714Y49345420D02*
X51158333Y49297800D01*
X51158333Y49297800D02*
X51253571Y49250181D01*
X51253571Y49250181D02*
X51634523Y49250181D01*
X51634523Y49250181D02*
X51634523Y50250181D01*
X51634523Y50250181D02*
X51301190Y50250181D01*
X51301190Y50250181D02*
X51205952Y50202562D01*
X51205952Y50202562D02*
X51158333Y50154943D01*
X51158333Y50154943D02*
X51110714Y50059705D01*
X51110714Y50059705D02*
X51110714Y49964467D01*
X51110714Y49964467D02*
X51158333Y49869229D01*
X51158333Y49869229D02*
X51205952Y49821610D01*
X51205952Y49821610D02*
X51301190Y49773991D01*
X51301190Y49773991D02*
X51634523Y49773991D01*
X50729761Y50250181D02*
X50110714Y50250181D01*
X50110714Y50250181D02*
X50444047Y49869229D01*
X50444047Y49869229D02*
X50301190Y49869229D01*
X50301190Y49869229D02*
X50205952Y49821610D01*
X50205952Y49821610D02*
X50158333Y49773991D01*
X50158333Y49773991D02*
X50110714Y49678753D01*
X50110714Y49678753D02*
X50110714Y49440658D01*
X50110714Y49440658D02*
X50158333Y49345420D01*
X50158333Y49345420D02*
X50205952Y49297800D01*
X50205952Y49297800D02*
X50301190Y49250181D01*
X50301190Y49250181D02*
X50586904Y49250181D01*
X50586904Y49250181D02*
X50682142Y49297800D01*
X50682142Y49297800D02*
X50729761Y49345420D01*
X52208333Y36773991D02*
X52541666Y36773991D01*
X52541666Y36250181D02*
X52541666Y37250181D01*
X52541666Y37250181D02*
X52065476Y37250181D01*
X51351190Y36773991D02*
X51208333Y36726372D01*
X51208333Y36726372D02*
X51160714Y36678753D01*
X51160714Y36678753D02*
X51113095Y36583515D01*
X51113095Y36583515D02*
X51113095Y36440658D01*
X51113095Y36440658D02*
X51160714Y36345420D01*
X51160714Y36345420D02*
X51208333Y36297800D01*
X51208333Y36297800D02*
X51303571Y36250181D01*
X51303571Y36250181D02*
X51684523Y36250181D01*
X51684523Y36250181D02*
X51684523Y37250181D01*
X51684523Y37250181D02*
X51351190Y37250181D01*
X51351190Y37250181D02*
X51255952Y37202562D01*
X51255952Y37202562D02*
X51208333Y37154943D01*
X51208333Y37154943D02*
X51160714Y37059705D01*
X51160714Y37059705D02*
X51160714Y36964467D01*
X51160714Y36964467D02*
X51208333Y36869229D01*
X51208333Y36869229D02*
X51255952Y36821610D01*
X51255952Y36821610D02*
X51351190Y36773991D01*
X51351190Y36773991D02*
X51684523Y36773991D01*
X50160714Y36250181D02*
X50732142Y36250181D01*
X50446428Y36250181D02*
X50446428Y37250181D01*
X50446428Y37250181D02*
X50541666Y37107324D01*
X50541666Y37107324D02*
X50636904Y37012086D01*
X50636904Y37012086D02*
X50732142Y36964467D01*
X52158333Y45468991D02*
X52491666Y45468991D01*
X52491666Y44945181D02*
X52491666Y45945181D01*
X52491666Y45945181D02*
X52015476Y45945181D01*
X51301190Y45468991D02*
X51158333Y45421372D01*
X51158333Y45421372D02*
X51110714Y45373753D01*
X51110714Y45373753D02*
X51063095Y45278515D01*
X51063095Y45278515D02*
X51063095Y45135658D01*
X51063095Y45135658D02*
X51110714Y45040420D01*
X51110714Y45040420D02*
X51158333Y44992800D01*
X51158333Y44992800D02*
X51253571Y44945181D01*
X51253571Y44945181D02*
X51634523Y44945181D01*
X51634523Y44945181D02*
X51634523Y45945181D01*
X51634523Y45945181D02*
X51301190Y45945181D01*
X51301190Y45945181D02*
X51205952Y45897562D01*
X51205952Y45897562D02*
X51158333Y45849943D01*
X51158333Y45849943D02*
X51110714Y45754705D01*
X51110714Y45754705D02*
X51110714Y45659467D01*
X51110714Y45659467D02*
X51158333Y45564229D01*
X51158333Y45564229D02*
X51205952Y45516610D01*
X51205952Y45516610D02*
X51301190Y45468991D01*
X51301190Y45468991D02*
X51634523Y45468991D01*
X50682142Y45849943D02*
X50634523Y45897562D01*
X50634523Y45897562D02*
X50539285Y45945181D01*
X50539285Y45945181D02*
X50301190Y45945181D01*
X50301190Y45945181D02*
X50205952Y45897562D01*
X50205952Y45897562D02*
X50158333Y45849943D01*
X50158333Y45849943D02*
X50110714Y45754705D01*
X50110714Y45754705D02*
X50110714Y45659467D01*
X50110714Y45659467D02*
X50158333Y45516610D01*
X50158333Y45516610D02*
X50729761Y44945181D01*
X50729761Y44945181D02*
X50110714Y44945181D01*
X8616666Y11390420D02*
X8664285Y11342800D01*
X8664285Y11342800D02*
X8807142Y11295181D01*
X8807142Y11295181D02*
X8902380Y11295181D01*
X8902380Y11295181D02*
X9045237Y11342800D01*
X9045237Y11342800D02*
X9140475Y11438039D01*
X9140475Y11438039D02*
X9188094Y11533277D01*
X9188094Y11533277D02*
X9235713Y11723753D01*
X9235713Y11723753D02*
X9235713Y11866610D01*
X9235713Y11866610D02*
X9188094Y12057086D01*
X9188094Y12057086D02*
X9140475Y12152324D01*
X9140475Y12152324D02*
X9045237Y12247562D01*
X9045237Y12247562D02*
X8902380Y12295181D01*
X8902380Y12295181D02*
X8807142Y12295181D01*
X8807142Y12295181D02*
X8664285Y12247562D01*
X8664285Y12247562D02*
X8616666Y12199943D01*
X8235713Y12199943D02*
X8188094Y12247562D01*
X8188094Y12247562D02*
X8092856Y12295181D01*
X8092856Y12295181D02*
X7854761Y12295181D01*
X7854761Y12295181D02*
X7759523Y12247562D01*
X7759523Y12247562D02*
X7711904Y12199943D01*
X7711904Y12199943D02*
X7664285Y12104705D01*
X7664285Y12104705D02*
X7664285Y12009467D01*
X7664285Y12009467D02*
X7711904Y11866610D01*
X7711904Y11866610D02*
X8283332Y11295181D01*
X8283332Y11295181D02*
X7664285Y11295181D01*
X48266666Y40540420D02*
X48314285Y40492800D01*
X48314285Y40492800D02*
X48457142Y40445181D01*
X48457142Y40445181D02*
X48552380Y40445181D01*
X48552380Y40445181D02*
X48695237Y40492800D01*
X48695237Y40492800D02*
X48790475Y40588039D01*
X48790475Y40588039D02*
X48838094Y40683277D01*
X48838094Y40683277D02*
X48885713Y40873753D01*
X48885713Y40873753D02*
X48885713Y41016610D01*
X48885713Y41016610D02*
X48838094Y41207086D01*
X48838094Y41207086D02*
X48790475Y41302324D01*
X48790475Y41302324D02*
X48695237Y41397562D01*
X48695237Y41397562D02*
X48552380Y41445181D01*
X48552380Y41445181D02*
X48457142Y41445181D01*
X48457142Y41445181D02*
X48314285Y41397562D01*
X48314285Y41397562D02*
X48266666Y41349943D01*
X47361904Y41445181D02*
X47838094Y41445181D01*
X47838094Y41445181D02*
X47885713Y40968991D01*
X47885713Y40968991D02*
X47838094Y41016610D01*
X47838094Y41016610D02*
X47742856Y41064229D01*
X47742856Y41064229D02*
X47504761Y41064229D01*
X47504761Y41064229D02*
X47409523Y41016610D01*
X47409523Y41016610D02*
X47361904Y40968991D01*
X47361904Y40968991D02*
X47314285Y40873753D01*
X47314285Y40873753D02*
X47314285Y40635658D01*
X47314285Y40635658D02*
X47361904Y40540420D01*
X47361904Y40540420D02*
X47409523Y40492800D01*
X47409523Y40492800D02*
X47504761Y40445181D01*
X47504761Y40445181D02*
X47742856Y40445181D01*
X47742856Y40445181D02*
X47838094Y40492800D01*
X47838094Y40492800D02*
X47885713Y40540420D01*
X14866666Y19790420D02*
X14914285Y19742800D01*
X14914285Y19742800D02*
X15057142Y19695181D01*
X15057142Y19695181D02*
X15152380Y19695181D01*
X15152380Y19695181D02*
X15295237Y19742800D01*
X15295237Y19742800D02*
X15390475Y19838039D01*
X15390475Y19838039D02*
X15438094Y19933277D01*
X15438094Y19933277D02*
X15485713Y20123753D01*
X15485713Y20123753D02*
X15485713Y20266610D01*
X15485713Y20266610D02*
X15438094Y20457086D01*
X15438094Y20457086D02*
X15390475Y20552324D01*
X15390475Y20552324D02*
X15295237Y20647562D01*
X15295237Y20647562D02*
X15152380Y20695181D01*
X15152380Y20695181D02*
X15057142Y20695181D01*
X15057142Y20695181D02*
X14914285Y20647562D01*
X14914285Y20647562D02*
X14866666Y20599943D01*
X14533332Y20695181D02*
X13914285Y20695181D01*
X13914285Y20695181D02*
X14247618Y20314229D01*
X14247618Y20314229D02*
X14104761Y20314229D01*
X14104761Y20314229D02*
X14009523Y20266610D01*
X14009523Y20266610D02*
X13961904Y20218991D01*
X13961904Y20218991D02*
X13914285Y20123753D01*
X13914285Y20123753D02*
X13914285Y19885658D01*
X13914285Y19885658D02*
X13961904Y19790420D01*
X13961904Y19790420D02*
X14009523Y19742800D01*
X14009523Y19742800D02*
X14104761Y19695181D01*
X14104761Y19695181D02*
X14390475Y19695181D01*
X14390475Y19695181D02*
X14485713Y19742800D01*
X14485713Y19742800D02*
X14533332Y19790420D01*
X55374819Y23116667D02*
X54898628Y23450000D01*
X55374819Y23688095D02*
X54374819Y23688095D01*
X54374819Y23688095D02*
X54374819Y23307143D01*
X54374819Y23307143D02*
X54422438Y23211905D01*
X54422438Y23211905D02*
X54470057Y23164286D01*
X54470057Y23164286D02*
X54565295Y23116667D01*
X54565295Y23116667D02*
X54708152Y23116667D01*
X54708152Y23116667D02*
X54803390Y23164286D01*
X54803390Y23164286D02*
X54851009Y23211905D01*
X54851009Y23211905D02*
X54898628Y23307143D01*
X54898628Y23307143D02*
X54898628Y23688095D01*
X55374819Y22164286D02*
X55374819Y22735714D01*
X55374819Y22450000D02*
X54374819Y22450000D01*
X54374819Y22450000D02*
X54517676Y22545238D01*
X54517676Y22545238D02*
X54612914Y22640476D01*
X54612914Y22640476D02*
X54660533Y22735714D01*
X14766666Y23090420D02*
X14814285Y23042800D01*
X14814285Y23042800D02*
X14957142Y22995181D01*
X14957142Y22995181D02*
X15052380Y22995181D01*
X15052380Y22995181D02*
X15195237Y23042800D01*
X15195237Y23042800D02*
X15290475Y23138039D01*
X15290475Y23138039D02*
X15338094Y23233277D01*
X15338094Y23233277D02*
X15385713Y23423753D01*
X15385713Y23423753D02*
X15385713Y23566610D01*
X15385713Y23566610D02*
X15338094Y23757086D01*
X15338094Y23757086D02*
X15290475Y23852324D01*
X15290475Y23852324D02*
X15195237Y23947562D01*
X15195237Y23947562D02*
X15052380Y23995181D01*
X15052380Y23995181D02*
X14957142Y23995181D01*
X14957142Y23995181D02*
X14814285Y23947562D01*
X14814285Y23947562D02*
X14766666Y23899943D01*
X13909523Y23661848D02*
X13909523Y22995181D01*
X14147618Y24042800D02*
X14385713Y23328515D01*
X14385713Y23328515D02*
X13766666Y23328515D01*
X39609819Y48791667D02*
X39133628Y49125000D01*
X39609819Y49363095D02*
X38609819Y49363095D01*
X38609819Y49363095D02*
X38609819Y48982143D01*
X38609819Y48982143D02*
X38657438Y48886905D01*
X38657438Y48886905D02*
X38705057Y48839286D01*
X38705057Y48839286D02*
X38800295Y48791667D01*
X38800295Y48791667D02*
X38943152Y48791667D01*
X38943152Y48791667D02*
X39038390Y48839286D01*
X39038390Y48839286D02*
X39086009Y48886905D01*
X39086009Y48886905D02*
X39133628Y48982143D01*
X39133628Y48982143D02*
X39133628Y49363095D01*
X38609819Y47934524D02*
X38609819Y48125000D01*
X38609819Y48125000D02*
X38657438Y48220238D01*
X38657438Y48220238D02*
X38705057Y48267857D01*
X38705057Y48267857D02*
X38847914Y48363095D01*
X38847914Y48363095D02*
X39038390Y48410714D01*
X39038390Y48410714D02*
X39419342Y48410714D01*
X39419342Y48410714D02*
X39514580Y48363095D01*
X39514580Y48363095D02*
X39562200Y48315476D01*
X39562200Y48315476D02*
X39609819Y48220238D01*
X39609819Y48220238D02*
X39609819Y48029762D01*
X39609819Y48029762D02*
X39562200Y47934524D01*
X39562200Y47934524D02*
X39514580Y47886905D01*
X39514580Y47886905D02*
X39419342Y47839286D01*
X39419342Y47839286D02*
X39181247Y47839286D01*
X39181247Y47839286D02*
X39086009Y47886905D01*
X39086009Y47886905D02*
X39038390Y47934524D01*
X39038390Y47934524D02*
X38990771Y48029762D01*
X38990771Y48029762D02*
X38990771Y48220238D01*
X38990771Y48220238D02*
X39038390Y48315476D01*
X39038390Y48315476D02*
X39086009Y48363095D01*
X39086009Y48363095D02*
X39181247Y48410714D01*
X14416666Y16595181D02*
X14892856Y16595181D01*
X14892856Y16595181D02*
X14892856Y17595181D01*
X13559523Y16595181D02*
X14130951Y16595181D01*
X13845237Y16595181D02*
X13845237Y17595181D01*
X13845237Y17595181D02*
X13940475Y17452324D01*
X13940475Y17452324D02*
X14035713Y17357086D01*
X14035713Y17357086D02*
X14130951Y17309467D01*
D10*
%TO.C,R4*%
X41935000Y34797936D02*
X41935000Y36252064D01*
X40115000Y34797936D02*
X40115000Y36252064D01*
%TO.C,U3*%
X46275000Y56590000D02*
X46035000Y56920000D01*
X46515000Y56920000D01*
X46275000Y56590000D01*
G36*
X46275000Y56590000D02*
G01*
X46035000Y56920000D01*
X46515000Y56920000D01*
X46275000Y56590000D01*
G37*
X45525000Y51565000D02*
X43575000Y51565000D01*
X45525000Y56685000D02*
X43575000Y56685000D01*
X41625000Y51565000D02*
X43575000Y51565000D01*
X41625000Y56685000D02*
X43575000Y56685000D01*
%TO.C,FB4*%
X52052064Y55615000D02*
X50597936Y55615000D01*
X52052064Y57435000D02*
X50597936Y57435000D01*
%TO.C,J1*%
X24488000Y5185000D02*
X25538000Y5185000D01*
X24488000Y2685000D02*
X24488000Y5185000D01*
X29538000Y715000D02*
X25658000Y715000D01*
X29658000Y5185000D02*
X29658000Y6175000D01*
X30708000Y5185000D02*
X29658000Y5185000D01*
X30708000Y2685000D02*
X30708000Y5185000D01*
%TO.C,C1*%
X5238748Y21255000D02*
X6661252Y21255000D01*
X5238748Y19435000D02*
X6661252Y19435000D01*
%TO.C,R2*%
X53985000Y31347936D02*
X53985000Y32802064D01*
X52165000Y31347936D02*
X52165000Y32802064D01*
%TO.C,R3*%
X44435000Y36252064D02*
X44435000Y34797936D01*
X42615000Y36252064D02*
X42615000Y34797936D01*
%TO.C,R5*%
X44385000Y49352064D02*
X44385000Y47897936D01*
X42565000Y49352064D02*
X42565000Y47897936D01*
%TO.C,U1*%
X5350000Y18605000D02*
X6150000Y18605000D01*
X5350000Y15485000D02*
X6150000Y15485000D01*
X6950000Y18605000D02*
X6150000Y18605000D01*
X6950000Y15485000D02*
X6150000Y15485000D01*
X5090000Y15205000D02*
X4610000Y15205000D01*
X4850000Y15535000D01*
X5090000Y15205000D01*
G36*
X5090000Y15205000D02*
G01*
X4610000Y15205000D01*
X4850000Y15535000D01*
X5090000Y15205000D01*
G37*
%TO.C,C6*%
X50663748Y53115000D02*
X52086252Y53115000D01*
X50663748Y54935000D02*
X52086252Y54935000D01*
%TO.C,U2*%
X46300000Y43355000D02*
X46060000Y43685000D01*
X46540000Y43685000D01*
X46300000Y43355000D01*
G36*
X46300000Y43355000D02*
G01*
X46060000Y43685000D01*
X46540000Y43685000D01*
X46300000Y43355000D01*
G37*
X45550000Y38330000D02*
X43600000Y38330000D01*
X45550000Y43450000D02*
X43600000Y43450000D01*
X41650000Y38330000D02*
X43600000Y38330000D01*
X41650000Y43450000D02*
X43600000Y43450000D01*
%TO.C,FB3*%
X52052064Y50615000D02*
X50597936Y50615000D01*
X52052064Y52435000D02*
X50597936Y52435000D01*
%TO.C,FB1*%
X52102064Y37615000D02*
X50647936Y37615000D01*
X52102064Y39435000D02*
X50647936Y39435000D01*
%TO.C,FB2*%
X52052064Y42615000D02*
X50597936Y42615000D01*
X52052064Y44435000D02*
X50597936Y44435000D01*
%TO.C,C2*%
X7838748Y14455000D02*
X9261252Y14455000D01*
X7838748Y12635000D02*
X9261252Y12635000D01*
%TO.C,C5*%
X50601248Y40115000D02*
X52023752Y40115000D01*
X50601248Y41935000D02*
X52023752Y41935000D01*
%TO.C,C3*%
X11961252Y21255000D02*
X10538748Y21255000D01*
X11961252Y19435000D02*
X10538748Y19435000D01*
%TO.C,R1*%
X52190000Y23677064D02*
X52190000Y22222936D01*
X54010000Y23677064D02*
X54010000Y22222936D01*
%TO.C,C4*%
X11961252Y24255000D02*
X10538748Y24255000D01*
X11961252Y22435000D02*
X10538748Y22435000D01*
%TO.C,R6*%
X41885000Y47897936D02*
X41885000Y49352064D01*
X40065000Y47897936D02*
X40065000Y49352064D01*
%TO.C,L1*%
X11852064Y18405000D02*
X10647936Y18405000D01*
X11852064Y15685000D02*
X10647936Y15685000D01*
%TD*%
M02*
