%TF.GenerationSoftware,KiCad,Pcbnew,8.0.5*%
%TF.CreationDate,2024-09-29T17:35:40-04:00*%
%TF.ProjectId,BREAD_Slice,42524541-445f-4536-9c69-63652e6b6963,rev?*%
%TF.SameCoordinates,PX74eba40PY8552dc0*%
%TF.FileFunction,Paste,Bot*%
%TF.FilePolarity,Positive*%
%FSLAX46Y46*%
G04 Gerber Fmt 4.6, Leading zero omitted, Abs format (unit mm)*
G04 Created by KiCad (PCBNEW 8.0.5) date 2024-09-29 17:35:40*
%MOMM*%
%LPD*%
G01*
G04 APERTURE LIST*
G04 Aperture macros list*
%AMRoundRect*
0 Rectangle with rounded corners*
0 $1 Rounding radius*
0 $2 $3 $4 $5 $6 $7 $8 $9 X,Y pos of 4 corners*
0 Add a 4 corners polygon primitive as box body*
4,1,4,$2,$3,$4,$5,$6,$7,$8,$9,$2,$3,0*
0 Add four circle primitives for the rounded corners*
1,1,$1+$1,$2,$3*
1,1,$1+$1,$4,$5*
1,1,$1+$1,$6,$7*
1,1,$1+$1,$8,$9*
0 Add four rect primitives between the rounded corners*
20,1,$1+$1,$2,$3,$4,$5,0*
20,1,$1+$1,$4,$5,$6,$7,0*
20,1,$1+$1,$6,$7,$8,$9,0*
20,1,$1+$1,$8,$9,$2,$3,0*%
G04 Aperture macros list end*
%ADD10RoundRect,0.250000X-0.625000X0.400000X-0.625000X-0.400000X0.625000X-0.400000X0.625000X0.400000X0*%
%ADD11RoundRect,0.150000X0.825000X0.150000X-0.825000X0.150000X-0.825000X-0.150000X0.825000X-0.150000X0*%
%ADD12RoundRect,0.250000X-0.400000X-0.625000X0.400000X-0.625000X0.400000X0.625000X-0.400000X0.625000X0*%
%ADD13RoundRect,0.150000X0.150000X0.625000X-0.150000X0.625000X-0.150000X-0.625000X0.150000X-0.625000X0*%
%ADD14RoundRect,0.250000X0.350000X0.650000X-0.350000X0.650000X-0.350000X-0.650000X0.350000X-0.650000X0*%
%ADD15RoundRect,0.250000X0.325000X0.650000X-0.325000X0.650000X-0.325000X-0.650000X0.325000X-0.650000X0*%
%ADD16RoundRect,0.250000X0.625000X-0.400000X0.625000X0.400000X-0.625000X0.400000X-0.625000X-0.400000X0*%
%ADD17RoundRect,0.150000X-0.512500X-0.150000X0.512500X-0.150000X0.512500X0.150000X-0.512500X0.150000X0*%
%ADD18RoundRect,0.250000X0.412500X0.650000X-0.412500X0.650000X-0.412500X-0.650000X0.412500X-0.650000X0*%
%ADD19RoundRect,0.250000X-0.325000X-0.650000X0.325000X-0.650000X0.325000X0.650000X-0.325000X0.650000X0*%
%ADD20RoundRect,0.250000X-0.375000X-1.075000X0.375000X-1.075000X0.375000X1.075000X-0.375000X1.075000X0*%
G04 APERTURE END LIST*
D10*
%TO.C,R4*%
X41025000Y33975000D03*
X41025000Y37075000D03*
%TD*%
D11*
%TO.C,U3*%
X41100000Y56030000D03*
X41100000Y54760000D03*
X41100000Y53490000D03*
X41100000Y52220000D03*
X46050000Y52220000D03*
X46050000Y53490000D03*
X46050000Y54760000D03*
X46050000Y56030000D03*
%TD*%
D12*
%TO.C,FB4*%
X52875000Y56525000D03*
X49775000Y56525000D03*
%TD*%
D13*
%TO.C,J1*%
X29098000Y5400000D03*
X28098000Y5400000D03*
X27098000Y5400000D03*
X26098000Y5400000D03*
D14*
X30398000Y1525000D03*
X24798000Y1525000D03*
%TD*%
D15*
%TO.C,C1*%
X7425000Y20345000D03*
X4475000Y20345000D03*
%TD*%
D10*
%TO.C,R2*%
X53075000Y30525000D03*
X53075000Y33625000D03*
%TD*%
D16*
%TO.C,R3*%
X43525000Y37075000D03*
X43525000Y33975000D03*
%TD*%
%TO.C,R5*%
X43475000Y50175000D03*
X43475000Y47075000D03*
%TD*%
D17*
%TO.C,U1*%
X5012500Y16095000D03*
X5012500Y17045000D03*
X5012500Y17995000D03*
X7287500Y17995000D03*
X7287500Y17045000D03*
X7287500Y16095000D03*
%TD*%
D18*
%TO.C,C6*%
X49812500Y54025000D03*
X52937500Y54025000D03*
%TD*%
D11*
%TO.C,U2*%
X41125000Y42795000D03*
X41125000Y41525000D03*
X41125000Y40255000D03*
X41125000Y38985000D03*
X46075000Y38985000D03*
X46075000Y40255000D03*
X46075000Y41525000D03*
X46075000Y42795000D03*
%TD*%
D12*
%TO.C,FB3*%
X52875000Y51525000D03*
X49775000Y51525000D03*
%TD*%
%TO.C,FB1*%
X52925000Y38525000D03*
X49825000Y38525000D03*
%TD*%
%TO.C,FB2*%
X52875000Y43525000D03*
X49775000Y43525000D03*
%TD*%
D15*
%TO.C,C2*%
X10025000Y13545000D03*
X7075000Y13545000D03*
%TD*%
D18*
%TO.C,C5*%
X49750000Y41025000D03*
X52875000Y41025000D03*
%TD*%
D19*
%TO.C,C3*%
X9775000Y20345000D03*
X12725000Y20345000D03*
%TD*%
D16*
%TO.C,R1*%
X53100000Y24500000D03*
X53100000Y21400000D03*
%TD*%
D19*
%TO.C,C4*%
X9775000Y23345000D03*
X12725000Y23345000D03*
%TD*%
D10*
%TO.C,R6*%
X40975000Y47075000D03*
X40975000Y50175000D03*
%TD*%
D20*
%TO.C,L1*%
X9850000Y17045000D03*
X12650000Y17045000D03*
%TD*%
M02*
